/* XPM */
static char *_786e2d30cad46adfca9549ea041cf51M0WL3VKxmVTsos3j[] = {
/* columns rows colors chars-per-pixel */
"64 64 253 2 ",
"   c #030200",
".  c #0B0301",
"X  c #030A02",
"o  c #0C0A04",
"O  c #08050A",
"+  c #030D0A",
"@  c #0D0C0A",
"#  c #130301",
"$  c #1B0200",
"%  c #140C03",
"&  c #1C0C02",
"*  c #130C0A",
"=  c #1B0D0A",
"-  c #08130A",
";  c #1C1203",
":  c #181807",
">  c #13120B",
",  c #1C130B",
"<  c #110C10",
"1  c #0A1714",
"2  c #141412",
"3  c #1B1513",
"4  c #1C1B13",
"5  c #191D19",
"6  c #230301",
"7  c #2B0401",
"8  c #240C02",
"9  c #2B0C03",
"0  c #240E0A",
"q  c #2C0D0A",
"w  c #320401",
"e  c #3B0603",
"r  c #330D04",
"t  c #3A0B04",
"y  c #350608",
"u  c #340D0A",
"i  c #3A0D0A",
"p  c #251303",
"a  c #2C1303",
"s  c #231906",
"d  c #2C1A03",
"f  c #25130B",
"g  c #2C130A",
"h  c #241A0C",
"j  c #2C1A0B",
"k  c #331205",
"l  c #3A1304",
"z  c #321905",
"x  c #3B1904",
"c  c #33130B",
"v  c #3A120C",
"b  c #331A0C",
"n  c #3B1A0E",
"m  c #2D0D10",
"M  c #370F10",
"N  c #251512",
"B  c #241C14",
"V  c #2C1C13",
"C  c #2C1A17",
"Z  c #241C1A",
"A  c #341511",
"S  c #3B1612",
"D  c #341B12",
"F  c #3B1B12",
"G  c #361E1C",
"H  c #3C1D19",
"J  c #1F2001",
"K  c #192617",
"L  c #262302",
"P  c #2D2303",
"I  c #2B2808",
"U  c #322401",
"Y  c #322B02",
"T  c #38290A",
"R  c #373307",
"E  c #252215",
"W  c #2D2113",
"Q  c #24231B",
"!  c #2C241B",
"~  c #2B2B19",
"^  c #332114",
"/  c #3B2215",
"(  c #372A17",
")  c #34241C",
"_  c #3C241C",
"`  c #283218",
"'  c #3A3719",
"]  c #271C20",
"[  c #1E2B28",
"{  c #1F3520",
"}  c #252422",
"|  c #2C2421",
" . c #2A2B24",
".. c #292A2A",
"X. c #352926",
"o. c #3B2B23",
"O. c #273227",
"+. c #373629",
"@. c #2C3332",
"#. c #393636",
"$. c #440B01",
"%. c #460A05",
"&. c #441400",
"*. c #461706",
"=. c #4D1301",
"-. c #551703",
";. c #531C00",
":. c #5C1B01",
">. c #431D19",
",. c #472804",
"<. c #552403",
"1. c #5A2804",
"2. c #483709",
"3. c #533A06",
"4. c #43231C",
"5. c #442A1C",
"6. c #592C13",
"7. c #473717",
"8. c #553A16",
"9. c #632402",
"0. c #682A06",
"q. c #722E07",
"w. c #683504",
"e. c #753A07",
"r. c #74340B",
"t. c #662D12",
"y. c #6B3918",
"u. c #763914",
"i. c #452B24",
"p. c #482825",
"a. c #4A3926",
"s. c #57352D",
"d. c #453B35",
"f. c #6D3B22",
"g. c #344636",
"h. c #4A4216",
"j. c #5A4E17",
"k. c #58451A",
"l. c #694803",
"z. c #764508",
"x. c #794515",
"c. c #685017",
"v. c #7C5913",
"b. c #795918",
"n. c #4A4425",
"m. c #584626",
"M. c #5D5326",
"N. c #474937",
"B. c #5C4C32",
"V. c #5A5234",
"C. c #634A27",
"Z. c #7D4A24",
"A. c #675529",
"S. c #785A26",
"D. c #664D34",
"F. c #6B5938",
"G. c #725838",
"H. c #7D6227",
"J. c #796735",
"K. c #3B3F40",
"L. c #3C4344",
"P. c #3D5243",
"I. c #464A46",
"U. c #4B5248",
"Y. c #50524E",
"T. c #55564C",
"R. c #585754",
"E. c #5C5A54",
"W. c #6F5944",
"Q. c #625E57",
"!. c #5D6057",
"~. c #786649",
"^. c #6F6B55",
"/. c #666458",
"(. c #746957",
"). c #5D6864",
"_. c #686963",
"`. c #68746A",
"'. c #833F1D",
"]. c #844A09",
"[. c #8D5B0C",
"{. c #905708",
"}. c #854919",
"|. c #875818",
" X c #935616",
".X c #8D600D",
"XX c #87631A",
"oX c #9B6619",
"OX c #A26C1E",
"+X c #874924",
"@X c #855927",
"#X c #865B37",
"$X c #985430",
"%X c #876728",
"&X c #9A6725",
"*X c #876735",
"=X c #967334",
"-X c #A56A28",
";X c #A87329",
":X c #B07728",
">X c #AD7336",
",X c #8E6F4E",
"<X c #9B7A55",
"1X c #B98B2C",
"2X c #B98737",
"3X c #BB953A",
"4X c #C2893A",
"5X c #C7963A",
"6X c #D2A73F",
"7X c #B8904D",
"8X c #B1946C",
"9X c #BBA376",
"0X c #C99A45",
"qX c #D59A44",
"wX c #C59151",
"eX c #C9A345",
"rX c #D6A548",
"tX c #CFAA54",
"yX c #D8A857",
"uX c #DCB556",
"iX c #E1AC4A",
"pX c #EAAF59",
"aX c #E7B55C",
"sX c #D59664",
"dX c #D9A864",
"fX c #C3A976",
"gX c #D5B476",
"hX c #E7B866",
"jX c #F4BC67",
"kX c #E5AD73",
"lX c #E3A978",
"zX c #F6C26C",
"xX c #F9C772",
"cX c #CCB18E",
"vX c #EFBB8D",
"bX c #F9D28E",
"nX c #FFE48A",
"mX c #E8D3A5",
"MX c #FFF7C8",
"NX c #FEFCCC",
"BX c #FEF6D4",
"VX c #FEFCD3",
"CX c #FEFDDB",
"ZX c #FEFDE3",
"AX c #F8FCEC",
"SX c #FFFDEC",
"DX c #E8F9F9",
"FX c #F4FEF4",
"GX c #FDFEF4",
"HX c #FEFFF6",
"JX c #F6FFFD",
"KX c #FFFEFA",
"LX c #FCFEFD",
/* pixels */
"FXFXJXJXJXJXLXHXHXSXSXSXSXSXSXHXHXHXHXHXKXFXHXHXHXHXHXHXKXKXKXLXKXKXKXKXKXHXHXHXHXHXHXKXKXKXKXKXHXHXHXHXHXHXHXHXJXJXJXFXJXJXJXLX",
"FX`.`.I.I.).`.N./././.(.a.a.d.(.N.U./.U.I./.Y.U.U.U.Q.Q.T.R.E.Y.Q.E./.E.Q.E.Q.Q.T.T.E.E.R.R.R._.U.R.I.U.!.R.U.I.`.g.I.I.).O.Y.JX",
"FXP.[ 1 1 1     +.E ; ; & $ # % E : E X K   5 @ @ 4 4 > , % o , > @ * o * o * % 3 o o . Q   @   4 4 > > > > 4 2 1   - K   + @.JX",
"FXg.K + +   X     . ; . . # # #   o   X   > +   > .   .       . X X       .   .     . . . >   X o   @ X     o X + X   +     5 LX",
"FXg.+ X       X   # . # # # $ #   X                         .                     o         X             o   X     O   O   ..LX",
"FX{ K 1 O.2 > ~ ( a./ z a 6 q $ . %     X : 4 :   ; % . # # . . o X o   .   . . # . . * . 4 . 3 O < O * O o * *   X @     O } LX",
"AX` K g.N.E.^.~.cXcXcX,X,XW.>.n j , , E B d., X.B V o.) f V ) V ! ~  . .| ! | ) C Z | N | * Q } ] ..| #.] | | Z X.3 } 2   < R.LX",
"AXg.K /.(.^.,X8X9X8X7X*X#XZ.&.*.# ( # f . +.| C = f g D / D D o.% : % E % B % B N , Z . N , ! Q Z Z * * % Z . 3 * o   *     R.LX",
"SX~ ~ N.(.W.<X#XmXbXvX<X0.Z.t.t x g # f d.) # X.G D A 9 9 8 9 & h : E % ! & V & f f f V f h , * % , C & N V o.) , ) B . Z . 3 LX",
"SX+.% W.~.D.<X,X8XlXlX}.+Xu.9.y.$ c 6 $ A 6 A 8 q 9 g 9 9 H 6 c p s % s & j j V j f V f V p f ; C f f V V 0 f p h W . o .   X.KX",
"SXs ( a.,XG.,X#XvXsXlX>Xq.$Xq.y.7 y 7 6 c $ c b 8 F 9 F u 6 p.H & s s W j j f f p 8 0 p 8 g j j f & / & g p g p W ;   B B . B HX",
"SX( j 5.W.C.#Xx.lXsXsX-Xr.'.:.:.*.i u 9 $ p.6 F 9 6 c 9 >.S 7 q b p p & j & p $ V j g c 9 b a a g / $ b $ & p $ & h , h , * B KX",
"SXa.& a.m.x y.1.lXwXdX Xr.r.=.$.-.*.7 6 H 6 q q q 6 6 r $ 7 9 9 8 g g b j p 8 $ j p g 9 c 9 k 9 0 g $ b 8 b p 8 8 j ; , , . X.KX",
"BXI P 7.F.k.*X@XwXdXdX Xq.9.9.t.7 l 7 $ 6 8 $ $ D g 6 6 c F 6 6 F b 8 8 g b j j j g c c c v v u c / g c c $ D & j f . ; Q . 3 LX",
"CXR L k.M.j.*X%XdXyXkX&Xx.u.9.6.7 7 6 9 c $ $ 8 / g F 9 g g A c 6 c F c 8 $ f V g g 9 c 7 y w w c 8 8 D 9 9 9 _ $ ) % . * . 2 LX",
"VXI L M.k.2.b.%X0X0XyX&X0.w.0.f.*.>.c / i.5._ ^ g / b / F D F b F F 8 b g F j 8 6 6 9 7 9 7 v v 9 6 6 6 9 F c g $ ) . X.Z   #.LX",
"CX` % ' D.7.S.l.hX0XyX>Xu.u.:.e l p.6 8 _ j D g g F n k k 8 a 8 d b p g F F g b 4.F F c c c D A 4.4.9 F r b 8 D o.. d..     2 LX",
"ZXJ ; B.W.7.*Xb.tXyXrXoXr.q.:.t.7 >.$ q _ g g 8 b 9 $ k k b a 8 d T & / $ 9 F $ 9 6 / c c F $ 6 u c 9 c c b g ^ # = #.  . @   LX",
"CX' I 7.a.C.S.v.hX0XjX Xq.'.:.-.7 u 6 6 q g $ g F c k n 9 8 a a T & j 8 F 8 k k F F 8 9 9 6 D c S n S 9 8 6 8 & V # d.  .   2 LX",
"CXP & F.D.C.*X&XhXqXqX-X0.q.-.t.w >.$ 6 / $ F 9 9 9 n F k a k & ( & ^ a $ c $ 6 k 6 F b g D $ 6 c 9 9 9 a g b & V . Z   o o @ KX",
"VXU Y 8.C.C.@X|.aXrXqXOX0.q.:.:.e w 7 6 D _ 8 g c r 9 k 6 k z z a d $ b $ b 6 6 n r r y 9 9 q q g 9 c c a p g & V # Z   . o @ KX",
"NX2.d 8.G.8.%X;XyXrXjX{.q.e.0.=.w i 7 u c H 9 c 9 9 n F k 9 8 k z T 8 a / 8 6 k c 9 r 7 7 9 q q 9 8 9 k 8 8 g p W % #.      @ LX",
"MXU d C.C.8.@X|.0XiXrX Xe.9.:.u.w i u 7 H 6 F A 7 6 y 6 F 9 9 a p p a a 9 v n v 9 7 F b F H q 6 4.c 9 9 a z j & & ; X.    2   LX",
"MXR d k.C.8.=XXXyX1XaX-Xz.w.;.0.w 7 7 7 7 c $ 7 7 9 r 6 F n 8 a a d p a k r 7 F 7 9 c c c A 9 $ c a b a a 8 8 # i.. +.o   2 4 JX",
"NXR Y 2.A.3.S.l.aX5XrXoXz.e.e.1.*.7 6 9 >.H S S v v v S r c 9 a z p a a p a a r c t r r u u m g g a a 8 ^ d j j # ) . . 3   } JX",
"NXY ; A.k.C.H.l.uXuXrX;X1.x.*.y.w >.$ 9 4.9 $ A u y t u r k 9 a a a a a a a a k t t t t u c A A g a g a d a a p W , . 4     2 LX",
"CXR L 7.A.8.%XXXeX6XrX[.z.w.w.,.l 7 6 6 s.8 9 c c y i r r r r 9 d d a a 9 r t v r r r r r u u c q g a a p a a p j o.. > Z   } JX",
"CXR : m.m.k.S.v.uX1XuX.Xz.1.w.1.r 6 $ q 6 _ 8 $ n u v t t t k 9 a d a 9 9 r r v r 9 r r 9 r u u q g a a 8 a d p p ) ,   o   O.LX",
"ZXI L n.F.8.S.l.uX3XrXoXw.w.1.1.r q # D i.8 8 F c y v r t t k 9 8 a a a a a 9 r t k k k r r q q A c c a a a a 8 p ) % Q X   5 FX",
"SXW s n.D.m.%XXXeXrX5XoXw.x.1.<.7 D $ $ _ & $ q u y v r r t k 9 a a a p a a k k t t k k t r u q A q c a a a a 8 ^ f *   4    .JX",
"SX( ; ' ~.A.S.XXuX6XrXOXw.e.=.y.6 $ # $ _ C 8 _ 9 r v v r k r k d p a 8 9 a c t k k k k r r r q u u q g a a a j # V . , >   @.FX",
"SXE ( a.F.8.H.v.uX1XyXoX|.w.w.<.k H # f o.f 8 H 9 r i v r v k k a p g b k c c 7 c c k r k u u q A A 8 g 8 a p / # o.%   } X o KX",
"SX+.p a.F.8.*Xb.3XnX2X-Xx.&.+Xt 7 6 $ 8 ) j = 0 c 9 v u t v 9 9 g c q 9 u v M u u u c q u u u u 9 c b 8 a j g 8 ^ # $ N   o U.LX",
"ZXW P a.F.8.S.%XeXhX:X>Xe.<.u.1.l 9 $ 8 _ g 0 f c 9 v i t v 9 q 9 u u u v i i y u u u u u u M u r a 8 b 8 j 8 p D $ 0 N .   I.LX",
"SXI p a.~.m.S.|.yXhX1X2Xx.=.}.&.w 7 $ 9 i.j 0 8 c r v i t c 9 q A c r r u u t v u u v v y y i S 9 a a a 8 j j 8 D 0 0 N .   I.LX",
"CX' d 7.B.m.*Xv.tXxX2X[.x.=.0.;.&.r $ 9 _ p 0 q c t i i t c 9 q g k k k v t r l u u i n w y y v r a a a p j D 8 D 0 = ,     I.LX",
"ZX' % m.m.A.H.b.0XaX2X&X|.=.u.;.$.r $ 9 4.8 q g k t i i t c 9 9 9 a a 9 r k r t v t 7 i i i e i k a 8 b p d d p V & & =     #.LX",
"ZXI p B.m.C.S.%X0XxX;X>X].1.r.:.w w $ 9 5.q q g r t i r t c c 9 a z a 8 9 r k v r r 7 i t %.%.e k k a a p p j 8 D f & ,     K.LX",
"CXI P 7.m.A.*Xv.yXjX4XOXe.$.+X=.=.t 6 7 >.c q m y t i r t k c 9 a a a z z l r r 9 t v r t e %.%.r l z 8 d & ^ & ^ 0 & ,     L.LX",
"CXI d 7.C.2.*Xv.rXnX:X4X X=.$X%.$.w 6 7 4.F q 6 r v i i r t c 9 z a p a z k 9 k k c v r t e %.e r z 9 a j & j p V & % ,     L.LX",
"VXL & m.F.k.S.|.2X4XpX].e.r.:.:.$.%.7 i c 7 6 p.7 r i r v r k 9 d d a a 9 9 z k k r k w i i %.e t k k a d p j p j % V Z   X #.LX",
"CXh.d C.~.,.=X|.yX5XqX;Xe.9.9.%.$.t 7 S 7 6 6 p.7 t i r l r k 9 8 a z z 8 8 a b 9 c t v w i e t r k 9 9 d & j p ^ & f 3 .   I.LX",
"MXR d k.D.G.%XXXqXpXqXoXe.u.0.0.$.7 7 i p.u q >.7 t i r t r c a a 8 8 a a z g 9 a 9 u u i t e e t v 8 b p p p p V # = =     Y.JX",
"VXR P m.~.k.%XXXrXiXjX{.].w.9.-.$.*.7 u S q 6 s.7 t i r r k k 9 z a a a a k a g b 9 q 9 v i i i v k 9 b 8 ^ & j f f N ,     Y.LX",
"MXY & m.G.2.S.v.iXiX5XoX].w.0.u.e *.7 u c q 6 s.7 i r r r k a 9 b a z k 9 a a g g g 9 c y u r v v 7 c 9 g j p j f & f *     #.LX",
"NXY U ,.G.k.S.z.rX5XrXoXe.e.=.0.e w 6 c F D m H 7 i r t r k a 9 b 9 a a a j p p g g g k u u r t r c 9 a j & j & ) & f N .   @.LX",
"MX2.p m.m.k.S.=XrXiXrX:X1.x.r.;.e t 6 S 9 g 6 p.r v w u r k a a k 9 k a a g 8 g j p g 8 c k v r y S 9 A j p f & o.& = N .   #.LX",
"VXh.d 2.8.8.H.=X0X1XpX[.z.Z.$.<.w w 6 7 H 0 6 i.9 v r v r k a z c 9 c a a g 8 g g j g g 9 c c n 7 q g g j f j & o.& f 3     Y.LX",
"NXY L 2.J.j.H.%X2XnXOX&Xx.&.#X<.l k $ 9 g q 8 p.6 9 r t k k k 9 9 a a a p p j f j g g q g q q m q f g g 8 j p & ; ) ,   .   ..LX",
"MXR : R M.c.H.%X3XhX2X&XZ.*.S.k x 7 $ A _ 8 0 _ 8 a c k k r r 9 k 9 a g p p j p g g q q g m q f A f g 8 j g j 8 f ) ;   o   ..LX",
"VXR L h.A.j.b.XX7XxX2X-Xu.1.y.1.7 t 6 6 _ $ $ i.6 9 c t r r r r c 9 a b p p j p b 9 9 9 q g g 0 f V f g 8 g 8 j & ! , . o   ..LX",
"VXY Y Y j.3.%XXX3XxX:X-X}.;.y.1.7 v 6 c 9 A $ i.6 9 u u u u c k k a a d p p p p a 9 r c 9 9 c g 0 f g q g 8 9 j 0 V %   @ o #.LX",
"VXY Y M.A.3.b.%X0XhX2X-X+X-.+X&.t 7 7 9 F D $ i.y u v t u u u r r x 9 a a d p a k k c c r k b g f f 0 0 c g a a $ ) V .     #.LX",
"VXR U h.3.2.b.XX4XzX4X-Xr.1.x.;.w w 7 $ 5.g $ 5.y t t t t t r r 9 x 9 9 a z 8 a k k r k k c k 9 j V 0 c 9 b 9 a 0 / f . . . #.LX",
"VXU T m.A.3.H.XX3XjX4X>Xu.:.u.;.t r 6 >.c c 9 p.7 r t r r k k k r l 9 a a z 8 9 k k r r c k 9 8 g f D 9 g 9 c 9 8 D f # .   #.LX",
"CXT T k.k.3.b.v.hXjX:XwXu.9.x.;.t 7 $ F p.8 8 5.9 r l l k l x x x l 9 b a d 8 8 9 k k t c k 9 a p p 8 8 6 k c 9 c D & . #   +.KX",
"VXn.P m.A.,.b.b.hX4XhX].q.0.$.<.r n 9 9 $ c D c r 9 l 9 x z 6 6 x k k a 8 g ^ / a 9 9 9 r 9 g g p ( g ( a.k 6 c $ _ ;   >   Q HX",
"CXY ; m.A.j.c.b.yX0XdX|.9.+X;.y.7 n 9 6 A f 8 q c g 9 4.$ 8 a a 8 9 8 g D p & g g D c F c D D ^ # j p b 8 8 5.8 # ) ! ,     } KX",
"BXI ( m.V.R J.%XtX7XdX>Xy.y.&.6.6 8 # f o.X.# 0 0 D c $ / i.& 8 c g $ f . W W V # $ 8 $ 6 $ 8 & s % p j p p p V h d.%   >   O.JX",
"ZXL : n.n.7.G.J.fXdXgX=Xy.6.<.,.# q & C +.= C = = 0 0 f $ $ , f f 0 f f B % . % f g 0 V 0 V f ; ; s ; s W h h ! o : >   X   O.JX",
"ZX~ : N.V.n.(.C.vXgXgX*X8.8.&.9 # j . # . B * . % N # = N , . . $ 0 . . o E > % # # = # & # % . E X   % % % % o X 5 X     X 5 LX",
"SX+. .N.N.N.V.~.fXfXfX<X6.s.z 2.. ; .   o o   B . # # . . *   . = # , > o   > 4 . * & , # % % % : o Q %   X X   > K   + 5   [ JX",
"AX` O.T.T.+.(.(.8X9XfX,X8.D.7.m.; R . W ' : ~ ~ B ! , d.X.! } } | X.B 4 ~ #.O.+.4 B ! B V B Q E +.Q > Q +.Q } 1 ..@.O.+ [ 1 L.JX",
"HXHXJXFXGXHXSXZXCXNXVXBXZXZXBXMXMXVXBXCXZXZXSXZXSXSXHXSXHXHXKXHXHXHXHXHXAXHXHXHXHXHXHXHXSXHXGXAXHXHXKXHXHXFXLXLXJXJXJXDXDXDXJXJX"
};
