/* XPM */
static char *ba9d38e64a3c47d1b7b5c7cfbed6ade7VaSqTt6nvLwAb2o3[] = {
/* columns rows colors chars-per-pixel */
"64 64 249 2 ",
"   c #040200",
".  c #0C0200",
"X  c #0B0A03",
"o  c #0C0C0B",
"O  c #140301",
"+  c #1C0300",
"@  c #130A03",
"#  c #1C0B02",
"$  c #120608",
"%  c #130C09",
"&  c #1B0C0B",
"*  c #041004",
"=  c #0B120C",
"-  c #1B1203",
";  c #1B1906",
":  c #13120B",
">  c #1C140B",
",  c #0C1711",
"<  c #1C1511",
"1  c #151A14",
"2  c #1C1C14",
"3  c #141F1B",
"4  c #1B1E19",
"5  c #230400",
"6  c #2B0501",
"7  c #240B01",
"8  c #2C0C02",
"9  c #2E0708",
"0  c #240E0A",
"q  c #2C0D0B",
"w  c #320501",
"e  c #370607",
"r  c #330C03",
"t  c #3A0C05",
"y  c #340D0B",
"u  c #3A0E0A",
"i  c #251303",
"p  c #2C1303",
"a  c #251B04",
"s  c #2C1A04",
"d  c #24130B",
"f  c #2C130B",
"g  c #251B0B",
"h  c #2C1A0C",
"j  c #331304",
"k  c #3A1405",
"l  c #331B04",
"z  c #3B1C03",
"x  c #33140A",
"c  c #3A140C",
"v  c #341B0C",
"b  c #3A1B0C",
"n  c #2E0F14",
"m  c #310E12",
"M  c #241511",
"N  c #2C1512",
"B  c #241C14",
"V  c #2C1B13",
"C  c #291618",
"Z  c #241C1B",
"A  c #291E1A",
"S  c #331412",
"D  c #3B1412",
"F  c #341B13",
"G  c #3C1B13",
"H  c #381B19",
"J  c #0C2219",
"K  c #1C2316",
"L  c #15221A",
"P  c #1B231B",
"I  c #1B2A1D",
"U  c #25210D",
"Y  c #292108",
"T  c #2F280E",
"R  c #332202",
"E  c #3B2203",
"W  c #34220B",
"Q  c #3C220C",
"!  c #3A2B09",
"~  c #3C2C0B",
"^  c #232213",
"/  c #2C2313",
"(  c #24231C",
")  c #2B241D",
"_  c #252A1D",
"`  c #2C2A1D",
"'  c #342313",
"]  c #3B2314",
"[  c #352B15",
"{  c #3C2B14",
"}  c #34241B",
"|  c #3C251B",
" . c #332A1C",
".. c #3C2C1B",
"X. c #383319",
"o. c #3A311B",
"O. c #192B24",
"+. c #1E2C24",
"@. c #1C3129",
"#. c #183530",
"$. c #232521",
"%. c #2B2523",
"&. c #232C24",
"*. c #2C2B23",
"=. c #252D2A",
"-. c #2C2E2A",
";. c #3D2521",
":. c #322C25",
">. c #3A2E25",
",. c #332C2A",
"<. c #263427",
"1. c #2B3124",
"2. c #24332B",
"3. c #2B342C",
"4. c #2B3A2C",
"5. c #323124",
"6. c #3C3B22",
"7. c #3B3827",
"8. c #33332B",
"9. c #3B352B",
"0. c #34392D",
"q. c #372E31",
"w. c #2C3531",
"e. c #253A35",
"r. c #2C3B33",
"t. c #353631",
"y. c #333C34",
"u. c #3C3B34",
"i. c #363B38",
"p. c #420E03",
"a. c #421207",
"s. c #42130C",
"d. c #441C08",
"f. c #431D0D",
"g. c #431413",
"h. c #421C14",
"j. c #4A1E12",
"k. c #411C1A",
"l. c #4A1D19",
"z. c #432405",
"x. c #452807",
"c. c #43240C",
"v. c #49250C",
"b. c #442B0C",
"n. c #4A2C0D",
"m. c #46320D",
"M. c #4B300D",
"N. c #422314",
"B. c #492612",
"V. c #432A13",
"C. c #4B2C13",
"Z. c #43231A",
"A. c #4A231A",
"S. c #422B1B",
"D. c #492B1C",
"F. c #532916",
"G. c #522E14",
"H. c #512C19",
"J. c #4C3314",
"K. c #473817",
"L. c #43321C",
"P. c #4D331A",
"I. c #4B3A1B",
"U. c #513215",
"Y. c #523D17",
"T. c #53341B",
"R. c #5A351D",
"E. c #533B1B",
"W. c #5B3A1D",
"Q. c #422D23",
"!. c #482823",
"~. c #453424",
"^. c #4A3925",
"/. c #423A2D",
"(. c #533423",
"). c #5D3522",
"_. c #543C25",
"`. c #5A3B23",
"'. c #583C2B",
"]. c #443D33",
"[. c #433C39",
"{. c #613922",
"}. c #2D4239",
"|. c #33433B",
" X c #384538",
".X c #3B433C",
"XX c #53411D",
"oX c #4B4327",
"OX c #5C4323",
"+X c #584826",
"@X c #534228",
"#X c #5C432C",
"$X c #4A4434",
"%X c #42453E",
"&X c #4C4339",
"*X c #434B3B",
"=X c #564835",
"-X c #48523E",
";X c #644529",
":X c #6F4F37",
">X c #2C4641",
",X c #3B4541",
"<X c #3C4C42",
"1X c #3F5149",
"2X c #3B5552",
"3X c #474544",
"4X c #424C44",
"5X c #424F4A",
"6X c #445145",
"7X c #4C5445",
"8X c #44534C",
"9X c #4B544A",
"0X c #4D594D",
"qX c #50554E",
"wX c #495754",
"eX c #465A54",
"rX c #4B5A54",
"tX c #505952",
"yX c #525D59",
"uX c #4C6057",
"iX c #4E615B",
"pX c #52635D",
"aX c #596258",
"sX c #6A6758",
"dX c #496664",
"fX c #546662",
"gX c #5A6764",
"hX c #5B6D65",
"jX c #5D6F69",
"kX c #4D706A",
"lX c #5D7069",
"zX c #677166",
"xX c #62756D",
"cX c #667B72",
"vX c #7C8274",
"bX c #DEFFFE",
"nX c #FFFCE5",
"mX c #F6F9ED",
"MX c #FEFBEC",
"NX c #EFFEF5",
"BX c #E7FFFF",
"VX c #EEFFFE",
"CX c #F4FFF6",
"ZX c #FEFEF4",
"AX c #F1FFFF",
"SX c #F4FFFC",
"DX c #F5FFFE",
"FX c #FCFEFB",
"GX c #F9FFFF",
/* pixels */
"VXBXAXAXGXGXGXFXGXCXCXDXDXCXDXDXGXGXGXGXDXGXGXGXDXDXDXAXAXAXAXAXAXAXDXAXAXVXAXDXDXVXAXVXNXAXVXVXVXAXAXVXVXVXAXAXAXVXVXAXAXAXDXAX",
"BXdXeXiX5X4X0X4X9X0X6XxXpXlXpX1XgX4XyXgXwXwX5X8XyXhXpXfXjXeXlXuXfXrXgXjXgXhXgXrX8XjXxXrX8XpXuXlXiX1XfXiXrXcXeXhXiXhXlXlX8XrXrXDX",
"BXdXe.}.1X+.4.y.4. X|., |.e.+.1X.Xr.,Xi.w.i.3.3.3.2..X|.e.<X@.}.y.,X|.r.3.-.3.r.r.<.=..XO.2. XP |.|.2.|.8X<X1X X4.2.8X|.|.8XrXDX",
"bXkX2Xe.@.2.6X4.<.<.I }.2.r.@.+.4X3.%X.X3X3.9Xy.4 &.=.<.3.+.4.<.P -.P +.t.t.3.<.3.=.$.t.3.4.4 P 4X.X&.|.<. X*X-X4.7X X0X<Xr.pXDX",
"BX2X#.J J I *  XP K 4.I r.r.O.&.4 8.< ,.%.:.B *.Z u.4 u.-.*.i.-.8.t.8.:.( ( 8.:.8.u.0.u.` ( u.4 %X( u. Xu.*X*X7.-X-X*X7X4.6X9XGX",
"BX>X>X* L = 2 _ X K _ I P P &.4 Z ) ) B A ) ) A B < :.B ( ) 2 ( ( A M V *.*.A B M > :.> B  .7.B ( :.) 5.`  .6. XoX6.$X5.u.( aXmX",
"VXeX2.3   X 2 B - @ > : X : : X ( > > B  .d - ) . . @ @ X @ . . # d O . & & + F # d d > & @ O . V & O . o.[ a Y o.oX;  .^ _ 8.ZX",
"DX5X3   . . . O # > d B A . . @ @ O . M d . # O + 0 & d A & B O N 0 d d f d + q 5 7 + f O V O + | + F h l R V.I.R ! L.Y g / sXZX",
"DX,X&.    . & f + + # O 0 } } # d q 5 + q + q q q F q 7 O q + S 5 5 5 5 + + S q 5 S 5 S + 5 8 + S 7 7 j B.z z.l l ~ R { { / / ZX",
"GX.X4   & d d 7 5 7 7 Q.f + # F 7 S q H 5 k.D 9 D 6 5 q q q q F S G S y G q y y 9 5 y G G q S q x 6 G f.B.C.n.n.J.E z _.W s ^.MX",
"DX8X3.o . . # F + 7 7 i f N f + F 7 H + !.+ S D k.S 7 S f F 0 q y y 6 9 g.D D D y 5 w 9 q + D y x 6 b k B.G.x.x.U.c.T.b.{ W =XnX",
"DX5X4   @ & 7 f p 8 7 | 7 # O 0 7 + q S 5 S q 6 q + q 0 0 0 h 7 G 9 u 9 6 w u c 5 u w w 8 6 y 5 k.c c f.T.G.G.x.n.z z.P.l W ~.nX",
"NX4XP   @ # # p f 7 v 7 f F f + F 5 f q q x k.G y Z.8 x x f O x 8 6 g.c y 8 u u w A.G 8 c c 5 5 b j b k H.v.U.n.z U.l C.V.p L.nX",
"DXrX*.@ & d 7 p v p b G f v 5 5 + 7 x + x x y 5 c 6 j v 7 i ' 8 5 6 w w G c e w (.6 D.x 5 t c 5 G 8 N.c.H.C.G.U.E.z OXb.Q W oXnX",
"GXtX-.@ O 7 p Z.8 8 c G G j j j v f 7 | 5 x 8 7 Z.v x ] 7 s ' i c g.r 6 s.t w 5 h.k h.r b r r 6 v 8 p c.B.c.z.v.W.U.z E.Q a @XnX",
"GXqX*.@ . + 7 G 5 k 5 c 6 8 8 + 7 | x 8 p v p 5 Z.b s s W i s W 5 r c c e w A.c r r w r x 6 N.5 x v 7 (.P.c.U.n.W.n.b.J.W I.=XnX",
"GXy.( 9.. 0 Q.5 p v 7 Q b Q p Z.5 7 5 x 6 8 + N.6 7 7 8 v i l 7 j 8 6 x 8 r b j k 8 j c 5 j k b + + b j c.U.J.x.z.n.`.V.l ' 7.ZX",
"GX3.t.*.. # Q.+ p v p l l p 7 b 5 6 j 8 x b k 5 x p 8 V.l l 7 j 8 j b c j 5 k p 8 8 8 p 5 j 8 j 7 F j b B.n.;Xn.n.x.G.C.] # 9.ZX",
"DX3.*.> . O | 7 l 7 p l p p v x 6 k c 6 c 5 5 5 b b + l b + ] 5 x 8 j 8 j 8 b p 8 b N.j j p 8 j ] + x p c.U.z J.M.n.J.P.p h ].ZX",
"CX<XP :.@ - N O V.7 s W p p v 7 8 5 8 c j 5 6 + N.7 p p 7 ] 7 p p 6 5 j k v k 8 b l b + j 8 k 7 ] v p Q C.z x.Y.n.n.U._.V.# &XZX",
"DXy.$.:   . ~.O v p p p l x 7 8 x h.6 6 8 r 8 6 G p 8 f i # i l 8 p 7 b 7 j 6 v j 7 p 7 p 7 x + ' ' s l c.b.n.n.n.U.R.C.7 ' >.ZX",
"NXr.&.*.  d ' + p p p l j v 7 F 8 y c c r j k 5 7 8 f h ] + i # 8 x 6 b 5 j 7 b 7 p l ] 7 7 p i ' i v p l E.E n.E.J.v.C.] # 9.ZX",
"DX3.&.( . O h + v p k b p v 8 x 8 8 6 6 G G x F x ] i # # h h ' 7 8 8 x p b 8 p ] v 7 x 7 p f v # ' h L.N.Q I.m.z.n.C.(.b ' 9.ZX",
"DX=.&.( . O '.+ j p p p v G 8 F j G Z.Z.D D q Z.8 s s i s h a ..s p 8 O 7 v v v b b s b ] p x ] O # W W Q `.b.R E U.n.P.8 # &XZX",
"DXtX4 : M + + 5 b j j b p v x f + + j + 6 6 b 6 G G f 7 h # a O # p p v v v 5 7 p j | O x + v i ' { p Q { P.P.E.+XE U.B.S.# > ZX",
"DX4X3.. # 0 5 7 6 6 b x 8 + Z.G + 5 x j x j x 8 F 5 f f h # # s + v 7 f b 8 v 7 G p 8 v + 7 7 7 i # Q N.l E E.J.Y.J.z `.v d >.ZX",
"DXaXP < # # q 6 c c 5 b Z.G j 7 7 6 8 + S 5 x q j p x p s # i f ] + x + b p 6 v j 8 G 7 5 i f i # W p Q c.n.P.b.E.E b._.D.# >.ZX",
"DXrX2 < & N 7 f b j 7 N.7 5 + f p p 8 7 G 5 D 6 v p ] 7 i h i 7 + ] p ] 8 8 j j 5 j 8 v v + f O | + 8 j H.c.P.R :Xz E.P.S.O ].ZX",
"CXrX&.  @ # d 6 G p x + ..7 7 V N S 5 G 8 8 G c j x 7 p x 7 l i v 8 5 v 8 b 6 h.c 8 G 5 + 7 ] + b 5 N.k c.C.C.C.n.E.z T.] s ) ZX",
"CX<Xy.4 . # d + f p s v # ' # d 0 d 7 v 5 5 G b 8 6 8 p s p p s 8 7 Z.6 G r c 8 r 6 j G 8 x 6 8 Q 8 5 z j `.U.p OXE U.`.v 7 &XZX",
"CXhX=   % O d S.F v h # h h d h # 7 f f v 5 G x 5 j j x p p j 8 G j 6 8 x c k 8 5 Z.8 r G + F + N.k 5 d.).v.n.n.E.l b.;Xv d >.ZX",
"NX|.L o   M N # 7 + # h f 0 0 f h v j 6 S 8 G k.8 8 c x x v 8 8 j c c c r h.r 8 r c h.h.r G y 5 (.8 k r F.:XR.z.z.n.E c.| O ].ZX",
"AXrXw.= . $ # d ] x ' i f f H q f p e t r r 8 6 y c 6 w 8 5 F q u u g.u u 6 w w t w c c w e r G c 6 r j.k F.R.W.n.z.E T.^.f ].ZX",
"AXrX=.o . $ M d F x h f 5 N n n q r e r t u u y w c 6 9 8 q S q D e e e s.t a.w w a.t w e e 6 y c c r k j.).{.R.R.z l #XL.h / ZX",
"AXiX+.o $ & N + v i v 7 0 q S m r r f i r e t t u r 7 x S 8 i f S u D u u w s.t k 6 p.w y r w g.g.6 c r j.v.d.{.G.z V._.] i  .ZX",
"AXiX+.: . & 0 7 v s v 7 f 0 N q u j f d q r e e e c v 7 5 x h 0 D u D c u w a.w 5 8 a.a.r 8 g.5 c 8 6 A.k R.R.v.z.C.E _.] # &XZX",
"AXeX=.o X @ d v h s p s d N 0 q f f p p x x x u y c v # # h f q D 9 S S u w u 6 k r r 6 w w 6 F r 8 r r H.v.d.{.R.z.E @Xv ' :.ZX",
"AX<Xw.X : . 0 x s s p 7 f f 0 q d f 8 8 f f j j c 8 p h a - 7 f x y S S c w c 6 w f.6 Z.w j.c 6 N.b 8 j f.).;Xz.W.c.z #XS.- /.ZX",
"NX1X3.X : . 0 8 s s l # h d f d d i q y q i p p p j x f i i i # G y e e G j k 5 s.5 k 8 c 6 h.8 G + N.k B.H.C.v.U.l P._.L.# /.ZX",
"AXrXP X . # F v p s s 7 7 s d N d i q q 8 8 p j p s 8 8 7 # # @ F x u w u 5 8 6 e s.r k 6 8 c r N.5 v b z ).C.;XU.7 P.^...g  .ZX",
"NX|.P ( . . # v p i s W 7 i N S 7 F 7 x c c r f i i i l c.j ' o.8 8 5 G A.u h.A.6 k l.c N.c 8 r x x p N.z `.E.z ;Xn.b.@Xa g 5.ZX",
"CX6XL 4 O 0 O S.j p i W + f d f q j p p r r r f 8 G # p j p # ..r 5 F f c c u 6 6 k 6 g.5 c r k Z.x + P.Q #Xb.x.OXE b.=X[ ;  .MX",
"DX.X&.X & O 7 ] j p s s 8 f N 7 x 8 j 8 r j j r r 8 p v h p 7 7 c G p v 5 c u s.8 Z.w l.r c 8 8 7 ] s 7 C.c.J.c.;Xb.~ L.h / ].ZX",
"NX4XP 2 0 O 0 8 j j p W 7 F q q x 8 c 8 q j j r k r j # W h p j b 8 x Z.q 5 D 5 x D r 6 c 6 r b x 7 7 p C.b.E.J.m.s R oXT U ` mX",
"DXaX1 % O + q D.j 8 j x p 7 q q c 8 c j p p r t r j j 5 i W p p ] v G 6 x 8 f 5 g.w x x r 8 k k s 7 v v C.C.z.OXJ.R ! @XT U 5.ZX",
"DX X8.. 0 + q D.8 j 6 G 5 f q F r r k j j r r r 8 6 b p 7 i s + p 7 8 c j 7 f + l.t G 8 8 6 j b p h # ] p OXE.p XX! m.o.T U 7.MX",
"DX0.-.& O # r A.6 8 j x q f S H 8 k r k r r j j j v j 7 p 7 i p v v v 7 | 5 x G + 5 G 8 b 6 j 7 i ' i l V.~ XXE +XE ! K.o.; 5.ZX",
"DX%X( M $ 7 5 h.8 k j x 5 f q S 8 c r c u t r j j j 5 G 8 j s s 8 7 } d G !.y Z.7 f h.G 8 j Q 7 v 7 l l V.I.J.J.m.! K.oX[ U 5.ZX",
"GXwX%   d O 5 '.5 j 8 G i h 0 f y y u r u e D D 6 G r c r 8 j f 5 q S 5 q 5 y 5 S + x + S.+ v p + i 7 l J.l b.E XXs ! W 6.- :.ZX",
"DX,X8.> O + 5 (.6 j j x 7 s f 0 F x u r y w r 9 9 u r r 8 j 8 x q q q S y 5 S + x 8 6 G 7 5 ] 8 x x j p V.E.I.p +X! R oXo.- $XZX",
"DX<X4 > O + j G r 8 j v 7 7 h i 5 8 c c c r c c r 8 8 6 6 p 7 x 8 S 7 H 9 k.S 5 6 F x k 8 z 5 l x 5 p V.z z E.J.XXR ~ ^.o.@ ].ZX",
"DX4X2 : O + 5 Z.8 8 p b 7 i f f p 8 7 7 r x j 8 G x v j j l s ] 5 8 G D h.9 6 G 6 b 8 k r k p 8 v 7 p l P.E.c.m.m.! R I.o.- 9.ZX",
"AX8X$.< & # + D.5 b p s 7 v f i f f 8 8 f j 6 5 F f f f f i s v 5 D c u y y 6 8 6 k 6 k 8 z r j 7 x 8 Q V.c.W.J.C.J.l ^.~.@ /.MX",
"AX<XP : @ 7 5 x 8 ] p x 7 h d f 7 f v v f j f f x 8 i f f d f i F 8 6 t j.5 G 6 t 6 g.k 5 p r k x + 7 b C.J.E.E.C.p Q L.~.- =XZX",
"AX|.=.: . O + v x x p ] f d d f h s 7 7 7 x f 8 v 7 f 7 i i i s 8 c c G 6 y g.r 6 c g.r c 5 j b + v s l _.P.c.z.;Xc.P._.h h  .MX",
"VXuXL ( ( . h ' 8 7 f ] f d f 0 i s i s f v 8 + ~.v | f h ' ' ] x 8 f x y !.6 6 6 5 h.h.5 x v F 7 O ] s p c.U.z `.c.V.S.' i  .ZX",
"VX1XL   . @ # d f h + O # & O V # # h s 7 O + F 7 f 7 ' h O h . f 7 f 5 S 5 q q q f f + x + 7 O Q.V + i '.:X(.T.V.p _.L.i ' $XZX",
"VX8X2.P   @ B h N ' V # d d d A V # | >.f } H d d 0 Q.d } V > d F F N } 0 H 0 F 7 0 d ;.7 f N i } . h h ~.#X#XP.N.^...~. .- 7.ZX",
"VXeXL     . . & # @ . . @ > @ @ . < O . & . $ O C O . . O . O @ O @ O 0 O $ O # O $ # M . . O . A . # . ..h v h ~.i / /.; ` u.ZX",
"VXr.3   X     > @ > @ >   X   .   . X %.& O < . O $ $ .   @ > % . . $ O & . % O O $ $ . % . O O . @ . @ g  .' # ~. .g 9.^ ^ *.ZX",
"VXfX2.3 = X :.9.> B > *.2 P ( *.*.2 *.: ( 2 2 :.( *.*.2 5.2 ` 5.( %.Z %.%.Z %.Z A %.Z %.C ,.) ) B A B ) /.9.&X/. .; 0.8.5._ .XCX",
"VX2X,X3 $.8.%.9.%.) 5.: 1.P t.: P &.3.&.P _ 2 -.8.*.K _ 1.K 1.1.%.Z -.*.-.q.Z %.Z ,.( ,.A ,.> ( [.%.u.*.[.5.8.5.7X X_ *X*X0.%XGX",
"VX2X>Xw.-.( %.:.u.0.( 9Xt.3.=.4XL 4.|.y.|.<..Xi.&.&.4Xy.I 6X Xy.-.3X%.[.3X%.3X,.%.[.t.,.[.u.%.9.u.:.%X%X( 7X0.: vX*X7X6XzX.X0XDX",
"BXAXAXDXGXFXFXFXZXZXZXCXGXCXGXGXCXAXAXNXDXDXDXDXDXCXDXCXDXCXCXDXGXGXGXGXFXGXFXGXFXFXFXGXZXGXFXFXFXFXFXFXZXFXZXCXCXCXCXCXGXGXGXCX"
};
