/* XPM */
static char *e5cfe527e55e4ad3b4f7692fa0794402rbA5nCdCnaBItKDD[] = {
/* columns rows colors chars-per-pixel */
"64 64 256 2 ",
"   c #030201",
".  c #0B0200",
"X  c #040904",
"o  c #0B0A02",
"O  c #0B0B09",
"+  c #130400",
"@  c #1C0400",
"#  c #130B02",
"$  c #1C0B03",
"%  c #150F0B",
"&  c #0E130B",
"*  c #1B1203",
"=  c #14130B",
"-  c #161508",
";  c #1C140B",
":  c #0C1311",
">  c #0B1613",
",  c #171815",
"<  c #1B1B13",
"1  c #240300",
"2  c #2B0401",
"3  c #240B01",
"4  c #2C0C02",
"5  c #230E0B",
"6  c #2D0D09",
"7  c #320500",
"8  c #3B0700",
"9  c #320C04",
"0  c #3A0D00",
"q  c #340D09",
"w  c #251203",
"e  c #2C1303",
"r  c #271904",
"t  c #24130B",
"y  c #2B150B",
"u  c #241A0D",
"i  c #2C1A0C",
"p  c #331403",
"a  c #3B1403",
"s  c #341A05",
"d  c #3A1A05",
"f  c #34140B",
"g  c #3A140C",
"h  c #341B0C",
"j  c #3B1C0C",
"k  c #240E10",
"l  c #291511",
"z  c #241B12",
"x  c #261917",
"c  c #2B1B12",
"v  c #3B1611",
"b  c #341C13",
"n  c #341916",
"m  c #3C1B12",
"M  c #18221B",
"N  c #38260A",
"B  c #282416",
"V  c #22221C",
"C  c #2B231B",
"Z  c #392616",
"A  c #382F10",
"S  c #33241C",
"D  c #1C1C24",
"F  c #1D2826",
"G  c #232C23",
"H  c #282927",
"J  c #2C2B25",
"K  c #382C29",
"L  c #283229",
"P  c #2B342C",
"I  c #363326",
"U  c #322F33",
"Y  c #2C3533",
"T  c #2C3934",
"R  c #283938",
"E  c #333B35",
"W  c #383A37",
"Q  c #353D3B",
"!  c #410D00",
"~  c #441400",
"^  c #4A1901",
"/  c #491902",
"(  c #411B14",
")  c #441E1D",
"_  c #452808",
"`  c #552509",
"'  c #46320E",
"]  c #583209",
"[  c #462617",
"{  c #4B3315",
"}  c #493719",
"|  c #55391A",
" . c #6B2F07",
".. c #793B05",
"X. c #6C3916",
"o. c #733E13",
"O. c #753C1A",
"+. c #482B26",
"@. c #4C3826",
"#. c #533B21",
"$. c #433634",
"%. c #2E4039",
"&. c #35423B",
"*. c #3B433C",
"=. c #5B441C",
"-. c #694705",
";. c #754302",
":. c #7D4201",
">. c #794A09",
",. c #7A530E",
"<. c #68481A",
"1. c #7B4214",
"2. c #774818",
"3. c #6B531C",
"4. c #7B5617",
"5. c #75561C",
"6. c #77601D",
"7. c #584625",
"8. c #5F512E",
"9. c #43443D",
"0. c #49493D",
"q. c #574A33",
"w. c #674C27",
"e. c #7A4723",
"r. c #6A5627",
"t. c #6B532C",
"y. c #775828",
"u. c #634F37",
"i. c #685937",
"p. c #6C5C3B",
"a. c #765B34",
"s. c #7A642A",
"d. c #6D6036",
"f. c #796338",
"g. c #2D3F41",
"h. c #3B4442",
"j. c #3A4845",
"k. c #3F5250",
"l. c #444641",
"z. c #4A4A43",
"x. c #494B48",
"c. c #48524C",
"v. c #575143",
"b. c #52534C",
"n. c #4C5150",
"m. c #535453",
"M. c #5B5B58",
"N. c #685D44",
"B. c #6C6248",
"V. c #776747",
"C. c #776D53",
"Z. c #70695A",
"A. c #5B6566",
"S. c #707468",
"D. c #843903",
"F. c #833C00",
"G. c #8D3D00",
"H. c #923D01",
"J. c #823E18",
"K. c #844401",
"L. c #8C4501",
"P. c #844A03",
"I. c #8C4B02",
"U. c #85440A",
"Y. c #8C420C",
"T. c #844C0C",
"R. c #8B4C0B",
"E. c #934401",
"W. c #994503",
"Q. c #944B03",
"!. c #9A4B04",
"~. c #954509",
"^. c #954C0A",
"/. c #9B4D0B",
"(. c #8E5104",
"). c #83520B",
"_. c #89560A",
"`. c #8C520C",
"'. c #945205",
"]. c #9A5206",
"[. c #95530C",
"{. c #9B530C",
"}. c #94580F",
"|. c #9B5A0D",
" X c #864817",
".X c #8B4D12",
"XX c #834D1B",
"oX c #934C12",
"OX c #9A4E14",
"+X c #8C5413",
"@X c #835A15",
"#X c #8D531B",
"$X c #865919",
"%X c #945413",
"&X c #9C5413",
"*X c #955914",
"=X c #9B5B13",
"-X c #93551A",
";X c #9C541A",
":X c #935A1B",
">X c #9B5C1B",
",X c #A14D09",
"<X c #A3530D",
"1X c #A7560D",
"2X c #A35A0E",
"3X c #A14D11",
"4X c #A35413",
"5X c #A35B14",
"6X c #A25B1B",
"7X c #A95818",
"8X c #82631B",
"9X c #9A621A",
"0X c #A76317",
"qX c #A4621C",
"wX c #B06019",
"eX c #884B23",
"rX c #8C5525",
"tX c #865926",
"yX c #925327",
"uX c #935B23",
"iX c #965927",
"pX c #9C5D23",
"aX c #895D35",
"sX c #A65B25",
"dX c #876528",
"fX c #9C6324",
"gX c #98672A",
"hX c #876638",
"jX c #8D633C",
"kX c #986836",
"lX c #8F713B",
"zX c #92713C",
"xX c #A36225",
"cX c #A86729",
"vX c #A66A35",
"bX c #B06F30",
"nX c #C17039",
"mX c #8E6642",
"MX c #906F47",
"NX c #987445",
"BX c #837356",
"VX c #A47747",
"CX c #A57549",
"ZX c #817B65",
"AX c #94825C",
"SX c #B48657",
"DX c #FFFCDD",
"FX c #FFFDE4",
"GX c #FFFEEA",
"HX c #EEFFFE",
"JX c #F3FEF6",
"KX c #FEFEF5",
"LX c #F3FFFC",
"PX c #F1FFFF",
"IX c #F5FFFF",
"UX c #FCFEFC",
/* pixels */
"IXPXPXPXHXPXPXPXIXPXIXIXPXIXPXPXPXPXIXIXPXPXIXIXIXPXIXIXHXPXPXPXIXIXIXIXPXPXLXLXLXLXLXLXLXLXIXIXIXPXIXIXIXPXIXPXPXPXPXHXHXPXPXHX",
"PXj.g.R R h.h.c.F &.T F L P T F c.E h.Y *.P P Q Q Q T Q j.Y h.Q j.h.&.c.j.c.j.%.j.&.j.&.T &.E &.T h.E &.j.h.Y R h.n.k.R %.k.j.PX",
"IXj.F F Y R T P G L G M L L L Y V J H H J K K J J $.U J U W H H F P T M E G L > L L G P L M G E V F Q G E , Y L L F T R M F c.PX",
"PXA.> X M P P M b.J W *.P E E 9.z $.c $.$.J K K $.x $.K K K W J H G < P & L P P L V C V J *.P I I H H J J J W H G M L : , Y c.IX",
"UXh.:   > > X   O = o   - V   J + c $ l b + l $ @ b k l k x l + C < < < J # - - o - - B < o ; C # z ; z z % % < % O : , > L h.LX",
"UXE           =   . . .   . . . . $ $ + @ 5 $ + @ + @ + 5 + + . % . o # o . - # .   o   . * . . . + . + + $ . . x % O X   < P UX",
"UXm.      = O % # % $ $ $ # t * $ # + ; + t . $ + $ $ . + z + ; . $ . # . .     ; # + ; * + $ $ + . t @ 5 + l + # % .   X X *.UX",
"UXm.:   X X < % z c S $ c t c c u z B ; $ t z t S c t t # . ; + C t t z C * t # C t t u t $ t t @ w 3 6 6 3 3 @ c . ;   , J E UX",
"UXn.      , < C t $ + b c y 5 S * u z c t C # S t t t c t t S c c b c t c c t C i S c $ c c t y b h m f v [ 3 n y S ; o o , Q UX",
"UXx.O     , < V C $ @ $ S t t t c t t t t $ c y y 5 t $ n l l + S t t $ t c t c $ @ c c 5 t l t b 3 m 6 2 g f 3 3 S # -   , E UX",
"UXn.O   X O x ; S t $ 5 y t t y b f 6 f y n 6 m 6 6 f 3 f 4 3 3 S b y c y 5 i c $ w y w y b i y e 6 6 1 9 f 4 1 @ $ ; . o & P LX",
"UXM.    X X C - C t 5 c y y w i b f m 4 m v q ) q 6 6 2 q v q f 6 3 b t y y w Z y @ w Z w 3 e [ @ f q f q 2 2 m 6 b . ; = G h.JX",
"UXM.      , C ; K + y 3 +.@ y 3 h f f 4 9 2 ( 2 q 4 q q 2 ( v 6 3 y 3 3 b y h e y e 3 3 3 b y e m 6 f [ 2 9 ( f 6 y c # = G *.UX",
"UXn.O     V z z K 3 @ h y e e h 3 3 1 4 1 2 4 @ [ 4 q g q 9 f q f f h 3 f y e 3 e j f e h p @ f f m 6 1 ( v q f @ b $ z   = *.PX",
"UXx.O     z u u @.$ @ 3 h 3 h N 3 @ w @ y 3 3 3 Z 3 @ e f e 6 6 4 e e 4 e 3 h 3 h e h e 4 h p @ 6 4 v q 7 7 g g 6 6 $ # o M *.JX",
"UXm.o   # - C t q.3 + e N s e 3 N r $ h 3 $ b h + y 3 e 3 y 4 3 Z 4 p p p 4 h @ N e p p s e p j f 4 4 g g g 2 f 3 y $ ; o , h.IX",
"UXm.    . ; z t Z w @ 3 h p 4 3 Z i w w @ y y h y w @ y @ y y @ y e 3 h 3 s @ 3 e 4 e e p 4 f j 4 g ( 2 g f f n @ n < , O F x.IX",
"UXm.    . z z i w y e j 4 4 3 e N $ w $ y w y p @.j 3 3 m m e @ @ b 3 p f 4 j p e p 1 4 3 e 3 3 p p 4 j 4 1 y y t t ; . O D j.UX",
"UXm.    o u u i i 3 @ y p p 4 e N r e 3 d e p d [ s e 3 d e j p f @ Z 4 1 N 4 s p 4 4 4 4 e s 3 j 4 p 4 j 4 3 y 5 ; # =   H Y UX",
"UXb.o   o - ; u w $ $ w 4 4 e j s s d 4 p p s j d j 4 1 d 4 1 e 3 j 1 p p s s p p s s 1 p 3 3 3 a d 4 9 g p 3 3 i $ ; .   & E UX",
"UXn.    o ; ; u * w @ y 3 h e h 1 4 g 1 9 2 p j p 4 2 9 2 6 f 1 1 4 1 g 4 p a 4 s p p j 4 s s s a p p p p p h $ i i t o o & *.UX",
"UXn.      C ; * u $ $ h y e 3 j 4 2 9 9 g q 9 g 1 4 4 2 9 6 v m 4 9 j 9 p 9 2 p a d p e h p 4 p j 2 [ 9 s 4 p y i u u # < = l.JX",
"UXx.      B * . I $ + w Z y y y m g q ( g j p g q 9 4 9 f q v m f 9 [ g g m g m s 4 f e h p m p g ( 9 j g 4 e h i i * - o M *.UX",
"UXl.:     < u . t r w i y h y f m q v 9 q q g f 9 ( f f m f 6 +.1 m f v g f v 6 4 g f e 3 4 3 4 ( 9 g f 9 f f 3 y $ C . < & *.UX",
"UXh.      C u . K w @ h e e @ h q v g 2 g 2 1 1 f m 4 f 2 6 6 6 2 2 2 2 2 1 2 1 1 f @ f 3 f 6 1 q q v 1 4 v 6 h 3 * . V   < E PX",
"UXM.X   . ; + w w @ @ 3 h f m 1 ( q 2 1 2 4 9 f 6 1 q 4 6 6 f 4 2 2 2 2 2 1 f v 1 1 v @ v 1 2 2 +.2 9 9 1 4 1 f @ t #     X E UX",
"UXW     + . + @ e 4 3 1 1 [ 1 p g 1 2 q 2 2 q 1 2 1 1 1 6 6 1 2 7 9 7 7 9 2 q g 4 2 9 m g g 9 2 9 2 g 2 ( 1 2 1 e + + . # X E UX",
"KXz.    . . @ @ e 1 4 2 a 2 a 1 0 0 7 2 0 1 2 1 a 1 2 2 1 2 1 1 0 7 7 2 0 2 7 2 2 a 2 0 7 2 2 0 7 7 2 7 ~ 2 2 4 @ @ $ .   o W UX",
"KXv.# c y 3 4 _ d a a 7 / ` 7 0 / ` 0 ~ ~ 0 _ 0 ` _ / a ` 0 ~ ~ ~ ~ ~ ~ / ~ / ~ ~ ~ ! ~ ~ 8 / ! 8 ! ` / 8 ~ a 0 9 d e w * C 9.KX",
"GXN.Z Z #.#.7.w.a.w.X.<.e.X.2.X.O.2. .e.o.2.e.] 2.<.<.e.2.X.e.O.X.X.X.X.O.X.O.X.O.O. .X.e.e. . .e.e.X.e.e.] e.X.a.{ | u.@.q.Z.FX",
"GXB.A N w.| | a.y.e.y.tXaXtX2.rXo.eXo.o.eX2.2.1.o.2.o.2.o.2.X.2.2.1. XeXeXO.O.O.eX XeXO.J.J.eXeXeX2.1.1.rXkXo.o.y.mXt.7.7.N.N.GX",
"FXB.} i.=.t.w.jXy.aXeXXXXXrX2.1.XX .rX#X#X1.iX1.XX2.XX2.1.1.o.1.rX Xo. XeX1. X X..yX X#X X X;XyX1. XiX X X..tXtX2.y.<.t.7.B.N.GX",
"GXB.8.=.f.r.<.NXy.eXrXuXuX+XuX .T.U...-X:XgX;.fXT.#X#X#XvXuXuXvX>..XpXpXD.-XiXJ.iX.XU.OXsXpXsX-X XiX...X:. XrXtXy.tXy.<.d.V.C.GX",
"KXC.} t.<.<.tXtXeXXX X.XU.U.-XT.U.>X%X:.T.U.fX:X:.T.:.+X..#XU..X:.pXR.R.pXU.oXsX..D.Y.D.oX..Y.oX.X#X#X-XuX#X#X2.kXy.5.3.t.8.B.GX",
"FXBXw.] 3.dX2.VX1.XXuXR.cXU.U.R.=XR.K.*XK.R.`.fXR.U.-X:X-X.XoXR.R.>XK.oXoX;XY.oXsXsXsXoX;XOX^.&X.XU.>XR.K.-XT.gXuX5.5.5.r.t.V.GX",
"GXV.t.a.2.tX4.gXrXuX>X;X^.=X*X>X=X^.&X=XxX^.cXxX>XxXcX%XpXxXcXxXqXqX6X;XcXcXOXOXnXsXsXsXsXbX7XOXcXbX&XxX>X>XfXuXgXtX4.y.y.V.V.FX",
"FXBXt.3.kX>.$XgX>.+X%X5X{.qXI.&XL.7X^.6XL.qX=X6X;X&X6X;XcXoXoX%X[.6XL.cX/.&X7X7XH.G.7X3X4X3X7X/./.6X[.{.&XL.cXfXfX$X$X5.s.a.p.FX",
"FXV.| <.>.@X;.:XT...^.&XE.'.[.Q.!.E.7XG.7X{.{.=XL.L.G.^.F.&X&XOX{.L.{.Q.^.G.7X~.G.H.W.H.W.W.E./.~.L.Q.].|.=XL.:.T.,.$X-.3.<.p.FX",
"FXV.r.y.$X).>.).`.[.^.5X!.2X'.{.G.1XG./.!././.L.Q.L.^.^./.E.~.G.^.{./.L.Q.4XH.H.7X7XW.W.W.W.H.W.G.{.L.].L.{.{.%X*X).@X-.y.a.B.DX",
"FXV.<.5.@X,.,.fXK.R.5X|.2X|.=XI.W.1XW.wX].E.Q.{.F.{.E.L.^.4X~.^.4X{.L.7XE.^.4XW.3X3X1X4X!.H.,X,XE.Q.Q.Q.E.{.[.[.).;.4.dXy.a.i.FX",
"FXp.r.3.,.>.>.fX;.R.Q.Q.].'.[...].E.1X].Q.Q.!.F.L.{.Q.{.Q.4X^.<XQ.{.L.4X/.E.!.E.<XE.G.,X!.!.E.!.G.F.].2XL.'.I.R.).).-.5.y.r.i.FX",
"FXV.w.dX,.,.;.+X:X*X[.0X'.I.[.I.<X,X].].!.!.E.'.5X{.&XQ.Q.L./.^.Q.].Q.]./.E.<X/.E.W.,XE.E.W.!.Q.Q.|.Q.Q.'.'.[.*X).@X4.-.s.r.V.FX",
"FXp.w.<.dX>.$X).+X>X=X'.wXI.`.9XL.2X2X2X].5XE.Q.K.K.[.Q.5XE.{./.Q.E.2XE.<X!.7X7XE.W.W.<XE.!.E.|.E.[.I.{.'.(.[.K.,.dX,.s.<.V.B.GX",
"FXN.r.y.dX4.4.>.).*X*X=X'.I.`.`.{.Q.].0XQ.].'.0X[.=X{.0XQ.5X^.{.[.{.{.{.E.5X<X7XE./.1X].!.].].{.[.'.'.|.I.[.`.).:X@X8X6.s.d.C.GX",
"GXN.f.hXdX,.,.$X>.P.=XI.[.I.9X*XQ.].2X{.L.|.5X0X'.K.=XL.Q.L.qX{.&X/.4X/.!.<X/./.].<X!.5X!.2XQ.{.[.{.|.I.0X(.(._.fX@XdXdXf.d.C.GX",
"GXp.w.y.4.4.>.$XT.+X`.[.I.R.P.`.Q.].].].|.Q.I.0XP.=X[.I.[.[.I.[.{.~.{.Q././.^.Q.7XL.].Q.wXL.Q.'.Q.|.K.|.(.'.I.:.:X@X8XdXr.f.V.GX",
"GXN.t.r.dX,.-.;.T.:.`.&XP.P.`.P.I.|.].I.I.'.I.qXI.=X`.K.[.[.I.{.^.^.E.7XE.4XE.!././.{.E.Q.{.Q.L.5XP.'.P.(.K.9XP.,.,.4.s.3.d.B.GX",
"FXC.w.s.4.4.>.).P.=XQ.I.K.R.:.*XL.E.].|.'.'.'.|.[.K.R.=XK.Q.[.L.{.Q.<X!.<XE.!.E./././.Q.E.!.E.E.[.I.|.'.I.'.I._.).>.8X5.r.w.p.FX",
"DXV.=.hX2.>.;.:.|.I.K.2XL.I.I.=XF.<X!.0XQ.].].'.=X'.I.{.I.=X[.L.5X<X1XH.!.E.,XW.,X7XW.<X,XH.1XQ.{.[.L.Q.Q.0XI.9XP.9X,.4.3.r.p.DX",
"DXV.a.a.5.@X:...{.I.^.L.L.F.I.L.G.E.E.!.].'.'.I.=X[.I.[.K.F.5X^.W.Q.W.E.,X/.!.H.4XE.4X!.E.1XH.Q.5X[.{.I.'.I.|.(._.).$X-.f.r.d.DX",
"FXN.V.r.hX5.$X.X-X%XR.pX%XxX-X-XL.E.{.^.&XI.[.`.U.%XR..X-X%XoXF.E.E.2XE./.E.3X/./.W./.E./.!.].E.=X%X=X[.I.I.=X`.).$X,.5.r.t.p.DX",
"GXN.8.i.y.tXXXuX#X%X-XpXpX-X-X-X6X{.6X^.6X`.[.R.xXU.:XU.%XU.-X-X&X&XQ.{.^.4X/.4X^.^.{.Q.{.Q.].Q.L.>X%XI.[.=X:.*X9X@X5.<.y.a.B.FX",
"FXC.p.a.hXtXtX+X:X-X+X:X-X:XR.R.cX0X0X{.=X*X[.P.[.9X>XU.%X>XU.oX&X^./.^.4X/./.~.&X4X{.{.{.[.{.[.9XR.*XR.*X9X+X>.gX4.5.3.t.BXi.FX",
"FXC.8.t.y.2.2.>.fXxXpX>XxXxXfX*X|.5X{.[.[.[.(.P.9X*X:.%XU.%XoX^.~.OX^.&X~./.~.^.6XL.5XL.|.|.I.|.:.*X*X:.`.:.:.+X$X@X5.y.a.p.B.FX",
"GXB.u.w.a.<.tXkX>.pX#XxX:.-X..+X^.^.L.[.%X*X[.P.*X>XpXT.-X.XpX;X6X;X;X^.6X6X6X&X/.&XQ.[.5XI.|.|.}.*XR.`.*X:X+X$X;.gX5.NXy.a.V.DX",
"GXC.N.i.a.hXlXSXtXiXiXvXvXkX#XuX-XxXpXbXxX:XfXgXvXpXvXvXiXvXiXcXsXcXvXsXsXsXcXcX>XbX%XbX=XcX*XbXfX:XcXcX:XgXfXgX$XtXzXlXMXBXV.FX",
"GXN.V.B.V.f.MXNXVXNXSXVXSXkXVXVXXXgXrXgXgXkXkXeXvXkXaXkXaXrXCXCXrXrXiXiXkXiXiXyXiXgXvXuXuXgXgXgXgXgXtX$XdXtXtXdX5.lXf.f.AXV.BXFX",
"GXS.B.q.u.7.V.f.w.t.<.a.w.a.] _ VXhXzXMXtXjXMXy.NXhXaXjXmXaXmXMXmXjXjXaXjXaXjXjXjXaXhXzXtXzXdXzXNXy.zXhXhXy.hXf.y.hXa.V.p.V.ZXGX",
"KXS.B B # A r } 7.} } { } ' 7.7._ s _ _ _ _ ' N | _ { { { { ' | [ { | | | { { { ' ' _ ' | s =.' N ' ' N N ' A A 7.A N A I B 0.KX",
"UXh.    X o     * # * * w . # + + r $ $ r + . $ + . $ + + $ + @ . + + + + + + # $ * + r # * * * * * # * o * o . # o o   o O F UX",
"IXQ   X                   o                               . .                   .       o       o       X       o         X : IX",
"IXY       X                     X   X     X                 . .                                             X       X       F UX",
"UXS.M J l.9.b.l.M.M.x.M.b.m.M.Z.9.l.b.l.9.z.W z.z.l.z.b.z.9.z.b.m.n.l.l.9.z.z.x.9.9.b.9.W m.l.9.x.M.9.b.m.x.U M.P 9.W x.E W m.UX",
"KXUXUXKXKXKXKXKXKXUXUXUXKXKXKXKXUXUXUXKXUXUXUXKXUXKXKXKXKXKXKXKXUXUXKXUXUXUXUXUXUXUXUXUXUXUXUXUXKXUXUXKXUXUXUXUXUXUXUXUXUXUXUXUX"
};
