/* XPM */
static char *eeff2e6b9ee64e5ed467c32a96c77ff3S4qmGQr0omg3Mvg1[] = {
/* columns rows colors chars-per-pixel */
"64 64 256 2 ",
"   c #2A2B10",
".  c #323221",
"X  c #682D12",
"o  c #483A25",
"O  c #394B10",
"+  c #3B4F28",
"@  c #346C2D",
"#  c #4F4D16",
"$  c #6A5013",
"%  c #4C6616",
"&  c #636A15",
"*  c #554F2D",
"=  c #475726",
"-  c #575938",
";  c #6C552A",
":  c #665735",
">  c #765738",
",  c #526B31",
"<  c #587536",
"1  c #696B39",
"2  c #746938",
"3  c #6F7230",
"4  c #345651",
"5  c #3B7357",
"6  c #53554B",
"7  c #69564A",
"8  c #775949",
"9  c #566847",
"0  c #516E50",
"q  c #7A6949",
"w  c #797848",
"e  c #6B6D51",
"r  c #567967",
"t  c #726E6A",
"y  c #933206",
"u  c #973901",
"i  c #AA2600",
"p  c #B92A00",
"a  c #AB3400",
"s  c #A83B01",
"d  c #B83701",
"f  c #B33D00",
"g  c #B23B16",
"h  c #C43D01",
"j  c #C93902",
"k  c #D83502",
"l  c #D33C01",
"z  c #DC3C01",
"x  c #D0360D",
"c  c #E73904",
"v  c #ED3B0F",
"b  c #994603",
"n  c #95550D",
"m  c #AC4401",
"M  c #A74803",
"N  c #B54401",
"B  c #BC4402",
"V  c #B24B00",
"C  c #BD4B00",
"Z  c #B8490B",
"A  c #A65602",
"S  c #B55202",
"D  c #BC5301",
"F  c #B35B01",
"G  c #BC5A00",
"H  c #BC560D",
"J  c #B84814",
"K  c #A95317",
"L  c #BA5717",
"P  c #916613",
"I  c #AB6403",
"U  c #B96504",
"Y  c #BA6618",
"T  c #B17313",
"R  c #8D5B29",
"E  c #B55228",
"W  c #92702C",
"Q  c #886A38",
"!  c #867738",
"~  c #927738",
"^  c #B86A27",
"/  c #AF712F",
"(  c #A96C38",
")  c #C44400",
"_  c #CC4401",
"`  c #C44C00",
"'  c #CC4B01",
"]  c #C9490B",
"[  c #D44401",
"{  c #DB4401",
"}  c #D44B01",
"|  c #DC4C01",
" . c #D6470B",
".. c #DB4C0D",
"X. c #C55401",
"o. c #CC5401",
"O. c #C45B01",
"+. c #CC5B01",
"@. c #CD530B",
"#. c #C6580B",
"$. c #D35301",
"%. c #DB5301",
"&. c #D45C01",
"*. c #DB5B01",
"=. c #D4530C",
"-. c #DC530B",
";. c #D45D0B",
":. c #DB5C0C",
">. c #C94915",
",. c #D94A15",
"<. c #C95716",
"1. c #D35314",
"2. c #DC5413",
"3. c #D95917",
"4. c #E44401",
"5. c #EC4400",
"6. c #E34B01",
"7. c #EC4B02",
"8. c #E9470D",
"9. c #E44D0B",
"0. c #F64804",
"q. c #E35302",
"w. c #EB5302",
"e. c #E35B01",
"r. c #E95709",
"t. c #E35B0C",
"y. c #F55506",
"u. c #E64A17",
"i. c #F54A14",
"p. c #E65816",
"a. c #F75815",
"s. c #C86505",
"d. c #D46300",
"f. c #DB6102",
"g. c #D76609",
"h. c #CE7307",
"j. c #C76716",
"k. c #D86618",
"l. c #C97518",
"z. c #D5741A",
"x. c #E76505",
"c. c #E76617",
"v. c #F06C10",
"b. c #D24F29",
"n. c #C85827",
"m. c #D65927",
"M. c #EE4C27",
"N. c #EA5825",
"B. c #F85B22",
"V. c #C76827",
"C. c #D86827",
"Z. c #CB762A",
"A. c #D67926",
"S. c #C76734",
"D. c #D66A38",
"F. c #C77936",
"G. c #D57736",
"H. c #E86525",
"J. c #E97330",
"K. c #A25C48",
"L. c #886845",
"P. c #897747",
"I. c #967A47",
"U. c #8C6E50",
"Y. c #997756",
"T. c #A57748",
"R. c #B5754A",
"E. c #A9785A",
"W. c #8A7A63",
"Q. c #A77966",
"!. c #B77763",
"~. c #CD6E4F",
"^. c #C77B46",
"/. c #D67A47",
"(. c #E67546",
"). c #788334",
"_. c #3F8754",
"`. c #5E855D",
"'. c #708E4B",
"]. c #A48524",
"[. c #B48933",
"{. c #C98626",
"}. c #DD9226",
"|. c #C98638",
" X c #D78739",
".X c #CD9233",
"XX c #E98B37",
"oX c #938C4E",
"OX c #B98647",
"+X c #BA9448",
"@X c #A68658",
"#X c #B88558",
"$X c #AB9350",
"%X c #AAA35D",
"&X c #94946D",
"*X c #AD916D",
"=X c #B59566",
"-X c #91A873",
";X c #ADAE6D",
":X c #B7A667",
">X c #B9A678",
",X c #C98948",
"<X c #D88948",
"1X c #CD974C",
"2X c #C88856",
"3X c #DA8A57",
"4X c #D69757",
"5X c #E69449",
"6X c #EE8E56",
"7X c #E9995A",
"8X c #D1A955",
"9X c #EFAC57",
"0X c #C78B64",
"qX c #C79868",
"wX c #D79968",
"eX c #CF9173",
"rX c #D49B74",
"tX c #EC946A",
"yX c #C7A867",
"uX c #D3B16F",
"iX c #DAA676",
"pX c #C6B678",
"aX c #E7A769",
"sX c #FCA968",
"dX c #F4AF70",
"fX c #E8B777",
"gX c #F9BA79",
"hX c #E3C568",
"jX c #E3C96B",
"kX c #F1C774",
"lX c #FDC77B",
"zX c #98A994",
"xX c #BEB698",
"cX c #C59784",
"vX c #D1B18D",
"bX c #DAA996",
"nX c #F1B08C",
"mX c #FCBA96",
"MX c #F4B7A4",
"NX c #B3C492",
"BX c #D5CB8D",
"VX c #FCC787",
"CX c #E9D08F",
"ZX c #FED58A",
"AX c #FCC89A",
"SX c #FED796",
"DX c #FFE69A",
"FX c #D4C9A2",
"GX c #F9CEA9",
"HX c #FFE8A6",
"JX c #FFF4AB",
"KX c #FFF8B6",
"LX c #FFEBCB",
"PX c #FFFFE9",
"IX c #FFFFF3",
"UX c #FFFFFF",
/* pixels */
"UXUXUXUXUXUXUXUXUXUXUXUXUXUXUXUXUXUXUXUXUXUXUXUXUXUXUXUXUXUXUXUXUXUXUXUXUXUXUXUXUXUXUXUXUXUXUXUXUXUXUXUXUXUXUXUXUXUXUXUXUXUXUXUX",
"UX_.0 5 @ _._.0 9 @ , 6 @ , = , = + e , + , 9 , e e t 0 7 t e 6 < < 6 e e e e 9 e 2 9 - , - < 9 , < 7 1 6 9 ; 0 e < + t _.r r UX",
"UX5 0 r 9 6 < 6 # , * % * = - L.= < 7 - - # : : # # 8 : 2 3 q * # * # # * 2 * q 6 * - ; = o = # $ O - & - % 1 + & = - , 9 5 9 UX",
"UX6 r e t < 6 % t ; '.* Q q > 1 P.2 q 2 ; ! - 1 1 ).U.oXL.Y.U.8 2 2 : 2 8 > q U.3 q & q $ 1 : > 1 & ! t 3 '., P.< % e < `.t 5 UX",
"UX0 W.W.-X@XP.W E.*X^ oXR.P.[.~.oX@XoX$XQ.K.T.R *XE.@XQ I.Q Q ~ I.@X=XI.*X=X@X*X@X@X^.oX~ T.I.~ / oXY.[.P.( 1 oXY.'.W.%Xt '.4 UX",
"UXt &XzXcX>X>X=X$X4X=XwXOX1X2X+X,X@X3X+XqXqXqX1XeXrXnX0XR.T.eX0XrX0XeXiXwXeXcX7X>X>XyX0X8X0XyX#XrX[.fX=XqX%XeX=X$X=XpX;X-Xt < UX",
"UXw &X;XxX0X:XeX1X8XaXwX7X/.sX(.3X1X3X3XtXwXaX3X,XaX4X,X/ 4X4X7XR.3X,X,X,X2X,X2XeX6X,X3X+XwX1X3X1XyX2X1X1X$X+X$X#XqXvXGX>X'.t UX",
"UX8 : OX@X:X#X XT.|.6X X^.j.Y l.^.Z.S./ ^.,XS.[.F./  X/ / 4X,X( .X.X~.,X/ {.~.R. X,X3X( G.OX5X+X^.l.P R./ ( T ~ / P.8X-XoXe * UX",
"UX'.vXxXqXpX/ n S.T J.{.<XXXk.;./ k.,XA.(./.F.,XE / m.F.G.^ G.^. XF.XXh.^ F.Z..X(.F.Z.^. X[.F.l. Xj.7XY <XXXW 3XP 8XMXCXxX3 t UX",
"UX8 %XyXFX4XF.( A D.T J.j.f.c.s.p.Z.J.;.J.j.C.G.;..Xj.XXG.{.F.XX^ s.^ |.C.j.J.{.^ z.<.l.G.^ S.{.Z.I b.T s.^.<.P E fX8XfXuX8 9 UX",
"UX* ;XjXGXaXR.T K z.s.#.J.g.D.L g.G.3.{.C.z.h.^ j.@.z.j.C.v.^ v.a h.Z H g.d.m.A m.U m.T j.A.s.A.H D z.k.N.{.Y 3.W 7XwXmXNXL.9 UX",
"UX3 *XBXfXpXT n H U k.C. .s.e.x.<.p.U x.3.f.n.s.<.1.A V.U l.2.V.C @.d.s.C.C.X.N.S } l.@.j.l.k.<.J.` c.V.l.z.;.E F [.nX9XvX, L.UX",
"UX$ #XCXvXaXI y d $.j D 7.H 6.| f } @.| [ ` _ M C N d $.=.<.` N ` X.<.j.%.| U g.<.B a  .N ..Y m s.f ] C N k.a I y l.rXhXbX3 7 UX",
"UXoX;XuXZX2XE U X A _ [ j w.[ l e.6._ ;.*.) h =.{ G X.N H { =.X.X.;.C s.j o.z +.` | 9.S ' B l V t.B 1.V j H u A C ^.6XAXuX2 = UX",
"UX* R.vXmX8XJ I p e.&.X.y.} u.%.d.*.e.&.k C.} F ;._ ' } D { _  .,.` $.X.,.+.h _ B.j.1.k.p.s.:.j.k.I :.#.U g.f x n T 7XkXFXP.: UX",
"UX* $XfXSXaXK f N b.8.X.| q.w.8.q.x.7.o.d.] *.v C.o.b.D c [ N.q._ 2.p.p.p.*...[ p c C 2.+.] j f h.m %.A h G S A J [.4XVXLX, - UX",
"UX2 P FXlX1Xz.A i o.O.B.p.w.c c x.$.[ o.v B [ f v.x.,.x.d.d.#.h.| $.' *.9.' X.) c.$.e.e.M.{ z 5._ ` p.9.c.N.y j b V.3XKX3 bX  UX",
"UX3 T.hXGX[.V.m V B %.3.9.0.6.7.6.f.y.` $.{ 4.s.i.s.4.{ u.u.4.{ 9.9. .N.w.h.0.O.&.o.2.$.$.C.$.2.| [ a.` $.G.p M J A.4XJXE.:X  UX",
"UX% P.fXAXG.A.y } u.l c.a.{ } } o.| k p.0.d.u.k.z &.9._ f.o.&.:.' [ f.[ t.g.9.*._ w.l w.9.6.B.+.k S c.j p.g.i F K Y wXKXU.>Xo UX",
"UXW K.CXAX[.~.A B } | f.y.' c 0.q.] r.4.$.i.X.%.' _ B p.*.i.v ) 8.L c s.c O.c C _ d.-.) k.f.] i.@.*.2.F 2.j.s D f ( 6XKXL.%Xo UX",
"UX! I.fXAX5Xn.d O.,._ } M.) 0.c X.M.=.i.&.,.u.M.q.{ } 4.{ a.} w.$._ y._ a.[ 6.j 0.O.0.s._ | 7._ k.[ v.} 3.c.f S a ].3XDXY.:X. UX",
"UX~ I.GXlXR.D.) D ] _ q.c } x $.v $.z *.M.9.9.u.| =.7.} 9.m.0.c q.*.x.e.$.x.:.} q.{ =.| a.B ' 4...X.8.h N.k.s A M A.wXHXL.>XO UX",
"UX~ ~ vXlX<XF.b B p.] &.p.0.j r. . .8.) -.' 2.3.$.a.z  .w._ y.y.$.6.r.4.a.6.{ r.c &.8.6.7.} 9.C u.7.k.` >.H.h Z x Z.aXDXL.vX  UX",
"UX3 ~ iXgX/.S.m | S k | u.v *.v.v 2.{ %.[ _ | [ *. .y.-.{ f.[ c.j [ { r.$.:.' :.| 7.=.} | 7.3.a.d _ x _ y.L f u s./.fXSXU.vXo UX",
"UXW Q CXfX|.^ F ] C.k.x.] c.q.6.=.s.X.` k.-.;.<.%.j.[ B c 9.w.*.4.{ r.x.0.y.7.5.' [ 9.7.} 4.3.{ | | c.d :.w.` C s T gXkXpXw 9 UX",
"UX3 oXnXdXG.^ s D ,. .) p.D { a.<.] 1.2...@.p.3.$.k._ i.+.-.o.q._ 7.[ $.a.4.4.c $.} w.} 4.*.p.7.} } p.} ] a.a D F <.gXjXrX~ = UX",
"UX3 @XvXVXOXS.f B V.p.&.' 4.<.X. .o.$.X.| S &.o.G u.s.@.X.w.g.' c ` 4.q.' *.1.' | 6.m.8.t.] =.' | [ 2.h a.j._ M 1.^ mXCXvXw 2 UX",
"UX3 I.jXmX{.D.b d n.>.' u.$.4.{ g.$.3...H 2.#.#.B.<.6.#.' d.y.G 6.w.$.7.6.w.6.| w.} z r.` | 9.l z w.H.7.] ;.h m >. XgXnXvXw 1 UX",
"UX3 I.gXGX.X~.K i X.g.{ O.&.1.X.6.&.2.g.+._ O.$.o.d.C *.2.>.X.$.0.%.@.u.2.t.3.2.k ;.6.@.4.%.-.p.q.#.M.G >.J.h V <.^ VXCX2XY.: UX",
"UXR I.VXAX8XZ.<.d J @.6.o.*.| ) c.-.q.{ p.@.p.O.+.s.` ' _ 1.&.x.C c p.} c 6. .z o.r.) &.%.O.o.#.5.) e.' &.m.d m J G.sXVX>X~ 9 UX",
"IX; oXZXAX5Xk.L i s.+.u.o.*.{ O.e.%.| d.%.s._ | | :.w.X.[ &.1.k 6.@.` +.u.3.$.o.,.c ..3.8.@.u.s.' q.v.) $.H.) b J V.lXVX>X].* UX",
"UX; Y.CXJX4XG.M p U z &.] %.4.O.w.*.q.{ %.h.' *.t.) r.' l 2.u.U l { l %.i.u.6.{ v ] +.p.s.-.X.>.o.9.v.C *.1.f d I R sXVX=Xq e UX",
"IX).~ AXAX|.D.u d G 9.e.2.#.+.z x.&.3.k.a.` N.#.X.O.' #.*.+.} f.[ f.*.+.$.f.] :.' o.2.{ V -.-.$.0.s._ z m.k.N A h XX8XGX1X@XO UX",
"PX$ ( pXVX<XV.M p G 9.*...#.*.m p.=.| *.#._ j.C &.O.} @.*.+.d.$.[ *.$.+...*.>.2.[ ` 3.} i.O.@.s.u.k p.%.H 8.a d M J.sXAXeXoX* UX",
"UX< W VXVX|.D.b p A 9.e.<.v.{ $.c X.} +.C &.h _ %.} $.H &.{ 6.&.[ *.4.| =.:.c s.h q.8.` :.6.6.-.7.$.[ _ [ 3.a a M J.wXSXeX'.* UX",
"UXoX~ CXmX+XF.m f -.-.X.c O._ f.[ { X.| e.G <.<.+.+.D t.| $.%.&.l d.| %.3.C | w.| X.>.2...;.$.+.9.} N.) t.H.a $.M }.tXSX*X#X* UX",
"UX; E.uXgX<XS.b m k.' O...} e.x.2.t.a.o.<.p.| | p.u.*.+...1.%.O.*.4.%.o.i.{ 7.l z x.| w.7.) =.| p.%. ._ :.3.C ) M (.7XVXcX$X* UX",
"UXQ T.dXmXZ.J.s [ } %.} 9.X.&.x.d ] o.w.X.B :.:.) ) f.+.$.+.>.q.4.%.o.O.p.X.9.[ ,.j | &.t.x.v <. ._ ,.` :.H.a <.M J.9XVX:X*X= UX",
"UX2 T.jXAX1XC.Y B n.X.C :.[ y.w.| e.c D u.g.$.} -.} p.=.u.' 4. .-.@.8.9.7.{ { 6.q.| v $.9.6.y.w.) j ;.k k.$.a _ m J.tXSXcX$X# UX",
"UX[.K.nXVX6X^.@.i u.w.p.z X.%.o.$.f._ 4.V _ j g.f o.) d.' j.N.' *.+.4.} 9.} [ q.d o.x c =. .9.' a._ p.' =.6.p b B {.tXZXqXQ.- UX",
"UXq T.nXZX<Xm.V ] } 3.o.t.4.6.| | 6.1.e.8.#.-.[ H.p.p.1.u.y._ 3...>.y.t.l t.q.) y.5.*.e.y.y. .c.0.%.H.| a.s.N m $.5X~.JXQ.rX# UX",
"UXT.( nXVX,X(.M ] } ;.c ;.{ %.%.$.%.9.$. .4.O.o.@.o.o.S p.,.e.) 8.] w.$.r.} [ =.4.z $.r.6.' N.t.d l B.G ] c.) K y XX2XHX*X;X  UX",
"UXQ U.fXlXS.^ a >.{ r.o.-.{ %.$.0.O.=.w._ } u.9.9.l l 9._ p._ 1.C  .a.1.{ p.| *.7.7.=.{ :.r.c z q.S N.o. .z.d 3.u 2X,XGX=X:X+ UX",
"UX3 R.yXnX|.S.u #.X.#.| 9.4.6.$.6.5.=.%.3.'  .} $.t.) :.' t.' } N.o.' c.w._ w.' 5.5.1.9.[ o.r.X.} } u.O.3.r.u ` M 6X5XDX@XxXo UX",
"UXq R.jXnX<XS.U B o.=.6.g.` *.{ 6.6.=.%...7.3.x.j [  .j 2.[ u.` -.1.} a.6.p.| r.' $.| 6.8.r.z %.0.V H.l =.h.a b h 5XtXKXQ.qX# UX",
"UXL.Q fXmX[.(.Z B o.=.5.:._ q.s.4.6.#.+...| ;.&.2.-.-...p.p._ ,.%.@.| j.w.p.6.r.{ q.7.&.2.#.:.[ N _ 0.V G ;.p F y  X2XHX*X$X. UX",
"UXR T.gXmX<XC.a ] } ..O.r._ q.+.4.| 9.7.] | ,.6.=.....} -.-.p. .$.@.7.@.5.9.{ 6.7.z ` w.4.' | 7.l D p._ $.z.M V g 5X2XHX#X=X  UX",
"UXP.I.kXmX|.E b N +.k.' r._ q.+.4.| ..6.] ' ..| 1.2.=.] 2...u.*.6.9.x...B.} 8.' x.6.7.0.o.x.u.@.3.a.x.>.h.k.s C n 5XeXKX&X:X. UX",
"UXL.#XgXGX7Xn.s h t.) H.q.} w.+.5.| ..6.9.y.1.p.j j | z :.:.$.z k.` Z 6.D  .a.| k D h O.l D +.*.r.C g.' o.o.m a b J.8XJX@XQ.  UX",
"UXL.L.CXdX2X~.A ) n.4.d.a.j S q.o.5.8.O.i.d x j B.c.i.c.9.N.7.X.>.1. .S.6.+.2.>.` { d.[ O.$.r.8.d.S B.h.6.c.>.' s 1X XJXE.*X  UX",
"UX2 / nXAX.Xz.m.u X.{ S 8.' ' 6.,.o.$.' c :.q.q.u.s.0.#.x.' ) 9.C C 6.) 0.p.[ | q.k [ v &.w.} r.{ S x.n._ l.B b u A.qXLX#X-X  UX",
"UX2 Q.lXVX<X/.S m &.' X.,.' 6.f.i.r.w.d.k.' $.f.B ) B >.&.$.2._ -.%.' g.[ @.5.4.c @.[ ;.6.x.w.6.I j c.h.f ' X.g M .X~.KX%X*X* UX",
"UX~ / MXVX3X/ u <.j.| x.9.9.F v.` [ ,.@.q.e.u.p.k @.[ { | u.x.e.l i.| i.-.3.e.6.z.q.w.:.p.c.r.<.6.U s._ V <.b n b 4XG.JX*X=X+ UX",
"UXw I.hXMXU E u a h D  .%.V 4.+.B 8.| 5.N ) ` ` $.| ] f.` f.` ;.} G 6.G r.) 3.q.u.s.,.o.N.' p.X.3.m p.b x D s F g G.[.SX@X#X  UX",
"IXn oXlXCX{.^ u s D m %.} _ [ $.q.B ` ` =.-.) _ =.$. .$.' ' ) ..` S c.H ' $.=.I >.D <.I L U J V ,.C X.} V G f I M 7XOXHXoXoXO UX",
"UXoX0XSXSX.XZ.H y C h O.c.N } s.%.*.3.:.` +.&.*.D X.` B D X.C ) f A ) F d A d V f V B s d M D V V i f a m <.Y f n 9X!.JX&X>X# UX",
"PXP #XCXfX/.I b X s V ' Z %.m l a a ` C >.d h d  .x ' :.H.3.6.F o.H o.S ,.Y ,.j.i A f A C m a N J.F #.s.j.b N y l.n iXhXcX; = UX",
"UXw $XnXZX].( F n g.n.&.h.X.k.f.1.=.@.$.] ;.` ` ;.<.+.o.D H U V s.F G s.#.` C } {.;.A.c.Y C.Z.A.Z O.M g.T J I h.P V.1XiX:Xw 7 UX",
"UX> oXBXGXrX2X.XG.|.XXF.}.<XJ. X7X5X5X5X<X5X X1X/.<X^.2Xc.6XD.D.G.b.Z.E H J.Y G.Z ,.^ n.Z.<.^ n.}.Z.{.7X6X1XXX,X/.$XnXGXvXw 7 UX",
"UXU.t BXSXpXhXVX1XaXtX9XtX9X9X9XtX7XsXsXaXsXsXsX9XsX7X7XgXXXnX9XmXkXnX9XnX9XmXsXZXZXmXZXZXVXlXSXnX9XdX9XsX4X7X7XyXsXpXCXvX&Xq UX",
"UX1 `.xXbX&XfXvX+XgXuXaXdXiXuXqXuXaXvXuXbXnXnX:XmXiXiXuXrXhXMXsXMXdXnXVXGXdXmXVXtXfXiXiXdXbXtX[.nXrXgXhXnXrXqX[.aX;XnXBXxX'.r UX",
"UX@ e -X-X~ *XW *XOX=XOX%XOX!.$X2XoX,X=X$XOXY.R.=X~.#X#X~.!.E.$XK./ !./ !.^ Q.R yX#XwXwXE.[.!.OX@X+X( @X|.%X2XT.].Q.&X>X-X9 5 UX",
"UX5 6 &XzX% 9 ! : 2 - ~ > 3 8 R P.9 ! U.: ! q > : ~ 2 3 Q 2 K.R &XP.U.P.W.L.q I.1 w * 2 e ! e 2 $ > $ q Y.! 3 2 8 ; 3 zXr 6 4 UX",
"UXUXUXUXUXUXUXUXUXUXUXUXUXUXUXUXUXUXUXUXUXUXUXUXUXUXUXUXUXUXUXUXUXUXUXUXUXUXUXUXUXUXUXUXUXUXUXUXUXUXUXUXUXUXUXUXUXUXUXUXUXUXUXUX"
};
