/* XPM */
static char *_fe3b5a9c3cb41ada2c083c9f35e77fdsySRjmX9qYZxfkBA[] = {
/* columns rows colors chars-per-pixel */
"64 64 256 2 ",
"   c #010000",
".  c #0A0200",
"X  c #140100",
"o  c #1C0000",
"O  c #160900",
"+  c #151700",
"@  c #141719",
"#  c #240000",
"$  c #2C0000",
"%  c #2B0B00",
"&  c #340000",
"*  c #3B0100",
"=  c #380A00",
"-  c #291800",
";  c #371800",
":  c #0B250A",
">  c #252900",
",  c #372700",
"<  c #34340B",
"1  c #430100",
"2  c #4C0200",
"3  c #430C00",
"4  c #4B0B00",
"5  c #530300",
"6  c #580900",
"7  c #491700",
"8  c #531300",
"9  c #5B1400",
"0  c #581C00",
"q  c #491A12",
"w  c #660700",
"e  c #720A00",
"r  c #661800",
"t  c #6A1B00",
"y  c #761B00",
"u  c #472700",
"i  c #582600",
"p  c #5B2B00",
"a  c #493403",
"s  c #593501",
"d  c #523816",
"f  c #6B2300",
"g  c #642801",
"h  c #6C2B00",
"j  c #722500",
"k  c #7D2602",
"l  c #742B00",
"z  c #7A2B00",
"x  c #683801",
"c  c #733300",
"v  c #7C3400",
"b  c #733A00",
"n  c #7C3B00",
"m  c #773A0C",
"M  c #723717",
"N  c #563B2C",
"B  c #394612",
"V  c #3B482F",
"C  c #397838",
"Z  c #5B4805",
"A  c #524D12",
"S  c #684603",
"D  c #774603",
"F  c #7B4301",
"G  c #775706",
"H  c #6C5111",
"J  c #7A5616",
"K  c #5C6B1B",
"L  c #666209",
"P  c #79671A",
"I  c #54502B",
"U  c #6C522C",
"Y  c #775A28",
"T  c #785934",
"R  c #566C38",
"E  c #716F32",
"W  c #515748",
"Q  c #6E5946",
"!  c #586947",
"~  c #57764A",
"^  c #776949",
"/  c #6F704D",
"(  c #687848",
")  c #787956",
"_  c #537568",
"`  c #717969",
"'  c #841C00",
"]  c #842901",
"[  c #843604",
"{  c #8B3400",
"}  c #843C00",
"|  c #8C3C01",
" . c #943801",
".. c #91390E",
"X. c #A23D09",
"o. c #823A22",
"O. c #874803",
"+. c #944C01",
"@. c #994906",
"#. c #895804",
"$. c #975706",
"%. c #884618",
"&. c #9A4A17",
"*. c #885917",
"=. c #985818",
"-. c #A64904",
";. c #A65707",
":. c #AF4F11",
">. c #A75817",
",. c #B55817",
"<. c #886D09",
"1. c #976708",
"2. c #866518",
"3. c #986818",
"4. c #977518",
"5. c #A56707",
"6. c #AE6F0F",
"7. c #A8740B",
"8. c #A96718",
"9. c #B76718",
"0. c #B67819",
"q. c #895925",
"w. c #87522E",
"e. c #975725",
"r. c #A85A25",
"t. c #B55927",
"y. c #AF5532",
"u. c #886727",
"i. c #986927",
"p. c #98762A",
"a. c #866733",
"s. c #976937",
"d. c #8A7630",
"f. c #967737",
"g. c #A86725",
"h. c #B76926",
"j. c #AB7828",
"k. c #B67628",
"l. c #A86833",
"z. c #B86A36",
"x. c #A77434",
"c. c #B87736",
"v. c #C6691A",
"b. c #C57418",
"n. c #C9622C",
"m. c #C56A28",
"M. c #C77928",
"N. c #D6712B",
"B. c #C46B36",
"V. c #C77937",
"C. c #D67838",
"Z. c #887948",
"A. c #987947",
"S. c #926E50",
"D. c #877858",
"F. c #A77647",
"G. c #AE764F",
"H. c #A2725C",
"J. c #8E7B6A",
"K. c #CA7943",
"L. c #CF774C",
"P. c #DA7446",
"I. c #6E883B",
"U. c #5C8654",
"Y. c #738B51",
"T. c #56876D",
"R. c #748A69",
"E. c #B58A1C",
"W. c #948431",
"Q. c #B78529",
"!. c #B1902F",
"~. c #A88835",
"^. c #B78737",
"/. c #C3851C",
"(. c #C78729",
"). c #D38C2C",
"_. c #C88738",
"`. c #D58939",
"'. c #C79538",
"]. c #D69539",
"[. c #E48B3C",
"{. c #D5A33A",
"}. c #FFFF03",
"|. c #FFFF22",
" X c #FFFF37",
".X c #998648",
"XX c #8F8F50",
"oX c #898855",
"OX c #988556",
"+X c #A98548",
"@X c #B98748",
"#X c #AF954E",
"$X c #A78559",
"%X c #B98955",
"&X c #B59758",
"*X c #B8A656",
"=X c #928D6C",
"-X c #B1906D",
";X c #98A367",
":X c #B0A772",
">X c #C98747",
",X c #D78946",
"<X c #CA9648",
"1X c #D89749",
"2X c #C88A55",
"3X c #D88855",
"4X c #C8975A",
"5X c #D89757",
"6X c #E48947",
"7X c #E69648",
"8X c #F39748",
"9X c #E58C56",
"0X c #E79956",
"qX c #F49B57",
"wX c #CFAB51",
"eX c #D8A557",
"rX c #E6A557",
"tX c #F8A659",
"yX c #EBB054",
"uX c #D09468",
"iX c #ED9668",
"pX c #CCAD6D",
"aX c #D6A867",
"sX c #E8A965",
"dX c #F9A965",
"fX c #FBB867",
"gX c #F1AD75",
"hX c #FDB878",
"jX c #FFFF49",
"kX c #FFFF57",
"lX c #E7C66F",
"zX c #FDC36C",
"xX c #F0CA6D",
"cX c #FDC776",
"vX c #FDD57A",
"bX c #FFFF6E",
"nX c #6E7E83",
"mX c #9A7C88",
"MX c #779181",
"NX c #868085",
"BX c #B49686",
"VX c #B7A68B",
"CX c #CFAB8F",
"ZX c #EEB28E",
"AX c #FCB885",
"SX c #E0A49A",
"DX c #FFC984",
"FX c #FED684",
"GX c #FACA96",
"HX c #F2D190",
"JX c #FDF58D",
"KX c #F6DEA0",
"LX c #FBD2C4",
"PX c #FFFFD5",
"IX c #FFFFEA",
"UX c #FFFFFF",
/* pixels */
"UXUXUXUXUXUXUXUXUXUXUXUXUXUXUXUXUXUXUXUXUXUXUXUXUXUXUXUXUXUXUXUXUXUXUXUXUXUXUXUXUXUXUXUXUXUXUXUXUXUXUXUXUXUXUXUXUXUXUXUXUXUXUXUX",
"UX! W W V I A I E Q I I U E R K I Q A A I H R I I I d I I A U a U A I I H A U H A H A Z I d A K N T Q T K I A , E A A V ! ( _ UX",
"UXI @ - : < > O + - . % X O % - a u A u > > - - - + q > ; - > - 7 , , ; , ; , ; > ; O % + - , u - u < < - ; + % - ;   , < V _ UX",
"UXB , : + - + , O + O X X . % o . + = + + . .   . .   X   o X   o X $   o O o   o         . X   o   .       .   X O u > I A W UX",
"PXV a , 7 < a g u ; 3 ; u a u ; Z u A x J U g A d s a p d s d h d H m A i L M Z u i i a s s p Z x a p < i , s S d Z d L I I R UX",
"PXU E I A Y w.A.P G Y 4.H.j.%X4.S.<.m Z S Y f.s.a.d.F.A.F.u.Y q.L *.a.*.q.p.q.u.q.u.d.f.p.u.a.q.A.2.p.f.s.L H D 4.a.d.T ^ R ! UX",
"PXT P ^ i..X-X+XDXaXAXyXGXcXZXxXZXlXZXsXsXZXxXKXKXFXZXKXGXGXGXGXhXyXZXzXHXyXGXfXGXcXGXKXDXFXGXHXHXKXHXFXKXGXcXKX.X<X$XOXY.E =XUX",
"JXA Y 2.s.f.>X#X<XK.eXuXaXpXaX%X<X&X2XaX2X^.uXlXsXSXZXV.4X<XeXeXsX4X3XpX0XaX5XaXcXgXsXwXuXpX4XvX3XaXeXpXtXwXiXwX<X#X&XwX-XR.d.UX",
"bXY Y Y g..Xk.#X2Xp.l.].k.1.9.].z.d.v.1.>X!._.f.3Xg.D g.x.p.z.5X>.8.M.k.V.g.M.g.h.z.V.^.M.!.(.z.*X*.1.p.B.l.4.3X>X'.&XA.( a.R.UX",
"bXT w.*.P c.^.<X>X^.7.8.$.O.} g O.F 3.8.7.y.1.h.e.#.l x { +.e.4.,.$.g.h.$.v c t #.+.8.>.3.>.=.1.@.s ] v +.4.;.j.V.j.4X*XoXE / UX",
"bX*.2.%.s.k.~.hX7.$.f a 6 4 # $ = w p | b | 3 c $ o     X & 8 7  .j h l r 2 $ & $ 1 9 z 0 t i 7 6 # X . 1 p ] } p.c.pX4X.X) ) UX",
"bXP *.A =.p.2XrX5X0.| D { } t 3 ] v  .$.;.b } $.] l & & r l O.+.} n -.%.X.u ' 7 t 0 | n &.$.| +.l 7 3 6 g -.#.$.m.Q.pX*X-XE ) UX",
"kXw.=.x &.*.V.'.0Xj.V.8.t.$.#.z $.$.k.8.;.g.>.~.:.;.$.O.&.>.g.>.K.5.,.7.X.O. .n ,.1.,.3.9.+.;.V.G } $.+.+.3.-.k._.j.&X!.Z.D.Y.UX",
"bX3.%.S [ x.l.1Xm.M.k.>X0.j.C.9.z.m.[.1X,Xb.3X1Xc.^.L.>Xk.'.G.7X[.,X_._.>X>X_.7X,X1X<Xm.j.,XV.{.G.Q.rX'.k.6.r.5.V.4.c.d.S.XXoXUX",
"bX%.w.s J &.V.'.V.c.1X9X7XrXqXtXP.eXqXsXrXyXsXrXhXdXGXAXhXcXAXFX'.qX6XdXdXdXcXfXrXdXsXtXeXtXdX0XfXxXAXtX9X'.E.<Xz.p.@XW.W.oXR.UX",
"bX=.J J [ s.i.6X3X].6XyX7X0X1Xk.0X6Xj.m.v.l.K.^.K.5XrX1XaX7X>Xh.[.B.>.h.5XL.(.9.[.(.3X_.B.~._._.V.~.0X_.'.8Xh.6.^.(.+XZ.oXXXY.UX",
"jXf.o.s @.*.`._.k.k.r.| -.| [  .D >.C.(.c.9.B.i.n.3.-.;.8.h.B.eXC./.N.9.-.+.-.0.8.8.M.0.(.8XQ.x.`.4.+.+.$.v +.#.B.j.eX4XXXD.~ UX",
"jXy.x ..*.>._.1Xm.Q.-.} @.} r 9 j g c } j x 6 ] c 6 & 5 9 0 f p y x z l 0 9 4 1 6 l { g ] O.{ O.= 8 & 4 0 h +.n M.Q.'.+XS.E D.UX",
"jXq.D v *.h.2XeXK.E. .c { h w 5 y c { -. .F n v k r $ 5 r y { j { }  .{ z 5 w 2 w l | ;.b | ] ;.7 5 * 8 t v ;.$.g.V.pX^.#XoXR UX",
"jXq.M O.*.>.2X7Xc.C.&.n @.+.{ l j ] >.=.;.-.:.3.%.b r 9 O.O.&.;.;.+.;.+.} l f f }  .,.@.9.O.;.$.%.D i i b O.$.9.6.9.'.*X:XZ.Y.UX",
"bXi.S m u.r.@X`.V.`.8.9.,.t.+.$.-.$.h.M.B.k.9.b.m.;.-.@.:.,.5.:.;.>.N.C.9.-.9.-.C.8.m.9.8.9.v.h.@.$.| ;.>.6.b.8.M.Q.Q.~.d.I.R UX",
"kX*.h O.*.&.c.`.c.`.1XM.6X,X`.1XdXfXfXfXAXhXhXfXhXcXdXdXdX3X[.,X8XrXDXDXFXhXtXqXcXdXqX0XrXtXqX0XfXrXrXfXhXzXfXdX7X'.z.4.E E Z.UX",
"kX=.M @.i.&.x.7Xz.,Xh.`.6X[.,X`.1X`.0X6XrX].9XtX0X0XC.3X].`.C.C.[.7X0XhXtX8X7X8X_.6X6X6X1X`.>X).aX{.7X`.7X6XeX].).Q.V.F.W.I.E UX",
"kXP x a.r.J ,XfXg.E.B.$.M.9.,.;.m.0.m.0.M.).C.[.C.m.8.t.9.,.9.k.B.9.v.m.9.h.N.8.:.5.9.0.v.$.9.9X$.8.>.1.m.0.M.v.v.0.#X5X+Xa.! UX",
" Xq.%.p >.$.z.9.0X7.,.$.;.c l t k g v.;.g.O.%.O.;.O.i y } =.r.$.9.+.+.>.$.h y O.n >.9.,.>.j.+.1.} b x h k b @.F y.j.uX~.Y.XXI.UX",
" XJ w.1.>.^.z.wXV.z.5.@.O.] ] g t b k O.{ O.} $.6 t 2 8 r  .r.;.&. .[ } y 9 w 9 ] z &.+.*.@.@.-.f ; 5 8 f f ] n 9.i.^.@XOXZ.oXUX",
" X} G D e.*.s.C.z.5.v O.y 8 8 2 z u w u y 7 8 8 u 6 $ $ 7 r n v %.x 8 y 0 * & # y p ] F ' b | O.u # . $ 3 & t p g.j.3X*XXXoXY.UX",
"kXs.i.T #.h.V.5X{.k.^.3.k.t.:.O.3.;.8.r.k.h.h.k.L.7.y.$.y.6.K.M.,Xm.>.g.:.;.:.O.&.g.,X3.j.Q.h.8.G.i.*.3.h.3.0.k.V.z.pX+XOXE ( UX",
"bX*.=.u.c.F.c.eXK.,XV.0X<XdX_.6XV.eX<X>X,X2X5X5XuX'.G.k.2X_.uX1X3X{.L.].uX_.2X).K.{.iXQ.L.`.9X,X>X<X5X].1X5X6X@X(.>X^.~..XJ.Y.UX",
"jXY q.i.G.!.<X%X3X@XrX7XAXyXiXyX_.,XrXrX0X1X5XsXrX<X,X3X0XeX0XiXgX,X1XsX7X0X`.0X,X9X<X,X1X5XyXeXuXAXrX2X].fXHXrXhX1X$X$X&X-XR.UX",
"JX3.w.q.x.%Xy.^.V.^.3X(.3X7XuXC.1X5X>X,X3X5X3X>XiXuX3X5X5X@XL.M.>X3X9X3X3XL.3XK.5X3X>X3X2X0X>X4X3X4X1X>X2X5XqX7X>Xk.f.s.Z.E ) UX",
"bXT S g x $.G =.&.=.y.O.+.3.,.*.l.+.@.+.r.h.y.h.r.>.9.;.y.3.:.&.h.=.h.g.>.r.>.z.g.@.$.&.j.@.=.,.p.;.=.0.g.$.;.&.$.$.J d.W.) E UX",
"JXH 8 X $ * r 7 6 * 2 & * # & & 4 2 * 8 8 3 1 3 & & & * * * $ o 1 4 6 5 2 2 1 1 5 & # 1 * * * 1 * $ = # 1 2 # * 3 1 7 - < Z ^ UX",
"bXs - # # 3 8 1 g 7 r 8 1 8 7 4 8 1 g 0 8 0 2 9 8 7 6 3 2 2 1 $ r 8 r t 6 r 9 5 5 5 5 4 4 9 9 6 4 7 = $ 2 2 4 1 1 4 7 ; 7 I N UX",
"JXH d 7 7 i c r l g [ h l f l l f z c } n g l O.k j v c z g y t v n { l j | v j j k z b F O.} | c x y f g f p g g c p I T K Q UX",
"JXJ S m %.=.y.j.[ 3.&.Q.g.+.&.=.=.r.i.i.=.3.e.j.h.l.l.x.F.4.&.;.=.l.t.>.e.z.z.e.&.z.=.t.=.3.h.>.s.a.1.i.j.8.t.#.i.g.i.e.E E ^ UX",
"jXw.w.p.s.~.<XL.'.V.sX6XsXyX0X0XrX1XV.V.V.M.tXsXiX5XdXsXqXiXiX>X9X].`._.C.dXdXtXyX0XrX7X2X9X1X5XrXeXiXAXqXeX1XK.uX2X+XG.E E Q UX",
"JXP i.s.G.4X4X4XtXyXgXFXcXDXhXcXAXsX5X5XsXdXAXzXFXAXAXAXAXhXhXfXhXhXhXaXhXdXDXhXDXDXhXdXgXAXDXAXgXDXAXfXDXAXgXyX4XeXpX4XOXZ.) UX",
"kXA Y 2.q.3.k.j.>Xj.z.6.:.>.8.@.g.8.9.h.8.k.8.c.z.;.+.#.>.c.B.h.L.8.v.N.g.>.>.O.t.j.B.h.j.h.h.h.h.D ;.=.t.4.8.c.M.c.&X#Xd.^ ^ UX",
"JX*.D U 3.f.%X1X9.^.-.O...F v j f n =.r.i.#.O.$.@.%.h x ..+.O.$.k.F -.@.e.[ f f l  .=.t.:.i.&.g.F } g g F  .8.1.M.k.~.4X$XZ.D.UX",
"kXp.H %.#.l.(.sXrXO.&.n l h 8 0 l ..+.v ] [ } } z 0 5 * 5 l n.:.' @.+.$.] 5 5 & 6 ] #.| c ,.$.| r 2 1 $ 6 $.*.v.#.@XgXwXOXU ^ UX",
"kXf.=.H i.*.2X].k.b @.} r h 7 7 # 4 0 n h g h g i & * $ & 0 ] f O.[ v h w 2 1 & 1 6 ' r h { s v j & * & 4 j j c V.4.wX*XG.E ^ UX",
"jXE H v J #.^.<X>X=.B.#.| O. .t >.>.K.).`.[.M.L.z.8.-.+.-.t.3XV.9X/.P.B.9.>.;.@.m.k.M.k.c._.C.@X+.+.@.} @.=.+.=.l.h.wX#X$XoXD.UX",
"jX*.S x %.#.^._.7XQ.8X1XM.<X,Xb.x.>XM._.8.M.K.(.c.c.h.c.t.]._.2X5.0.r.B.z.c.K.>X,Xm.c.C.K.j.g.v.sX^.5X<X,X>X9.M.0.V.^.~.H.oX=XUX",
"|.q.Z x H $.<X5X_.Q.tX1X,XzXqX(.hXhXfX1XrX7XsXfXiXdXhXhXfXdXAX8X,X6X,X,XqXfXcXcXhXhXrXtX1X6XrX5XhX9XhXqXrX>Xh.8.^.z.~.W.S.oXR.UX",
" Xa.b x %.*.K.<X_.j.7X'.V.1XM.(.B.V.'._.V.M.5X].L._.5X5X`.5XC.M.L.K.V.,XC.,X,X7X3X3X_.,X>XC.c.K.yX).iXqXwX3Xh.,X^.0.@X4.S.Y.D.UX",
" Xs.j s O.#.(.@X1X3.b.k.;.$.| n @.@.9.,.k.k.h.8.r.$.:. .$.g.v.t./.9.0.5.B.@.-.| $.;.g.h.g.,.g.z.$.n [ O. .i.;.$.c.(.&X~.S.Y.J.UX",
"kXg.#.H =.q.).5X].O.8.,.O.F e l y z |  .O.+.&.+...y i w r ] 5.-. .5.@.>. .{ f 2 z k =.@.-.@.{ O.$.k f t g -.&.C.k.^.5X4X&XoXR.UX",
" Xa.b F u.i.3XyX2X@XX.x 9 * & o 1 r c | t 6 2 v * 1 o o & 6 h @.t 4 w r 5 o & 1 # 6  .9 r f z e 6 * $ & 5 [ j c  .$.p.!.OXU / UX",
"jX2.m H *.e.@XyXx.k.q.8.&.O.z v h D t.1.n.%.:.*.;.+.] n z @.t.r.e.-.y.;.&.{ [ z ] -.z.@.r.7.y.6.O.l c i ..v.;.m.N.`.'.<XOX.XD.UX",
" X2.O.D $.5.G.].<Xv.g.b.m.;.;.;.>.1.V.E.,Xc.M.8.M.0.z.1.g.j.9.9.V.v.B.6.C.9.B.;.r.b.P.E.z.b.P.Q.m.3.,.5.z.M.K.E.M.j.Q.F.A.E Q UX",
" Xs.b G =.O.0.G.>X!.P.].'.N.N.k.0.C.7X6X8X8X9X9X0X6X).P.M.M.K.z.0.`._.6X`.1X`.N.`.6X(.V.C.N.Q.P.'.E.<XQ.N.4X7.h.'.].*X#XOXXXNXUX",
"}.4.b L =.$.Q.!.^.7.1XaXtXeX].1XzXxXFXFXcXcXvXJXFXvXcXfXvXfXfXyXfXzXcXfXvXFXFXfXcXFXvXfXyXzXzXcXvXfXvXDXzXcXfXzX!.).~.Q.=XZ.mXUX",
"}.4.L %.4.<.c.1X6.g.M.c.(.E.9.k.+.3.j.j.$.1.1.Q.3.3.D G >.+.+.3.$.3.1.4.8.8.1.G h.8.8.=.>.4.,.8.7.<.$.O.7.0.+.<.C.4.F.E D.) _ UX",
"}.J S P i.<.@X#X!.~.<.1.O.x x i D G 3.#.3.#.#.4.#.x p p D #.4.4.4.<.5.3.#.S h x +.1.8.5.$.4.6.#.O.j x s F g.7.,.E.!.*X@XXXJ.` UX",
"}.P S E W.a.W.pX+X4.D S a 0 , p = 0 a s s S s s a = . X & x x *.*.S n D i $ o X & u S s S G S s 7 $ # o = D c 4.u.2.~.$X( ( ~ UX",
"jXA L Y f.A.x.&X+Xj.P q.L x p s u u s s s i a a u ; # % ; a S J 2.Z x Z a - = . 0 H q.s n i.*.i M w o & 0 S *.s p.P +XoXD.` ` UX",
"JXU P E a.OXf.:XD.s.S.a.T S H g Y *.p.p.x.3.a.s.s.q.J J u.s.F.+Xf.s.d.l.e.q.m J H q.s.J e.s.l.%.Y M p m %.P u.2.j.d.;XXX` Y._ UX",
"PX^ Q Q E H.D.-XOXA.OX%X$XH.A.H.F.$X$X-XH.uX%X%X+XA.G.A.s.S.Y T A.$X$X$X$XOX2XG.&XuX%X$X%X%X&X@XuX-X.X-X&X4X&X;X#X-X;X=XR.` nXUX",
"IXU T I S.E J.:X-X-X=X-XCX:X:X#XVX4XSXaXSX:XSX*XLXHXLXHXLXlXSXaX-X4XCX%XCXgXLXpXSXaXBX2XBX4XBXuXVXVXSX:XCX-X-X-XXX&X;X;XR.R.R.UX",
"UX! R I ! Z.D.=XR.J.=X;X-X=X=XZ.-X-X:X:X-X:X-X:X=X;XBX;X-X;XH.Z.-X:XVXOX:XCXCX:XBX:XJ.-X-XOX$X-X;X;XVXVX$X=XD.oX=X=X:X=XR.T.R.UX",
"UX` Q W ) ( ` ) OXY.) Z.` Z./ Y.T ) S./ ^ ^ ^ W $XR.H.` Z.` =XoX) ) S./ ^ ) D./ D.D.) S.D.D.D.^ OX=X=XD.^ T E D.E ) MXY._ U._ UX",
"UXT.R.U.~ ( ~ T._ ! ` Y._ ~ U.! ` U.) Y.U.( ) C E C ^ C ^ C ( ( Y.~ I U.( ( ~ U.E R R ( ( ( ~ ~ ( E ) ~ E U.Q ! ! E / _ ` ! _ UX",
"UXUXUXUXUXUXUXUXUXUXUXUXUXUXUXUXUXUXUXUXUXUXUXUXUXUXUXUXUXUXUXUXUXUXUXUXUXUXUXUXUXUXUXUXUXUXUXUXUXUXUXUXUXUXUXUXUXUXUXUXUXUXUXUX"
};
