/* XPM */
static char *_b7895a7671042e2e0af36f201ad40ecyNIiFFIzZjFUFwAv[] = {
/* columns rows colors chars-per-pixel */
"64 64 148 2 ",
"   c #000000",
".  c #080000",
"X  c #000B06",
"o  c #080C06",
"O  c #08060C",
"+  c #070E08",
"@  c #0A080D",
"#  c #110702",
"$  c #150A03",
"%  c #1A0E04",
"&  c #110D0F",
"*  c #06150C",
"=  c #031A0E",
"-  c #1E1105",
";  c #080911",
":  c #070E1D",
">  c #041D11",
",  c #1B1511",
"<  c #231506",
"1  c #271807",
"2  c #291907",
"3  c #2B1B08",
"4  c #301F09",
"5  c #241B13",
"6  c #281F14",
"7  c #042112",
"8  c #022917",
"9  c #022D19",
"0  c #05311C",
"q  c #00381F",
"w  c #35230B",
"e  c #39260C",
"r  c #3E290C",
"t  c #2F2416",
"y  c #362917",
"u  c #382B17",
"i  c #3D2F19",
"p  c #071932",
"a  c #0A1B33",
"s  c #023C21",
"d  c #06203F",
"f  c #152335",
"g  c #192736",
"h  c #1D2A37",
"j  c #212D38",
"k  c #253039",
"l  c #2C353A",
"z  c #333A3C",
"x  c #432D0E",
"c  c #49320F",
"v  c #4D3410",
"b  c #45351B",
"n  c #48371B",
"m  c #4A391C",
"M  c #503711",
"N  c #533912",
"B  c #5A3E13",
"V  c #523E1D",
"C  c #034325",
"Z  c #004728",
"A  c #014B2A",
"S  c #03532E",
"D  c #015731",
"F  c #015B33",
"G  c #3E433E",
"H  c #016136",
"J  c #006639",
"K  c #026D3C",
"L  c #01723F",
"P  c #5E4214",
"I  c #58441F",
"U  c #624515",
"Y  c #664816",
"T  c #6A4B17",
"R  c #6D4E18",
"E  c #735219",
"W  c #7A571B",
"Q  c #7E5A1C",
"!  c #41453F",
"~  c #6C5324",
"^  c #062141",
"/  c #06254A",
"(  c #052F5F",
")  c #07305F",
"_  c #08315F",
"`  c #053163",
"'  c #0A3360",
"]  c #053468",
"[  c #05386F",
"{  c #027440",
"}  c #027C44",
"|  c #4C4D41",
" . c #4F5042",
".. c #515143",
"X. c #825D1D",
"o. c #86601D",
"O. c #8C651F",
"+. c #846529",
"@. c #89692A",
"#. c #956B21",
"$. c #996F22",
"%. c #9C7123",
"&. c #A37624",
"*. c #AB7C26",
"=. c #018147",
"-. c #04854A",
";. c #01894C",
":. c #018D4E",
">. c #01904F",
",. c #019151",
"<. c #019552",
"1. c #029653",
"2. c #019955",
"3. c #019C56",
"4. c #019F58",
"5. c #01A159",
"6. c #01A45B",
"7. c #02A75C",
"8. c #01A85D",
"9. c #01AC5F",
"0. c #01AD60",
"q. c #01B061",
"w. c #01B665",
"e. c #01B966",
"r. c #01BC68",
"t. c #01C16B",
"y. c #02C36C",
"u. c #01C56D",
"i. c #01C96F",
"p. c #01CA70",
"a. c #01CF72",
"s. c #01D073",
"d. c #01D375",
"f. c #01D676",
"g. c #01D978",
"h. c #B08027",
"j. c #B48428",
"k. c #C38F2C",
"l. c #C8932D",
"z. c #D39B2F",
"x. c #D69D30",
"c. c #DDA231",
"v. c #E0A532",
"b. c #F5B537",
"n. c #F9B838",
"m. c #044386",
"M. c #04458A",
"N. c #0351A1",
/* pixels */
"] ^ ; . . . . . . * 8 0 C S S S S S S S S S S S S S S S S S S S S S S S S S S S S S S S S S S S S S S A s 7 = o . . . . . . . . ",
"] ^ ; . . . . . . > C S H L { { } } -.-.-.-.-.-.-.-.-.-.-.-.-.-.-.-.-.-.-.-.-.-.-.-.-.-.-.-.-.-.-.-.-.} F s 8 * . . . . . . . . ",
"] ^ ; . . . . . . 8 H } -.2.3.5.7.q.r.y.y.y.y.y.y.y.y.y.y.y.y.y.u.y.u.u.y.y.y.y.y.y.y.y.u.u.u.u.y.y.y.w.;.S s > . . . . . . . . ",
"] ^ ; . . . . . . 0 K -.:.3.5.8.q.t.d.g.f.d.d.f.f.f.g.g.f.d.d.s.s.a.a.s.a.a.a.a.a.a.a.a.s.s.s.a.a.d.f.u.<.F C 7 . . . . . . . . ",
"] ^ ; . . . . . . 0 K =.=.=.;.,.3.q.a.f.a.t.t.u.i.a.f.f.a.t.r.w.q.q.q.q.q.q.0.0.0.0.0.q.q.q.0.0.0.e.u.e.,.F C 7 . . . . . . . . ",
"] ^ ; . . . . . . 0 K } K F J { =.5.p.d.t.8.9.q.e.u.f.d.t.8.5.<.;.;.;.;.;.;.;.;.;.;.;.;.;.;.;.;.;.2.q.9.-.F C 7 . . . . . . . . ",
"] ^ ; . . . . . . 0 K } K F H L =.5.p.d.r.5.6.8.q.t.d.d.r.5.<.;.{ { { { { { { { { { { { { { { { { :.8.7.-.F C 7 . . . . . . . . ",
"] ^ ; . . . . . . 0 K } K F H L =.5.p.s.w.2.2.5.8.r.d.s.w.2.;.{ J J J J J J J J J J J J J J J J J =.4.5.-.F C 7 . . . . . . . . ",
"] ^ ; . . . . . . 0 K } K F H L =.5.p.a.q.:.,.2.5.w.s.a.q.:.} J S S S S S S S S S S S S S S S S S L <.2.} F C 7 . . . . . . . . ",
"] ^ ; . . . . . . 0 K } K F F J K ;.0.q.5.;.:.,.2.6.w.q.5.;.=.{ J J J J J J J J J J J J J J J J J =.4.5.-.F C 7 . . . . . . . . ",
"] ^ ; . . . . . . 0 K } K F F F D K ;.,.:.;.;.;.;.:.,.,.:.;.;.=.} } } } } } } } } } } } } } } } } ,.8.8.-.F C 7 . . . . . . . . ",
"] ^ ; . . . . . . 0 K } K F S S Z F L { } } } } } } } } } { { { { { { { { { { { } } } } } } } } { :.7.6.-.F C 7 . . . . . . . . ",
"] ^ ; . . . . . . 0 K } K F S Z C Z S S F F H J K K K J H S A Z C C C C C C Z S F H J K K K J F S K >.<.} F C 7 . . . . . . . . ",
"] ^ ; . . . . . . 0 K } K F A C q 9 8 8 9 q s Z S S S S s 8 > * X X X X X X * 7 q C S S S S Z q 7 Z { } K F C 7 . . . . . . . . ",
"] ^ ; . . . . . . 0 K } K F S A Z s q q s Z S H { { { K S q 7 *             * 9 Z F K { { { J Z 0 A { } K F C 7 . . . . . . . . ",
"] ^ ; . . . . . . 0 K } K F F F H F Z Z S H { :.7.7.7.2.{ Z q =             = s H } 3.7.7.7.:.J Z F { } K F C 7 . . . . . . . . ",
"] ^ ; . . . . . . 0 K } K F H L =.L F F K } <.e.g.g.g.i.2.F C 7             7 S =.5.p.g.g.g.e.;.F J { } K F C 7 . . . . . . . . ",
"] ^ ; . . . . . . 0 K } K F H L =.L F F K } <.e.g.g.g.i.2.F C 7             7 S =.5.p.g.g.g.e.;.F J { } K F C 7 . . . . . . . . ",
"] ^ ; . . . . . . 0 K } K F H L =.L F F K } <.e.g.g.g.i.2.F C 7             7 S =.5.p.g.g.g.e.;.F J { } K F C 7 . . . . . . . . ",
"] ^ ; . . . . . . 0 K } K F H L =.L F F K } <.e.g.g.g.i.2.F C 7             7 S =.5.p.g.g.g.e.;.F J { } K F C 7 . . . . . . . . ",
"] ^ ; . . . . . . 0 K } K F H L =.L F F K } 2.e.g.g.g.i.2.F C 7             7 S =.5.p.g.g.g.e.;.F J { } K F C 7 . . . . . . . . ",
"] ^ ; . . . . . . 0 K } K F H L =.L F F K } 2.e.g.g.g.i.2.F C 7             7 S =.5.p.g.g.g.e.;.F J { } K F C 7 . . . . . . . . ",
"] ^ ; . . . . . . 0 K } K F H L =.L H F K =.2.e.g.g.g.i.2.F C 7             7 S =.5.p.g.g.g.e.;.F J { } K F C 7 . . . . . . . . ",
"] ^ ; . . . . . . 0 K } K F H L =.L F F K =.2.e.g.g.g.i.2.F C 7             7 S =.5.p.g.g.g.e.;.F J { } K F C 7 . . . . . . . . ",
"] ^ ; . . . . . . 0 K } K F H L =.L F F K } <.e.g.g.g.i.2.F C 7             7 S =.5.p.g.g.g.e.;.F J { } K F C 7 . . . . . . . . ",
"] ^ ; . . . . . . 0 K } K F F J K H S S F K =.3.e.e.e.9.=.S q >             = Z K ;.0.e.e.e.4.{ A H { } K F C 7 . . . . . . . . ",
"] ^ ; . . . . . . 0 K } K F F F D A C s Z D J } ,.,.,.;.J s 9 =             = q F K ;.,.,.,.} F s S { } K F C 7 . . . . . . . . ",
"] ^ ; . . . . . . 0 K } L H F S S Z s s Z A F K } } } { F s 9 > X X X X X X = q S H { } } } K S s D { =.K F C 7 . . . . . . . . ",
"] ^ ; . . . . . . 0 K } { L J F S A Z Z Z S F H K K K J F Z s q 8 8 8 8 8 8 q C S F J K K K H S Z H ;.;.{ F C 7 . . . . . . . . ",
"] ^ ; . . . . . . 0 K =.;.;.} J S S S S S S S S S S S S S S S S S S S S S S S S S S S S S S S S S L <.2.} F C 7 . . . . . . . . ",
"] ^ ; . . . . . . 9 H { } ;.} K H H H H H H H H H H H H H H H H F H H H H H H H H H H H H H H H H { ,.,.{ S s > . . . . . . . . ",
"] ^ ; . . . . . . 7 S J { ;.=.} { { { { { { { { { { { { { { { { { { { { { { { { { { { { { { { { { } ;.-.K C 0 * . . . . . . . . ",
"] ^ ; . . . . . . > C D K -.-.-.-.-.-.-.-.-.-.-.-.-.-.-.-.-.-.-.-.-.-.-.-.-.-.-.-.-.-.-.-.-.-.-.-.-.-.} F s 8 * . . . . . . . . ",
"] ^ ; . . . . . . * 8 0 C S S S S S S S S S S S S S S S S S S S S S S S S S S S S S S S S S S S S S S A s 7 * o . . . . . . . . ",
"] ^ ; . . . . . . . o + * * * * * * * * * * * * * * * * * * * * * * * * * * * * * * * * * * * * * * * * * o o . . . . . . . . . ",
"] ^ ; . . . . . . . . . . . . . . . . . . . . . . . . . . . . . . . . . . . . . . . . . . . . . . . . . . . . . . . . . . . . . ",
"] ^ ; . . . . . . . . . . . . . . . . . . . . . . . . . . . . . . . . . . . . . . . . . . . . . . . . . . . . . . . . . . . . . ",
"] ^ ; . . . . . . . . . . . . . . . . . . . . . . . . . . . . . . . . . . . . . . . . . . . . . . . . . . . . . . . . . . . . . ",
"] ^ ; . . . . . . . . . . . . . . . . . . . . . . . . . . . . . . . . . . . . . . . . . . . . . . . $ $ % - - - - % $ # . . . . ",
"] ^ ; . . . . . . . . . . . . . . . . . . . . . . . . . . . . . . . . . . . . . . . . . . . . . . $ < 3 w x x x x w < - $ . . . ",
"] ^ ; . . . . . . . . . . . . . . . . . . . . . . . . . . . . . . . . . . . . . . . . . . . . . . - w x M U Y Y Y M w 1 % . . . ",
"] ^ ; . . . . . . . . . . . . . . . . . . . . . . . . . . . . . . . . . . . . . . . . . . . . . . 1 M T Q $.%.%.%.Q N r < . . . ",
"] ^ ; . . . . . . . . . . . . . . . . . . . . . . . . . . . . . . . . . . . . . . . . . . . . . . e E #.j.c.v.v.v.h.E N w . . . ",
"] ^ ; . . . . . . . . . . . . . . . . . . . . . . . . . . . . . . . . . . . . . . . . . . . . . . r Q &.l.b.n.n.n.k.X.P e . . . ",
"] ^ ; . . . . % < < - % # . . . . . . . $ < < - % $ . . . . . % < < - % # . . . . . . . . . . . . r Q &.l.b.n.n.n.k.X.P e . . . ",
"] ^ ; . . . $ 1 r w 3 1 % . . . . . . . < e e w 3 - . . . . $ 1 r w 3 1 % . . . . . . . . . . . . r Q &.l.b.n.n.n.k.X.P e . . . ",
"] ^ ; . . . % e N v x w < . . . . . . # 3 M v x r 1 # . . . % e N v x w < . . . . . . . . . . . . r Q &.l.b.n.n.n.k.X.P e . . . ",
"] ^ ; . . . < v E T B v 3 . . . . . . $ r E R U N w $ . . . < v E T B v 3 . . . . . . . . . . . . r Q &.l.b.n.n.n.k.X.P e . . . ",
"] ^ ; . . . 3 U #.o.E P e . . . . . . % M #.O.W T x % . . . 3 U #.o.E P e . . . . . . . . . . . . r Q &.l.b.n.n.n.k.X.P e . . . ",
"] ^ ; . . . 3 U #.o.E P e . . . . . . % M #.O.W T x % . . . 3 U #.o.E P e . . . . . . . . . . . . r Q &.l.b.n.n.n.k.X.P e . . . ",
"] ^ ; . . . 3 U #.o.E P e . . . . . . % M #.O.W T x % . . . 3 U #.o.E P e . . . . . . . . . . . . r Q &.l.b.n.n.n.k.X.P e . . . ",
"] ^ ; . . . 3 U #.o.E P e . . . . . . % v O.o.W R c - . . . 4 U #.X.R B w . . . . . . . . . . . . r Q &.l.b.n.n.n.k.X.P e . . . ",
"] ^ ; . . . 3 U #.o.E P e . . . . . . $ x E W E E M 1 % - < r Y O.W U v 4 . . . . . . . . . . . . r Q &.l.b.n.n.n.k.X.P e . . . ",
"] ^ ; . . . 3 U #.o.E P e . . . . . . $ w P T E W P e 3 w r v T o.R M r 1 . . . . . . . . . . . . r Q &.l.b.n.n.n.k.X.P e . . . ",
"] ^ ; . . . 3 U #.O.Q R v < - - - % $ % 3 c N Y E U c x c M B T E P x w < % $ $ # . . . . . . . . r Q &.l.b.n.n.n.k.X.P e . . . ",
"] ^ ; . . . 3 U #.#.O.X.Y x x x x w < < < 2 e M T Y U U Y T T U P x 1 < < 1 1 < < $ . . . . . . . r Q &.l.b.n.n.n.k.X.P e . . . ",
"] ^ ; . . . 3 U #.%.%.$.X.T Y Y Y M w 1 % . - r U T E Q X.o.E P x 3 $ . < r e w 3 < . . . . . . . r Q &.l.b.n.n.n.k.X.P e . . . ",
"] ^ ; . . . < N X.O.%.%.O.W W W W U x 4 - . $ 1 r M T E R R P x 3 - . # 1 c x r w < # . . . . . . w R O.*.z.x.x.x.*.E M w . . . ",
"] ^ ; . . . < x T Q #.%.$.#.#.#.#.E v e < . . # $ w B U B M x 1 $ . . $ 4 N N c x 1 # . . . . . . 3 B E O.*.*.*.*.o.B x 1 . . . ",
"[ / : O O O , u I ~ +.@.@.@.@.@.@.~ m y 5 @ O O O 5 n V n i t , O O O & t V m b i 6 & O O O O O O 5 n I ~ @.@.@.@.~ m y 5 @ O O ",
"m.] d p p p f j z G | ............! l j f p p p p f l z l k h f p p p a h z l l k g a p p p p p p f l z !  .......! l j f p p p ",
"N.m.] ( ( ( ) ) ' ' ' ' ' ' ' ' ' ' ' ) ) ( ( ( ( ) ' ' ' _ ) ) ( ( ( ( ) ' ' ' _ ) ( ( ( ( ( ( ( ) ' ' ' ' ' ' ' ' ' ) ) ( ( ( ",
"N.M.[ ` ` ` ` ` ` ` ` ` ` ` ` ` ` ` ` ` ` ` ` ` ` ` ` ` ` ` ` ` ` ` ` ` ` ` ` ` ` ` ` ` ` ` ` ` ` ` ` ` ` ` ` ` ` ` ` ` ` ` ` ` ",
"N.M.[ ` ` ` ` ` ` ` ` ` ` ` ` ` ` ` ` ` ` ` ` ` ` ` ` ` ` ` ` ` ` ` ` ` ` ` ` ` ` ` ` ` ` ` ` ` ` ` ` ` ` ` ` ` ` ` ` ` ` ` ` ` "
};
