/* XPM */
static char *_7a64940847c4f67d6a5fedc19f6316aR765XF9MapQNyr5A[] = {
/* columns rows colors chars-per-pixel */
"64 82 170 2 ",
"   c #010101",
".  c #080700",
"X  c #0E0C00",
"o  c #020708",
"O  c #03090C",
"+  c #080D0F",
"@  c #100E00",
"#  c #151200",
"$  c #1F1B00",
"%  c #040F12",
"&  c #090E11",
"*  c #061216",
"=  c #0C1213",
"-  c #07151A",
";  c #0A161A",
":  c #07181D",
">  c #08181E",
",  c #111817",
"<  c #221D00",
"1  c #262100",
"2  c #2A2500",
"3  c #2F2900",
"4  c #362F00",
"5  c #3B3400",
"6  c #36330A",
"7  c #232B1C",
"8  c #373610",
"9  c #0A1D23",
"0  c #091E29",
"q  c #0D2026",
"w  c #0C232B",
"e  c #142329",
"r  c #18252C",
"t  c #1B282D",
"y  c #0E2A34",
"u  c #0E2C38",
"i  c #1A2C35",
"p  c #122E38",
"a  c #13313C",
"s  c #1C313B",
"d  c #2D372C",
"f  c #202C33",
"g  c #24333C",
"h  c #443C00",
"j  c #483F00",
"k  c #3E4629",
"l  c #4E4300",
"z  c #554A00",
"x  c #594E00",
"c  c #5E5200",
"v  c #5C5610",
"b  c #625500",
"n  c #645A07",
"m  c #6C5E00",
"M  c #6E6000",
"N  c #726400",
"B  c #7B6B00",
"V  c #6E6710",
"C  c #766D10",
"Z  c #786F10",
"A  c #474E2C",
"S  c #4A512C",
"D  c #173642",
"F  c #183642",
"G  c #1A3945",
"H  c #1E3D4A",
"J  c #0B3958",
"K  c #123C53",
"L  c #243944",
"P  c #233F4B",
"I  c #1F404D",
"U  c #13415A",
"Y  c #21414E",
"T  c #28424F",
"R  c #234452",
"E  c #2C4755",
"W  c #2C4856",
"Q  c #264858",
"!  c #2B4D5D",
"~  c #364A55",
"^  c #2C505F",
"/  c #1E4F70",
"(  c #254E64",
")  c #2C4F60",
"_  c #2E5263",
"`  c #27546B",
"'  c #315566",
"]  c #315668",
"[  c #355B6D",
"{  c #3A5C6B",
"}  c #385E71",
"|  c #3B6276",
" . c #405D6C",
".. c #44606E",
"X. c #426475",
"o. c #41697F",
"O. c #4A6E7F",
"+. c #506D7E",
"@. c #827100",
"#. c #8C7B00",
"$. c #917F00",
"%. c #948200",
"&. c #998500",
"*. c #9D8900",
"=. c #A28E00",
"-. c #AA9500",
";. c #B29B00",
":. c #BAA300",
">. c #BEA600",
",. c #C7AE00",
"<. c #CDB300",
"1. c #D1B700",
"2. c #D6BB00",
"3. c #DABE00",
"4. c #DEC200",
"5. c #E2C600",
"6. c #E4C700",
"7. c #E6C800",
"8. c #E8CB00",
"9. c #E9CC00",
"0. c #084B82",
"q. c #084E88",
"w. c #0E5289",
"e. c #34688C",
"r. c #436B81",
"t. c #486E81",
"y. c #4A7286",
"u. c #477188",
"i. c #4A758C",
"p. c #537A8E",
"a. c #5C7B89",
"s. c #4D7991",
"d. c #517D96",
"f. c #537F98",
"g. c #598197",
"h. c #56849E",
"j. c #5B859C",
"k. c #5F889F",
"l. c #648A9D",
"z. c #5886A0",
"x. c #5B88A2",
"c. c #618CA5",
"v. c #6990A4",
"b. c #6691AA",
"n. c #6A95AD",
"m. c #7C9CA9",
"M. c #6E9AB3",
"N. c #739EB6",
"B. c #73A0BA",
"V. c #7BA5BD",
"C. c #7BA7C1",
"Z. c #80A1AF",
"A. c #83A5B4",
"S. c #8FB0BE",
"D. c #82ACC3",
"F. c #89B2C8",
"G. c #88B4CE",
"H. c #97B8C6",
"J. c #92B7CA",
"K. c #8AB6D1",
"L. c #8FBBD6",
"P. c #9AC3DA",
"I. c #A0C8DF",
"U. c #AAD0E2",
"Y. c #B6DAEA",
"T. c #C4E0EB",
"R. c #C3E3F0",
"E. c #CEEAF5",
"W. c #D0EDF7",
"Q. c #DAF5FE",
/* pixels */
"                                                                                                                      o 0 K U U ",
"              o o o o o o o o         # 1 2 2 2 2 2 < #                   # 1 $ X         o o o o o o o o             o 0 K U U ",
"            o + % % % % % % o       . 2 z c c c c c l 2                 . 2 z h <         o % % % % % % O             o 0 K U U ",
"            o * - - * * - * O       . 5 B @.B N B B m 5                 X 5 B b 3       o + - - * * - - % o           o 0 K U U ",
"            O > 9 > - > 9 9 *       . z -.;.&.@.&.;.*.z                 @ z ;.#.h       o * 9 9 - - > 9 - o           o 0 K U U ",
"            % q w q > 9 w w -     . X M 7.7.>.%.:.9.1.N               . # N 8.>.x       o : y q 9 9 q y 9 o           o 0 K U U ",
"            % q w 9 - 9 w w -     . X M 7.4.=.b *.5.1.N               . # N 9.>.x       o : y q > > q y 9 o           o 0 K U U ",
"            % q w 9 - > q w -     . @ m 5.<.B < N 3.1.N               . # N 9.>.x       o : y q - - 9 y 9 o           o 0 K U U ",
"            % q w 9 - 9 w w -     . X m 5.,.m . b 2.1.N               . # N 9.>.x       o > y q - - 9 y 9 o           o 0 K U U ",
"            % q w 9 - 9 w w -     . X m 5.,.m . b 2.1.N               . # N 9.>.x       o > y q > > 9 y 9 o           o 0 K U U ",
"            % q w q > 9 w w -     . X m 5.,.m . b 2.1.N               . # N 9.>.x       o > y q 9 9 q y 9 o           o 0 K U U ",
"            % q w 9 > 9 w w -     . X m 5.<.B 1 N 3.1.N               . # N 9.>.x       o > y q > > q y 9 o           o 0 K U U ",
"            % q w 9 - > q w -     . X M 6.3.&.z %.5.1.N               . # N 9.>.x       o > y q : - 9 y 9 o           o 0 K U U ",
"            % q w 9 * > q w -     . X m 4.3.-.N =.4.<.m               . # N 5.:.z       o : w q - - 9 w 9 o           o 0 K U U ",
"            + 9 9 9 - > 9 9 *       X x :.>.*.@.*.>.-.x               . # c :.&.j       o * q 9 : - 9 q - o           o 0 K U U ",
"            o - > > > > : : %       . h #.&.%.$.%.%.B h                 X h #.N 4       o % > > > > > : * o           o 0 K U U ",
"o o + & & & ; 9 q q q q 9 9 ; & & = = 8 V Z Z Z C C n 6 o o = = = & & = , 8 V v 6 & & & = > q q q q 9 9 > = & & & & & = p ( ` ` ",
"+ ; e r r r i i i i i i i i i r r r t d A S S S S A k 7 + , f g f r r r t d A k d r r r r i i i i i i i i r r r r r r i W t.y.y.",
"* e g L L L L L L L L L L L L L L L L L L L L L L L s e ; t ~ ~ E L L L L L L L L L L L L L L L L L L L L L L L L L L P ..l.v.v.",
"9 i T W W W W W W W W W W W W W W W W W W W W W E E T s 9 L X.+. .W W W W W W W W W W W W W W W W W W W W W W W W W W _ a.S.H.H.",
"y H ' [ [ [ [ [ [ [ [ [ [ [ [ [ [ [ [ [ [ [ [ [ [ [ _ P y ! j.n.p.[ [ [ [ [ [ [ [ [ [ [ [ [ [ [ [ [ [ [ [ [ [ [ [ [ { X.m.T.E.E.",
"y H ' [ [ [ [ [ [ [ [ [ [ [ [ [ [ [ [ [ [ [ [ [ [ [ _ Y p ' c.M.d.[ [ [ [ [ [ [ [ [ [ [ [ [ [ [ [ [ [ [ [ [ [ [ [ [ } X.Z.E.Q.Q.",
"y G _ ' ' ' ' ' ' ' ' ' ' ' ' ' ' ' ' ' ' ' ' ' ' ' ! H p ' k.n.p.] ' ' ' ' ' ' ' ' ' ' ' ' ' ' ' ' ' ' ' ' ' ' ' ] [ | m.E.Q.Q.",
"y G Q ) ) ) ) ) ) ) ) ) ) ) ) ) ) ) ) ) ) ) ) ) ! ! Q H p ^ j.b.i._ ) ) ) ) ) ) ) ) ) ) ) ) ) ) ) ) ) ) ) ) ) ) ) _ ' { m.E.Q.Q.",
"y Y [ | | | | | | | | | | | | | | | | | | | | | | | [ R p ' c.N.j.| | | | | | | | | | | | | | | | | | | | | | | | | | t.A.E.Q.Q.",
"y Q u.d.d.d.d.d.d.d.d.d.d.d.d.d.d.d.d.d.d.d.d.d.s.s.r.) p { N.F.M.d.d.d.d.d.d.d.d.d.d.d.d.d.d.d.d.d.d.d.d.d.d.d.d.d.d.j.F.W.Q.Q.",
"y ! s.h.h.h.h.h.h.h.h.h.h.h.h.h.h.h.h.h.h.h.h.h.h.h.i._ p { N.K.N.z.h.h.h.h.h.h.h.h.h.h.h.h.h.h.h.h.h.h.h.h.h.h.h.h.z.c.J.W.Q.Q.",
"y ! s.h.h.h.h.h.h.h.h.h.h.h.h.h.h.h.h.h.h.h.h.h.h.h.i._ p { N.K.N.z.h.h.h.h.h.h.h.h.h.h.h.h.h.h.h.h.h.h.h.h.h.h.h.h.z.c.J.W.Q.Q.",
"y ! s.h.h.h.h.h.h.h.h.h.h.h.h.h.h.h.h.h.h.h.h.h.h.h.i._ p { N.K.B.z.h.h.h.h.h.h.h.h.h.h.h.h.h.h.h.h.h.h.h.h.h.h.h.h.z.c.J.W.Q.Q.",
"y ! s.h.h.h.h.h.h.h.h.h.h.h.h.h.h.h.h.h.h.h.h.h.h.h.u._ p { N.K.N.z.h.h.h.h.h.h.h.h.h.h.h.h.h.h.h.h.h.h.h.h.h.h.h.h.z.c.J.W.Q.Q.",
"y ! s.h.h.h.h.h.h.h.h.h.h.h.h.h.h.h.h.h.h.h.h.h.h.h.i._ p { N.K.B.z.h.h.h.h.h.h.h.h.h.h.h.h.h.h.h.h.h.h.h.h.h.h.h.h.z.c.J.W.Q.Q.",
"y ! s.h.h.h.h.h.h.h.h.h.h.h.h.h.h.h.h.h.h.h.h.h.h.h.i._ p { N.K.B.z.h.h.h.h.h.h.h.h.h.h.h.h.h.h.h.h.h.h.h.h.h.h.h.h.z.c.J.W.Q.Q.",
"y ! s.h.h.h.h.h.h.h.h.h.h.h.h.h.h.h.h.h.h.h.h.h.h.h.i._ p { N.K.B.z.h.h.h.h.h.h.h.h.h.h.h.h.h.h.h.h.h.h.h.h.h.h.h.h.z.c.J.W.Q.Q.",
"y ! s.h.h.h.h.h.h.h.h.h.h.h.h.h.h.h.h.h.h.h.h.h.h.h.i._ p { N.K.B.z.h.h.h.h.h.h.h.h.h.h.h.h.h.h.h.h.h.h.h.h.h.h.h.h.z.c.J.W.Q.Q.",
"y ! s.h.h.h.h.h.h.h.h.h.h.h.h.h.h.h.h.h.h.h.h.h.h.h.i._ p { N.K.B.z.h.h.h.h.h.h.h.h.h.h.h.h.h.h.h.h.h.h.h.h.h.h.h.h.z.c.J.W.Q.Q.",
"y ! s.h.h.h.h.h.h.h.h.h.h.h.h.h.h.h.h.h.h.h.h.h.h.h.i._ p { N.K.B.z.h.h.h.h.h.h.h.h.h.h.h.h.h.h.h.h.h.h.h.h.h.h.h.h.z.c.J.W.Q.Q.",
"y ! s.h.h.h.h.h.h.h.h.h.h.h.h.h.h.h.h.h.h.h.h.h.h.h.i._ p { N.K.B.z.h.h.h.h.h.h.h.h.h.h.h.h.h.h.h.h.h.h.h.h.h.h.h.h.z.c.J.E.Q.Q.",
"y ! s.h.h.h.h.h.h.h.h.h.h.h.h.h.h.h.h.h.h.h.h.h.h.h.u._ p { N.K.B.z.h.h.h.h.h.h.h.h.h.h.h.h.h.h.h.h.h.h.h.h.h.h.h.h.z.x.F.R.E.E.",
"y ! s.h.h.h.h.h.h.h.h.h.h.h.h.h.h.h.h.h.h.h.h.h.h.h.u._ p { N.K.N.z.h.h.h.h.h.h.h.h.h.h.h.h.h.h.h.h.h.h.h.h.h.h.h.h.j.x.D.Y.Y.Y.",
"y ! s.h.h.h.h.h.h.h.h.h.h.h.h.h.h.h.h.h.h.h.h.h.h.h.i._ p { N.K.B.z.h.h.h.h.h.h.h.h.h.h.h.h.h.h.h.h.h.h.h.h.h.h.h.h.j.x.V.U.Y.Y.",
"y ! s.h.h.h.h.h.h.h.h.h.h.h.h.h.h.h.h.h.h.h.h.h.h.h.i._ p { N.K.N.z.h.h.h.h.h.h.h.h.h.h.h.h.h.h.h.h.h.h.h.h.h.h.h.h.j.x.V.P.I.I.",
"y ! s.h.h.h.h.h.h.h.h.h.h.h.h.h.h.h.h.h.h.h.h.h.h.h.i._ p { N.K.B.z.h.h.h.h.h.h.h.h.h.h.h.h.h.h.h.h.h.h.h.h.h.h.h.h.h.x.N.K.L.L.",
"y ! s.h.s.i.i.i.i.i.i.i.i.i.i.i.i.i.i.i.i.i.i.i.s.f.i._ p { N.K.N.h.h.s.i.i.i.i.i.i.i.i.i.i.i.i.i.i.i.i.i.i.i.i.i.s.h.x.N.K.L.L.",
"y ! s.d.u.| | | | | | | | | | | | | | | | | | | r.d.i._ p { N.K.N.h.s.r.| | | | | | | | | | | | | | | | | | | | | r.s.x.N.K.L.L.",
"y ! s.s.o.' ' ' ' ' ' ' ' ' ' ' ' ' ' ' ' ' ' ] | s.i._ p { N.K.N.h.i.| ' ' ' ' ' ' ' ' ' ' ' ' ' ' ' ' ' ' ' ' ' | i.x.N.K.L.L.",
"y ! i.i.} Y I I I I I I I I I I I I I I I Y Y R [ s.i._ p { N.K.N.h.r._ I I I I I I I I I I I I I I I I I I Y Y R ' u.x.N.K.L.L.",
"y ! i.u._ y y y y y y y y y y y y y y y y y y y Q i.i._ p { N.K.N.h.o.R y y y y y y y y y y y y y y y y y y y y y R o.x.M.K.L.L.",
"y ! i.i.] F F F F F F F F F F F F F F F F F F G _ i.i._ p { N.K.N.h.r.Q F F F F F F F F F F F F F F F F F F F F G ! t.x.N.K.L.L.",
"y ! i.s.| Q Q Q Q Q Q Q Q Q Q Q Q Q Q Q Q Q Q Q } s.i._ p { N.K.N.h.u.[ Q Q Q Q Q Q Q Q Q Q Q Q Q Q Q Q Q Q Q Q Q [ u.x.N.K.L.L.",
"y ! s.s.o.] ] ] ] ] ] ] ] ] ] ] ] ] ] ] ] ] ] ] | s.i._ p { N.K.N.h.i.| ] ] ] ] ] ] ] ] ] ] ] ] ] ] ] ] ] ] ] ] ] | i.x.N.K.L.L.",
"y ! s.f.i.r.r.r.r.r.r.r.r.r.r.r.r.r.r.r.r.r.r.r.u.d.i._ p { N.K.N.h.d.u.r.r.r.r.r.r.r.r.r.r.r.r.r.r.r.r.r.r.r.r.r.u.d.x.N.K.L.L.",
"y ! s.h.h.h.h.h.h.h.h.h.h.h.h.h.h.h.h.h.h.h.h.h.h.h.i._ p { N.K.N.z.h.h.h.h.h.h.h.h.h.h.h.h.h.h.h.h.h.h.h.h.h.h.h.h.h.x.N.K.L.L.",
"y ! s.h.h.h.h.h.h.h.h.h.h.h.h.h.h.h.h.h.h.h.h.h.h.h.i._ p { N.K.B.z.h.h.h.h.h.h.h.h.h.h.h.h.h.h.h.h.h.h.h.h.h.h.h.h.h.x.N.K.L.L.",
"y ! s.h.h.h.h.h.h.h.h.h.h.h.h.h.h.h.h.h.h.h.h.h.h.h.i._ p { N.K.B.z.h.h.h.h.h.h.h.h.h.h.h.h.h.h.h.h.h.h.h.h.h.h.h.h.h.x.N.K.L.L.",
"y ! s.h.h.h.h.h.h.h.h.h.h.h.h.h.h.h.h.h.h.h.h.h.h.h.i._ p { N.K.N.z.h.h.h.h.h.h.h.h.h.h.h.h.h.h.h.h.h.h.h.h.h.h.h.h.h.x.M.K.L.L.",
"y ! s.h.h.h.h.h.h.h.h.h.h.h.h.h.h.h.h.h.h.h.h.h.h.h.i._ p { N.K.N.z.h.h.h.h.h.h.h.h.h.h.h.h.h.h.h.h.h.h.h.h.h.h.h.h.h.x.N.K.L.L.",
"y ! s.h.h.h.h.h.h.h.h.h.h.h.h.h.h.h.h.h.h.h.h.h.h.h.i._ p { N.K.B.z.h.h.h.h.h.h.h.h.h.h.h.h.h.h.h.h.h.h.h.h.h.h.h.h.h.x.N.K.L.L.",
"y ! s.h.h.h.h.h.h.h.h.h.h.h.h.h.h.h.h.h.h.h.h.h.h.h.i._ p { N.K.B.z.h.h.h.h.h.h.h.h.h.h.h.h.h.h.h.h.h.h.h.h.h.h.h.h.h.x.N.K.L.L.",
"y ! s.h.h.h.h.h.h.h.h.h.h.h.h.h.h.h.h.h.h.h.h.h.h.h.i._ p { N.K.B.z.h.h.h.h.h.h.h.h.h.h.h.h.h.h.h.h.h.h.h.h.h.h.h.h.h.x.N.K.L.L.",
"y ! s.h.h.h.h.h.h.h.h.h.h.h.h.h.h.h.h.h.h.h.h.h.h.h.i._ p { N.K.B.z.h.h.h.h.h.h.h.h.h.h.h.h.h.h.h.h.h.h.h.h.h.h.h.h.h.x.N.K.L.L.",
"y ! s.h.h.h.h.h.h.h.h.h.h.h.h.h.h.h.h.h.h.h.h.h.h.h.i._ p { N.K.B.z.h.h.h.h.h.h.h.h.h.h.h.h.h.h.h.h.h.h.h.h.h.h.h.h.h.x.N.K.L.L.",
"y ! s.h.h.h.h.h.h.h.h.h.h.h.h.h.h.h.h.h.h.h.h.h.h.h.u._ p { N.K.B.z.h.h.h.h.h.h.h.h.h.h.h.h.h.h.h.h.h.h.h.h.h.h.h.h.h.x.N.K.L.L.",
"y ! s.h.h.h.h.h.h.h.h.h.h.h.h.h.h.h.h.h.h.h.h.h.h.h.u._ p { N.K.N.z.h.h.h.h.h.h.h.h.h.h.h.h.h.h.h.h.h.h.h.h.h.h.h.h.h.x.M.K.L.L.",
"y ! s.h.h.h.h.h.h.h.h.h.h.h.h.h.h.h.h.h.h.h.h.h.h.h.i._ p { N.K.B.z.h.h.h.h.h.h.h.h.h.h.h.h.h.h.h.h.h.h.h.h.h.h.h.h.h.x.N.K.L.L.",
"y ! s.h.h.h.h.h.h.h.h.h.h.h.h.h.h.h.h.h.h.h.h.h.h.h.i._ p { N.K.N.z.h.h.h.h.h.h.h.h.h.h.h.h.h.h.h.h.h.h.h.h.h.h.h.h.h.x.N.K.L.L.",
"y ! s.h.h.h.h.h.h.h.h.h.h.h.h.h.h.h.h.h.h.h.h.h.h.h.i._ p { N.K.B.z.h.h.h.h.h.h.h.h.h.h.h.h.h.h.h.h.h.h.h.h.h.h.h.h.h.x.N.K.L.L.",
"y ! s.h.h.h.h.h.h.h.h.h.h.h.h.h.h.h.h.h.h.h.h.h.h.h.i._ p { N.K.B.z.h.h.h.h.h.h.h.h.h.h.h.h.h.h.h.h.h.h.h.h.h.h.h.h.h.x.N.K.L.L.",
"y ! i.d.d.d.d.d.d.d.d.d.d.d.d.d.d.d.d.d.d.d.d.d.d.d.r._ p { N.G.M.h.d.d.d.d.d.d.d.d.d.d.d.d.d.d.d.d.d.d.d.d.d.d.d.f.f.h.M.K.L.L.",
"y R | u.u.u.u.u.u.u.u.u.u.u.u.u.u.u.u.u.u.u.u.u.r.t.| Q p ] n.C.c.u.u.u.u.u.u.u.u.u.u.u.u.u.u.u.u.u.u.u.u.u.u.u.u.u.u.i.b.K.L.L.",
"y H [ } } } } } } } } } } } } } } } } } } } } } [ [ ' R p ' c.M.g.| } } } } } } } } } } } } } } } } } } } } } } } } | | k.G.L.L.",
"y H _ [ [ [ [ [ [ [ [ [ [ [ [ [ [ [ [ [ [ [ [ [ [ [ _ Y p ' k.M.d.[ [ [ [ [ [ [ [ [ [ [ [ [ [ [ [ [ [ [ [ [ [ [ [ [ [ | j.G.L.L.",
"y G ! _ _ _ _ _ _ _ _ _ _ _ _ _ _ _ _ _ _ _ _ _ _ _ Q H p _ k.n.i._ _ _ _ _ _ _ _ _ _ _ _ _ _ _ _ _ _ _ _ _ _ _ _ _ ' [ g.G.L.L.",
"y G ! _ _ _ _ _ _ _ _ _ _ _ _ _ _ _ _ _ _ _ _ _ _ _ Q H p ! g.b.i._ _ _ _ _ _ _ _ _ _ _ _ _ _ _ _ _ _ _ _ _ _ _ _ _ _ [ g.G.L.L.",
"y H _ ] ] ] ] ] ] ] ] ] ] ] ] ] ] ] ] ] ] ] ] ] ' ' ! H p Q p.k.y.[ ] ] ] ] ] ] ] ] ] ] ] ] ] ] ] ' ] ] ] ] ] ] ] ] [ } j.G.L.L.",
"y H ] [ [ [ [ [ [ [ [ [ [ [ [ [ [ [ [ [ [ [ [ [ [ [ ' Y u R O.p.t.} [ [ [ [ [ [ [ [ [ [ [ [ [ [ [ [ [ [ [ [ [ [ [ } } | k.G.L.L.",
"y G Q ^ ^ ^ ^ ^ ^ ^ ^ ^ ^ ^ ^ ^ ^ ^ ^ ^ ^ ^ ^ ^ ! ! Q G y P { X.{ _ ^ ^ ^ ^ ^ ^ ^ ^ ^ ^ ^ ^ ^ ^ ^ ^ ^ ^ ^ ^ ^ ^ ^ _ _ ' p.V.D.D.",
"y p F G G G G G G G G G G G G G G G G G G G G G G G D a y a H Y H G G G G G G G G G G G G G G G G G G G G G G G G G G H | l.v.v.",
"y y y y y y y y y y y y y y y y y y y y y y y y y y y y y y y y y y y y y y y y y y y y y y y y y y y y y y y y y y u a ! i.d.d.",
"J J J J J J J J J J J J J J J J J J J J J J J J J J J J J J J J J J J J J J J J J J J J J J J J J J J J J J J J J J J J / e.e.e.",
"0.0.0.0.0.0.0.0.0.0.0.0.0.0.0.0.0.0.0.0.0.0.0.0.0.0.0.0.0.0.0.0.0.0.0.0.0.0.0.0.0.0.0.0.0.0.0.0.0.0.0.0.0.0.0.0.0.0.0.0.q.w.w.w.",
"q.q.q.q.q.q.q.q.q.q.q.q.q.q.q.q.q.q.q.q.q.q.q.q.q.q.q.q.q.q.q.q.q.q.q.q.q.q.q.q.q.q.q.q.q.q.q.q.q.q.q.q.q.q.q.q.q.q.q.q.q.q.q.q.",
"q.q.q.q.q.q.q.q.q.q.q.q.q.q.q.q.q.q.q.q.q.q.q.q.q.q.q.q.q.q.q.q.q.q.q.q.q.q.q.q.q.q.q.q.q.q.q.q.q.q.q.q.q.q.q.q.q.q.q.q.q.q.q.q."
};
