/* XPM */
static char *_9824aa2b197408d8297d938f35fafeahIwT6v8qXU4EafwW[] = {
/* columns rows colors chars-per-pixel */
"64 64 14 1 ",
"  c #3E6E1D",
". c #3F701E",
"X c #40731F",
"o c #42771F",
"O c #417620",
"+ c #437820",
"@ c #447A21",
"# c #457C21",
"$ c #478022",
"% c #488222",
"& c #4A8623",
"* c #4B8724",
"= c #4B8824",
"- c #4C8924",
/* pixels */
"o#&&%&&+*$&-&&=&#&&-%-&#%$&%#--#o#&&%&&+*$&-&&=&#&&-%-&#%$&%#--#",
"&.+$#.oO#&$#@#+.o@@$+o.+%*&@O#*-&.+$#.oO#&$#@#+.o@@$+o.+%*&@O#*-",
"*&#%+..O#+%&##X.O&#++#%**-%O @%#*&#%+..O#+%%##X.O&#++#%**-%O @%#",
"##%*&%*#o----&%#&-----&##$#&#$$&##%*&%*#o----&%#&-----&##$#&#$$&",
"&+O$-&%%#&=&@&--------=OO+.$-&+&&OO$-&%%#&=%@&--------=OO+.$-&+&",
"#o+#@+OOXOO$-%$O++#%*--+@+.@-*.o#X+#@+OOXOO$-%$O++#%*--+@+.@-*.o",
"@.-O........#@&=#Xo.------%--$.#@.-O........#@&=#Xo.------%--$.#",
"&.@o.......X#-*--&&%---=#$OO-$#*&.@o.......X#-*--&&%---=#$OO-$#*",
"#.&&&Oo##$*-*-#-&&#---@#&#..$#%-#.&&&Oo##$*-*-#-&&#---@#&#..$#%-",
"-O%--#o&-=@---*-$=#=--#*-&.+&%$%-O%--#o&-=@---*-$=#=--#*-&.+&%$%",
"+#O&--+X#-#-.=&%--&&------*--&#%+#O&--+X#-#-.=&%--&&------*--&#%",
"$%&*-%-@$%$%*-+.$-& %&&--###&@&-$%&*-%-@$%$%*-+.$-& %&&--###&@&-",
"&%=%-&=--&=%-*OXoO$O%*##-&%%-&--&%=%-&=--&=%-*OXoO$O%*##-&%%-&--",
"&&OO-*&&O.O&-*O..+#@++@#----*&--&&OO-*&&O.O&-*O..+#@++@#----*&--",
"$&XOOO#Oo@.#---*&&=-----$-#&O.*-$&XOOO#Oo@.#---*&&=-----$-#&O.*-",
"&&&#+@+++#.#-&=&@$&*=-###-o#@@X=&&&#+@+++#.#-&=&@$&*=-###-o#@@X=",
"-$--*%$+..X&&$&*=-&$&%-------*#--$--*%$+..X&&$&*=-&$&%-------*#-",
"&%-%&&--*%*--@O&%#&-$$###$##*---&%-%&&--*%*--@O&%#&-$$###$##*---",
"%-$&*&%----&=%#..X%=O@O@@@Oo#%$*%-$&*&%----&=%#..X%=O@O@@@Oo#%$*",
"-%$&$@@@#%--#+#@#--&.oOo...#&$%$-%$&$@@@#%--#+#@#--&.oOo...#&$%$",
"$%&#O+%$#X&#*-&&**%-O....Oo%-X-*$%&#O+%$#X&#*-&&**%-O....Oo%-X-*",
"&&%X..&--**#-----=%-&O.o###%#&--&&%X..&--**#-----=%-&O.o###%#&--",
"&*-=%#-$##&--%=-&O&*--&-&--=@&&*&*-=%#-$##&--%=-&O&*--&-&--=@&&*",
"$#%-&-=%$#-=&*$O&@&O-*&---&#%#%X$#%-&-=%$#-=&*$O&@&O-*&---&#%#%X",
"$=*# %-&.o$&#O#%---$&---o-&$-##$$=*# %-&.o$&#O#%---$&---o-&$-##$",
"=%-&&#%&.##o#&--$ @*%--- -&-%--*=%-&&#%&.##o#&--$ @*%--- -&-%--*",
"%%##%&#&@+-%&$$@$-&++&--#--&.#--%%##%&#&@+-%&$$@$-&++&--#--&.#--",
"%@##-----#O=#*&%%&O+##--%-%#+-%%%@##-----#O=#*&%%&O+##--%-%#+-%%",
"%O+#=%--=$%----%&% =#@##+--%$-#+%O+#=&--=$%----%&% =#@##+--%$-#+",
"&@..O#--#@O%=#+#-&+&&&++&*#%&-&%&@..O#--#@O%=#+#-&+&&&++&*#%&-&%",
"&+O##@+%%#%#@@#%&%--=-&%&#@%%%+&&+O##@+%%#%#@@#%&%--=-&%&#@%%%+&",
"%%$&&$%#%%%#--%*#&%-%%-#%*o%@#+&%%$&&$%#%%%#--%*#&%-%%-#%*o%@#+&",
"o#&&%&&+*$&-&&=&#&&-%-&#%$&%#--#o#&&%&&+*$&-&&=&#&&-%-&#%$&%#--#",
"&.+$#.oO#&$#@#+.o@@$+o.+%*&@O#*-&.+$#.oO#&$#@#+.o@@$+o.+%*&@O#*-",
"*&#%+..O#+%%##X.O&#++#%**-%O @%#*&#%+..O#+%%##X.O&#++#%**-%O @%#",
"##%*&%=#o----&%#&-----&##$#&#$$&##%*&%=#o----&%#&-----&##$#&#$$&",
"&OO$-&%%#&=%@&--------=OO+.$-&+&&OO$-&%%#&=%@&--------=OO+.$-&+&",
"#X+#@+OOXOO$-%$O++#%*--+@+.@-*.o#X+#@+OOXOO$-%$O++#%*--+@+.@-*.o",
"@.-O........#@&=#Xo.------%--$.#@.-O........#@&=#Xo.------%--$.#",
"&.@o.......X#-*--&&%---=#$OO-$#*&.@o.......X#-*--&&%---=#$OO-$#*",
"#.&&&Oo##$*-*-#-&&#---@#&#..$#%-#.&&&Oo##$*-*-#-&&#---@#&#..$#%-",
"-O%--#o&-=@---*-$=#=--#*-&.+&%$%-O%--#o&-=@---*-$=#=--#*-&.+&%$%",
"+#O&--+X#-#-.=&%--&&------*--&#%+#O&--+X#-#-.=&%--&&------*--&#%",
"$%&*-%-@$%$%*-+.$-& %&&--###&@&-$%&*-%-@$%$%*-+.$-& %&&--###&@&-",
"&%=%-&=--&=%-*OXoO$O%*##-&%%-&--&%=%-&=--&=%-*OXoO$O%*##-&%%-&--",
"&&OO-*&&O.O&-*O..+#@++@#----*&--&&OO-*&&O.O&-*O..+#@++@#----*&--",
"$&XOOO#Oo@.#---*&&=-----$-#&O.*-$&XOOO#Oo@.#---*&&=-----$-#&O.*-",
"&&&#+@+++#.#-&=&@$&*=-###-o#@@X=&&&#+@+++#.#-&=&@$&*=-###-o#@@X=",
"-$--*%$+..X&&$&*=-&$&%-------*#--$--*%$+..X&&$&*=-&$&%-------*#-",
"&%-%&&--*%*--@O&%#&-$$###$##*---&%-%&&--*%*--@O&%#&-$$###$##*---",
"%-$&*&%----&=%#..X%=O@O@@@Oo#%$*%-$&*&%----&=%#..X%=O@O@@@Oo#%$*",
"-%$&$@@@#%--#+#@#--&.oOo...#&$%$-%$&$@@@#%--#+#@#--&.oOo...#&$%$",
"$%&#O+%$#X&#*-&&**%-O....Oo%-X-*$%&#O+%$#X&#*-&&**%-O....Oo%-X-*",
"&&%X..&--**#-----=%-&O.o###%#&--&&%X..&--**#-----=%-&O.o###%#&--",
"&*-=%#-$##&--%=-&O&*--&-&--=@&&*&*-=%#-$##&--%=-&O&*--&-&--=@&&*",
"$#%-&-=%$#-=&*$O&@&O-*&---&#%#%X$#%-&-=%$#-=&*$O&@&O-*&---&#%#%X",
"$=*# %-&.o$&#O#%---$&---o-&$-##$$=*# %-&.o$&#O#%---$&---o-&$-##$",
"=%-&&#%&.##o#&--$ @*%--- -&-%--*=%-&&#%&.##o#&--$ @*%--- -&-%--*",
"%%##%&#&@+-%&$$@$-&++&--#--&.#--%%##%&#&@+-%&$$@$-&++&--#--&.#--",
"%@##-----#O=#*&%%&O+##--%-%#+-%%%@##-----#O=#*&%%&O+##--%-%#+-%%",
"%O+#=%--=$%----%&% =#@##+--%$-#+%O+#=%--=$%----%&% =#@##+--%$-#+",
"&@..O#--#@O%=#+#-&+&&&++&*#%&-&%&@..O#--#@O%=#+#-&+&&&++&*#%&-&%",
"&+O##@+%%#%#@@#%&%--=-&%&#@%%%+&&+O##@+%%#%#@@#%&%--=-&%&#@%%%+&",
"%%$&&$%#%%%#--%=#&%-%%-#%*o%@#+&%%$&&$%#%%%#--%=#&%-%%-#%*o%@#+&"
};
