/* XPM */
static char *d08fee1a81d04095c421c30fe2094756TWHkRtyUOz1BE6B4[] = {
/* columns rows colors chars-per-pixel */
"64 64 113 2 ",
"   c #000201",
".  c #080000",
"X  c #000A06",
"o  c #080A05",
"O  c #080F08",
"+  c #100602",
"@  c #140903",
"#  c #1B0E04",
"$  c #07160C",
"%  c #071A0E",
"&  c #1D1005",
"*  c #001F11",
"=  c #231406",
"-  c #271807",
";  c #291907",
":  c #2C1C09",
">  c #301F09",
",  c #022414",
"<  c #072917",
"1  c #042C19",
"2  c #04331C",
"3  c #03391F",
"4  c #35220A",
"5  c #3A260B",
"6  c #3E290D",
"7  c #023E22",
"8  c #432D0D",
"9  c #47300F",
"0  c #49310F",
"q  c #4E3510",
"w  c #513711",
"e  c #543A12",
"r  c #593E13",
"t  c #3E6E1D",
"y  c #3F721F",
"u  c #044325",
"i  c #004827",
"p  c #034D2A",
"a  c #01532E",
"s  c #005730",
"d  c #025C33",
"f  c #036337",
"g  c #016538",
"h  c #026C3C",
"j  c #01713E",
"k  c #5D4114",
"l  c #624515",
"z  c #674916",
"x  c #6B4C17",
"c  c #6E4E18",
"v  c #735219",
"b  c #79571A",
"n  c #7C591B",
"m  c #41741F",
"M  c #417620",
"N  c #457C21",
"B  c #017541",
"V  c #027C45",
"C  c #815D1C",
"Z  c #87611E",
"A  c #8A631E",
"S  c #8F6720",
"D  c #946B20",
"F  c #986E22",
"G  c #9D7123",
"H  c #A07423",
"J  c #A77A25",
"K  c #AC7D27",
"L  c #478022",
"P  c #498423",
"I  c #4C8924",
"U  c #028147",
"Y  c #028348",
"T  c #048349",
"R  c #01854A",
"E  c #048549",
"W  c #01894B",
"Q  c #01894C",
"!  c #038C4D",
"~  c #018F50",
"^  c #029050",
"/  c #029553",
"(  c #029B56",
")  c #019D56",
"_  c #01A35A",
"`  c #01A45B",
"'  c #00A65C",
"]  c #01A85D",
"[  c #01AE60",
"{  c #01B363",
"}  c #02B765",
"|  c #01BA67",
" . c #02BC67",
".. c #01BD69",
"X. c #01C16B",
"o. c #01C36C",
"O. c #01C56D",
"+. c #01C86E",
"@. c #01CB70",
"#. c #01CF72",
"$. c #01D073",
"%. c #01D174",
"&. c #01D978",
"*. c #BB8929",
"=. c #C5902C",
"-. c #C8932C",
";. c #D29A2F",
":. c #D69D30",
">. c #E3A733",
",. c #E7AA34",
"<. c #EEAF35",
"1. c #F3B337",
"2. c #F7B638",
/* pixels */
"m N P P L P P M I L P I P P I P N P P I L I P N L L P L N I I N m N P P L P P M I L P I P P I P N P P I L I P N L L P L N I I N ",
"P y M L N y m M N P L N N N M y m N N L M m y M L I P N M N I I P y M L L y m M N P L N N N M y m N N L M m y M L I P N M N I I ",
"I P N L M y y M N M L L N N m y M P N M M N L I I I L M t N L N I P N L M y y M N M L L N N m y M P N M M N L I I I L M t N L N ",
"N N L I P L I N m I I I I P L N P I I I I I P N N L N P N L L P N N L I P L I N m I I I I P L N P I I I I I P N N L N P N L L P ",
"P M M L I P L L N P I L N P I I I I I I I I I M M M y L I P M P P M M L I P L L N P I L N P I I I I I I I I I M M M y L I P M P ",
"N m M N N M M M m M M L I L L M M M N L I I I M N M y N I I y m N m M N N M M M m M M L I L L M M M N L I I I M N M y N I I y m ",
"N y I M y y y y y y y y N N P I N m m y I I I I I I L I I L y N N y I M y y y y y y y y N N P I N m m y I I I I I I L I I L y N ",
"P y N m y y y y y y y m N I I I I P P L I I I I N L M M I L N I P y N m y y y y y y y m N I I I I P P L I I I I N L M M I L N I ",
"N y P P P M m N N L I I I I N I P P N I I I N N P N y y L N L I N y P P P M m N N L I I I I N I P I L I I I N N P N y y L N L I ",
"I M L I I N m P I I N I I I I I L I N I I I N I I P y M P L L L I M L I I N m P I I N I I I I I L I N I I I N I I P y M P L L L ",
"M N M P I I M m N I N I m I P L I I P P I I I I I I I I I P N L N N M P I I M m N I N I y I P L I I P P I I I I I I I I I P N L ",
"L L P I I L I N L L L L I I M y L I P t L P P I I N N N P N P I L L P I I L I N L L L L I I M y L I P t L P P I I N N N P N P I ",
"P L I L I P I I I P I L I I M m m M L M L I N N I P L L I P I I P L I L I P I I I P I L I I M m m M L M L I N N I P L L I P I I ",
"P P M M I I P P . . . . o % 3 d h h h h h h h h h h h h h h h h h h h h h h h h h h h d u < O . . . . . M M N N I I I I I P I I ",
"L P m M M M N M . . . . o < d ! / ^ / } |  . . . . . . . . . . . . . . . . . . . . . ._ V u $ . . . . . I I I I L I N P M y I I ",
"P P P N M N M M . . . . o 2 f ^ / R ! #.#.+.o...+.$.#.+.| [ [ [ [ [ [ [ [ [ [ [ [ { | ] E p % . . . . . I I N N N I m N N N m I ",
"I L I I I L L M . . . . o 2 d R R h V #.@.X.} ` ..#.#..._ Q R R R R R R R R R W W ! ) ( E p % . . . . . P L I I I I I I I I N I ",
"P L I L P P I I . . . . o 2 d V V f j #.O.| ] ^ } @.+.} ! j h h h h h h h h h h h B Q ^ T p % . . . . . L L N N N L N N I I I I ",
"L I L P I P L I . . . . o 2 d V V d h O...{ _ ^ { o.X.[ Q h h h h h h h h h h h h B Q ^ T p % . . . . . M N M N N N M m N L L I ",
"I L L P L N N N . . . . o 2 d V j p i R R Y V V Y W R Y B h h h h h h h h h h h h B Q ^ T p % . . . . . y m M m y y y N P L L L ",
"L L P N M M L L . . . . o 2 d V h i 3 g f f g h j j h g s a a a a a s d g h h h g h V R U p % . . . . . M y y y y M m L I m I I ",
"P P L m y y P I . . . . o 2 d V h i 2 p i i i h h h f a 3 , * * * , 2 i d h h g s s s j V p % . . . . . P M y m N N N L N P I I ",
"P I I I L N I L . . . . o 2 d V B p 7 d i i a ! / ! V f 1         X , i j / / Y h s p g V p % . . . . . I I P I P I I I N P P I ",
"L N L I P I I L . . . . o 2 d V V d s R h f B O.%.+.{ ! u X       X 3 h _ %.%.} / V s g V p % . . . . . I I P I I I P N P N L m ",
"L I I N t L I P . . . . o 2 d V V d d Q h g V #.&.#.} ^ u X       X 3 h ' &.&...( V s g V p % . . . . . P I I I m I I L I N N L ",
"I L I P P N P P . . . . o 2 d V V d d Q h g V #.&.#.} ^ u X       X 3 h ' &.&...( V s g V p % . . . . . L I I I y I P I L I I I ",
"L L N N L P N P . . . . o 2 d V V d d Q h g V #.&.#.} ^ u X       X 3 h ' &.&...( V s g V p % . . . . . M P I I N I I P y N I I ",
"L N N N I I I I . . . . o 2 d V V d s Q h g V #.&.#.} ^ u X       X 3 h ' &.&...( V s g V p % . . . . . N N I I L I L N M I L L ",
"L M M N I L I I . . . . o 2 d V V d s Y h d j X.@.X.] R 7         X 3 h ) #.#.{ ^ V a g V p % . . . . . N N N N M I I L L I N M ",
"P N y y M N I I . . . . o 2 d V B a i h a p d ) ` ) Q h 2         X 1 a U ` ` ^ V g a g V p % . . . . . P P M M P I N L P I P L ",
"P M M N N N M L . . . . o 2 d V j i 2 i 7 3 u h j h f p , X X X X X , 7 s j j f a p p g V p % . . . . . I I P L P N N P L L M P ",
"L L L P P L L N . . . . o 2 f / ~ j s f d d d h h h h f s a p p p a s d g h h h g h B R T p % . . . . . L L I N L I m L N N M P ",
"m N P P L P P M . . . . o < a Y R V h h h h h h h h h h h h h h h h h h h h h h h j V V h 7 $ . . . . . L I P N L L P L N I I N ",
"P y M L N y m M . . . . o % 7 f h g f f f f f f f f f f f f f f f f f f f f f f f g h f p < O . . . . . M m y M L I P N M N I I ",
"I I N L M y y M . . . . . O , 3 u u u u u u u u u u u u u u u u u u u u u u u u u u u 3 < % o . . . . . M N L I I I L M t N L N ",
"N L L I P L I N . . . . . . . . . . . . . . . . . . . . . . . . . . . . . . . . . . . . . . . . . . . . I I P N N L N P N L L P ",
"P M M L I P L L . . . . . . . . . . . . . . . . . . . . . . . . . . . . . . . . . . . . . . . . . . . . I I I M M M y L I P M P ",
"N m M N N M M M . . . . . . . . . . . . . . . . . . . . . . . . . . . . . . . . . . @ & ; : : ; = + . . I I I M N M y N I I y m ",
"N y I M y y y y . . . . . . . . . . . . . . . . . . . . . . . . . . . . . . . . . + = 8 k z l r 8 = + . I I I I I I L I I L y N ",
"P y N m y y y y . . . . . . . . . . . . . . . . . . . . . . . . . . . . . . . . . @ 4 x H K J D v 4 @ . I I I I N L M M I L N I ",
"N y P P P M m N . . . . . . . . . . . . . . . + . . . . . . . . . . . . . . . . . # 0 D >.1.<.;.G 9 # . I I N N P N y y L N L I ",
"I M L I I N m P . . . # - 4 : @ . . . . @ = : 5 = . . . @ - 4 4 & . . . . . . . . & 0 F ,.2.1.:.H 0 # . I I N I I P y M P L L L ",
"M N M P I I M m . . @ - 5 e 0 # . . . . & > 8 k 4 @ . . = 5 w w : . . . . . . . . & 0 F ,.2.1.:.H 0 # . I I I I I I I I I P N L ",
"L L P I I L I N . . # 4 e n x - . . . . ; 8 z A 0 # . . : e b v 8 . . . . . . . . & 0 F ,.2.1.:.H 0 # . L P P I I N N N P N P I ",
"P L I L I P I I . . & 6 l S b ; . . . . : q v H e # . . 4 l A Z q . . . . . . . . & 0 F ,.2.1.:.H 0 # . L I N N I P L L I P I I ",
"P P M M I I P P . . & 6 l S b ; . . . . ; 0 c G r = + @ 5 z A C 0 . . . . . . . . & 0 F ,.2.1.:.H 0 # . M M N L I I I I I P I I ",
"L P m M M M N M . . & 6 l S n ; + . . . = 6 k A l 6 : - 0 c v x 5 . . . . . . . . & 0 F ,.2.1.:.H 0 # . I I I I L I N P M y I I ",
"P P P N M N M M . . & 6 l D C 4 # @ @ + & : 0 v x e 0 6 k v l q ; . + . . . . . . & 0 F ,.2.1.:.H 0 # . I I N N N I m N N N m I ",
"I L I I I L L M . . & 6 z H J v z k r 8 : = - 8 k c v x z r 4 - = ; 5 : # . . . . & 0 F ,.2.1.:.H 0 # . P L I I I I I I I I N I ",
"P L I L P P I I . . # 4 e S H A C n v r 4 # + = 8 r z x w 4 # @ & 4 q 6 = . . . . # 6 n *.-.=.K C 5 # . L L N N N L N N I I I I ",
"L I L P I P L I . . @ ; 8 v A C C C v k 4 # . . - 6 q r 5 @ . + = 4 w 6 - . . . . @ : k A D D C l : @ . M N M N N N M m N L L I ",
"I L L P L N N N . . @ - 5 z C C C C v k 4 # . . & 4 8 w : . . . = 4 w 8 - . . . . @ ; w b C n v e ; @ . y m M m y y y N P L L L ",
"L L P N M M L L N m P N I I P P I I L I M y y y y M m L I m I I L L P N M M L L N m P N I I P P I I L I M y y y y M m L I m I I ",
"P P L m y y P I I I I N I I I I I I L I P M y m N N N L N P I I P P L m y y P I I I I N I I I I I I L I P M y m N N N L N P I I ",
"P I I I L N I L N N P I I L I I P M P I I I P I P I I I N P P I P I I I L N I L N N P I I L I I P M P I I I P I P I I I N P P I ",
"L N L I P I I L L N I I P I L M P N P M I I P I I I P N L N L m L N L I P I I L L N I I P I L M P N P M I I P I I I P N L N L m ",
"L I I N t L I P y m L P N M N L I I I L P I I I m I I L I N N L L I I N t L I P y m L P N M N L I I I L P I I I m I I L I N N L ",
"I L I P P N L P y N N m N P I I L t N I P I I I t I P I P I I I I L I P P N L P y N N m N P I I L t N I P I I I t I P I P I I I ",
"L L L N L P N P N M I L P L L N L I P M M P I I N I I P y L I I L L L N L P N P N M I L P L L N L I P M M P I I N I I P y L I I ",
"L N N N I I I I I N M I N I P L L P M M N N I I L I L N M I P L L N N N I I I I I N M I N I P L L P M M N N I I L I L N M I P L ",
"L M M N I L I I I L L I I I I L P L t I N N N N M I I L L I N M L M M N I L I I I L L I I I I L P L t I N N N N M I I L L I N M ",
"P N y y M N I I N N M L I N M N I P M P P P M M P I N L P I P L P N y y M N I I N N M L I N M N I P M P P P M M P I N L P I P L ",
"P M M N N N M L L N L N N N L L P L I I I I P L P N N L L P M P P M M N N N M L L N L N N N L L P L I I I I P L P N N L L P M P ",
"L L L P P L L N L L L N I I L I N P L I L L I N L I m L N N M P L L L P P L L N L L L N I I L I N P L I L L I N L I m L N N M P "
};
