/* XPM */
static char *f8e121b1389a4dc7b7902a34548b8eceSfEYHIBzUiMidg5p[] = {
/* columns rows colors chars-per-pixel */
"64 64 190 2 ",
"   c #010202",
".  c #080700",
"X  c #0E0C00",
"o  c #020708",
"O  c #030A0C",
"+  c #090D0E",
"@  c #110F00",
"#  c #0B100E",
"$  c #171400",
"%  c #1E1A00",
"&  c #1A1B0C",
"*  c #030E11",
"=  c #090E11",
"-  c #051116",
";  c #06161B",
":  c #0A1519",
">  c #07181E",
",  c #221E00",
"<  c #1A231C",
"1  c #2A2502",
"2  c #322B00",
"3  c #3A3300",
"4  c #3A380E",
"5  c #071A20",
"6  c #091D24",
"7  c #0C2027",
"8  c #0B232B",
"9  c #132329",
"0  c #0C2631",
"q  c #0D2A35",
"w  c #0E2D39",
"e  c #102730",
"r  c #102831",
"t  c #1B2D36",
"y  c #1B2E39",
"u  c #0F303C",
"i  c #1D323C",
"p  c #243538",
"a  c #433B00",
"s  c #4A3E00",
"d  c #38432C",
"f  c #544902",
"g  c #5D560C",
"h  c #625500",
"j  c #645800",
"k  c #6D5C00",
"l  c #766900",
"z  c #786B03",
"x  c #7E7500",
"c  c #455236",
"v  c #556136",
"b  c #636B30",
"n  c #1E3744",
"m  c #1F3C4A",
"M  c #243A44",
"N  c #19475A",
"B  c #1C4B5F",
"V  c #294A5B",
"C  c #365352",
"Z  c #1C4D61",
"A  c #1F5065",
"S  c #245469",
"D  c #22556C",
"F  c #31566B",
"G  c #355969",
"H  c #33596D",
"J  c #265C73",
"K  c #285E76",
"L  c #335A70",
"P  c #3E626A",
"I  c #286077",
"U  c #2C637B",
"Y  c #396379",
"T  c #476967",
"R  c #4C6E6A",
"E  c #446577",
"W  c #887700",
"Q  c #817800",
"!  c #7B8235",
"~  c #928300",
"^  c #9B8D00",
"/  c #978908",
"(  c #A79200",
")  c #B79E00",
"_  c #BAA805",
"`  c #8C9336",
"'  c #C3A900",
"]  c #C7B503",
"[  c #C6BE00",
"{  c #CCBA00",
"}  c #D4C500",
"|  c #D4CB00",
" . c #DBCA0E",
".. c #D9D200",
"X. c #DED600",
"o. c #DFD800",
"O. c #E8D800",
"+. c #F2DA00",
"@. c #EDE400",
"#. c #EFEB00",
"$. c #F4E300",
"%. c #F9E600",
"&. c #F2EC00",
"*. c #F9ED00",
"=. c #F4F100",
"-. c #FAF500",
";. c #FCFA00",
":. c #2D6682",
">. c #2F6984",
",. c #326A84",
"<. c #336E8A",
"1. c #387087",
"2. c #35718D",
"3. c #3C748C",
"4. c #3B7692",
"5. c #3F7891",
"6. c #3D7D9C",
"7. c #497287",
"8. c #507589",
"9. c #427B97",
"0. c #447E9B",
"q. c #3D809C",
"w. c #3F81A1",
"e. c #45829E",
"r. c #4285A6",
"t. c #4488A7",
"y. c #4E88A3",
"u. c #4487AA",
"i. c #4589AA",
"p. c #498EAD",
"a. c #548EA8",
"s. c #4890AF",
"d. c #5A96AE",
"f. c #498FB1",
"g. c #4D95B5",
"h. c #4E98B8",
"j. c #5096B5",
"k. c #539BBB",
"l. c #5AA2BF",
"z. c #6FA7B6",
"x. c #559FC2",
"c. c #56A1C1",
"v. c #5BA4C4",
"b. c #5DA7C9",
"n. c #5CAACB",
"m. c #63A8C5",
"M. c #62ACCC",
"N. c #77B3CB",
"B. c #63AFD1",
"V. c #68AFD0",
"C. c #63B0D2",
"Z. c #69B4D5",
"A. c #69B6D9",
"S. c #6DBBDD",
"D. c #70B7D5",
"F. c #72BBDA",
"G. c #6FBEE1",
"H. c #71BEE1",
"J. c #74C2E5",
"K. c #7BC7E6",
"L. c #7BCBED",
"P. c #7ECEF0",
"I. c #84C5DA",
"U. c #8CCDDF",
"Y. c #81C9E5",
"T. c #80CEEC",
"R. c #87D2ED",
"E. c #95D5E7",
"W. c #82CFF1",
"Q. c #83D3F4",
"!. c #89D7F4",
"~. c #8BD9F7",
"^. c #8EDEFB",
"/. c #95DDF5",
"(. c #A6DAE2",
"). c #AFDCE3",
"_. c #9CE1F4",
"`. c #93E3FF",
"'. c #98E6FF",
"]. c #9DE9FF",
"[. c #A3E6F5",
"{. c #AEEBF6",
"}. c #A5EEFF",
"|. c #ABECFA",
" X c #AEF1FE",
".X c #B1F3FF",
"XX c #BBF4FD",
"oX c #C6F6FB",
"OX c #CDFCFF",
"+X c #D0F8FA",
/* pixels */
"            O * * * * * O O o       @ 1 f j k k k k h s 1 X               . $ 2 f a , .       o O * * * * * O O             o o ",
"          O - ; ; ; ; ; ; - O     . % f ( ' ' ' _ ' ) W f $               X 2 j ( Q a X     o O ; ; ; ; > > ; * o             o ",
"        o * 5 8 8 6 6 8 8 5 * o   X 2 z X.&.$.+.O.$.$.] z 1 .             $ a ^ O._ j $     o - 6 8 8 6 6 8 8 > O           o o ",
"        o ; 8 q q 8 8 q w 8 ; o   @ a ^ #.;.;.-.*.;.;.O.^ 3 .           . , h ] &.| x ,     O > q w q 8 0 q w 8 - o         o o ",
"        o ; 0 w q 8 8 q w 8 ; o . @ a ^ &.;.@.} { @.-.O.^ 3 .           . , j { =...Q ,     O 5 q u q 8 8 q w 8 - o         o o ",
"        o ; 0 w q 8 8 q q 8 ; o   @ a ^ #.;.} ^ W | &.X.^ 3 .           . , j { =...Q ,     O 5 q w 0 8 8 q w 8 - o         o o ",
"        o ; 0 w q 8 8 q q 8 ; o . @ a ^ #.;.[ W l [ #.X.^ 3 .           . , j { =...Q ,     O 5 q w 0 8 8 q w 8 - o           o ",
"        o ; 0 w q 8 8 q w 8 ; o . @ a ^ #.;.[ W l [ #.X.^ 3 .           . , j { =...Q ,     O 5 q u q 8 0 w w 8 - o           o ",
"        o ; 0 w q 8 8 q w 8 ; o . @ a ^ #.;.| ( ~ | =.X.^ 3 .           . , j { =...Q ,     O 5 q u q 8 0 q w 8 - o         o o ",
"        o ; 8 q q 8 8 q q 8 ; o   @ a ^ #.;.@.} { @.-.o.^ 3 .           . , h { =...Q ,     O 5 q w 0 8 8 q w 8 - o         o o ",
"        o - 8 0 0 8 6 8 q 8 - o   X 3 ~ #.;.*.+.O.*.;...~ 2 .           . % f _ &.| z %     O ; 8 q 8 8 8 0 q 6 - o         o o ",
"        o * 5 8 8 8 7 8 8 5 *     X 2 l ..%.%.$.+.%.$.] l 1 .           . $ a ~ .._ j $     o - 6 8 8 8 8 8 8 ; O           o o ",
"o O + = = : 7 e r r r r 8 7 : = + # 1 g _  . . . . .] / g & + + = = = + # & 4 z _ / f & + + - > 8 e r r r 0 8 6 : = + + + = = - ",
"9 e t t y i n m m m m m m n i y t p p c ! ` ` ` ` ` ! b d < 9 p M M p y y p d v ! b c p t t y n n m m m m m m n i t t t t y i M ",
"M V F F F F H H L L L L H H F F F F G P T R R R R R T C M i V E 8.8.Y H F F G P T T G F F F F H H H H L L H H H F F F F F H L Y ",
"J 3.9.0.0.0.0.0.0.0.0.0.0.0.0.0.0.0.0.0.0.0.0.0.0.9.3.Y S V 7.z.N.N.d.e.0.0.0.0.0.0.0.0.0.0.0.0.0.0.0.0.0.0.0.0.0.0.0.0.0.e.y.a.",
"<.t.g.h.h.h.h.h.h.h.h.h.h.h.h.h.h.j.j.j.h.h.h.h.h.h.i.4.U U a.I._.E.D.k.h.h.h.h.h.h.h.h.h.h.h.h.h.h.h.h.h.h.h.h.h.h.h.h.j.k.l.m.",
"2.r.g.g.h.g.h.h.h.g.g.g.h.h.h.h.h.h.h.h.h.h.h.h.g.g.i.4.:.U d.U.[./.F.k.h.h.g.h.g.g.h.h.h.h.h.h.h.h.g.g.h.g.h.h.h.h.h.h.h.k.l.m.",
"<.r.p.p.f.f.f.f.f.f.f.f.f.f.f.f.f.f.f.f.f.f.f.f.p.p.r.4.U U d.U.[./.Z.h.g.f.f.f.f.f.f.f.f.f.f.f.f.f.f.f.f.f.f.f.f.f.f.f.g.j.k.b.",
"6.k.v.b.b.b.b.b.b.b.b.b.b.b.b.b.b.b.b.b.b.b.b.b.b.b.k.t.2.,.d.E.{.[.Y.M.b.b.b.b.b.b.b.b.b.b.b.b.b.b.b.b.b.b.b.b.b.b.b.b.M.M.Z.F.",
"k.F.L.W.Q.Q.Q.Q.Q.Q.Q.Q.Q.Q.Q.Q.Q.Q.Q.Q.Q.Q.Q.Q.Q.P.J.b.r.3.z.(.oXoX[.Q.Q.Q.Q.Q.Q.Q.Q.Q.Q.Q.Q.Q.Q.Q.Q.Q.Q.Q.Q.Q.Q.Q.Q.Q.Q.Q.~./.",
"v.L.^.`.`.`.`.`.`.`.`.`.`.`.`.`.`.`.`.`.`.`.`.`.`.^.Q.Z.p.9.z.).+XOX.X`.`.`.`.`.`.`.`.`.`.`.`.`.`.`.`.`.`.`.`.`.`.`.`.`.`.`.].}.",
"b.T.^.`.`.`.`.`.`.`.`.`.`.`.`.`.`.`.`.`.`.`.`.`.`.`.Q.Z.p.5.z.).+XOX.X'.`.`.`.`.`.`.`.`.`.`.`.`.`.`.`.`.`.`.`.`.`.`.`.`.`.'.].}.",
"b.T.^.`.`.`.`.`.`.`.`.`.`.`.`.`.`.`.`.`.`.`.`.`.`.`.Q.Z.p.5.z.).+XOX.X'.`.`.`.`.`.`.`.`.`.`.`.`.`.`.`.`.`.`.`.`.`.`.`.`.`.'.}.}.",
"b.T.^.`.`.`.`.`.`.`.`.`.`.`.`.`.`.`.`.`.`.`.`.`.`.`.Q.Z.p.5.z.).+XOX.X'.`.`.`.`.`.`.`.`.`.`.`.`.`.`.`.`.`.`.`.`.`.`.`.`.`.'.].}.",
"b.T.^.`.`.`.`.`.`.`.`.`.`.`.`.`.`.`.`.`.`.`.`.`.`.`.Q.Z.p.5.z.).+XOX.X'.`.`.`.`.`.`.`.`.`.`.`.`.`.`.`.`.`.`.`.`.`.`.`.`.`.'.].}.",
"b.T.^.`.`.`.`.`.`.`.`.`.`.`.`.`.`.`.`.`.`.`.`.`.`.`.Q.Z.p.5.z.).+XOX.X'.`.`.`.`.`.`.`.`.`.`.`.`.`.`.`.`.`.`.`.`.`.`.`.`.`.'.].}.",
"v.T.^.`.`.`.`.`.`.`.`.`.`.`.`.`.`.`.`.`.`.`.`.`.`.`.Q.Z.p.5.z.).+XOX.X'.`.`.`.`.`.`.`.`.`.`.`.`.`.`.`.`.`.`.`.`.`.`.`.`.`.'.].}.",
"b.T.^.`.`.`.`.`.`.`.`.`.`.`.`.`.`.`.`.`.`.`.`.`.`.`.Q.Z.p.5.z.).+XOX.X'.`.`.`.`.`.`.`.`.`.`.`.`.`.`.`.`.`.`.`.`.`.`.`.`.`.'.}.}.",
"b.T.^.`.`.`.`.`.`.`.`.`.`.`.`.`.`.`.`.`.`.`.`.`.`.`.Q.Z.p.5.z.).+XOX.X'.`.`.`.`.`.`.`.`.`.`.`.`.`.`.`.`.`.`.`.`.`.`.`.`.`.'.].}.",
"b.T.^.`.`.`.`.`.`.`.`.`.`.`.`.`.`.`.`.`.`.`.`.`.`.`.Q.Z.p.5.z.).+XOX.X'.`.`.`.`.`.`.`.`.`.`.`.`.`.`.`.`.`.`.`.`.`.`.`.`.`.`.].}.",
"b.T.^.`.`.`.`.`.`.`.`.`.`.`.`.`.`.`.`.`.`.`.`.`.`.`.Q.Z.p.5.z.).+XOX.X'.`.`.`.`.`.`.`.`.`.`.`.`.`.`.`.`.`.`.`.`.`.`.`.`.`.`.].}.",
"b.T.^.`.`.`.`.`.`.`.`.`.`.`.`.`.`.`.`.`.`.`.`.`.`.^.Q.Z.p.5.z.).+XOX.X'.`.`.`.`.`.`.`.`.`.`.`.`.`.`.`.`.`.`.`.`.`.`.`.`.`.`.'.}.",
"b.T.^.`.`.`.`.`.`.`.`.`.`.`.`.`.`.`.`.`.`.`.`.`.`.^.Q.Z.p.5.z.).+XOX.X'.`.`.`.`.`.`.`.`.`.`.`.`.`.`.`.`.`.`.`.`.`.`.`.`.`.`.'.].",
"v.L.~.!.Q.Q.Q.Q.Q.Q.Q.Q.Q.Q.Q.Q.Q.Q.Q.Q.Q.Q.Q.Q.Q.^.Q.Z.p.5.z.).+XOX X`.~.Q.Q.Q.Q.Q.Q.Q.Q.Q.Q.Q.Q.Q.Q.Q.Q.Q.Q.Q.Q.Q.Q.Q.Q.^.`.].",
"v.K.L.J.A.C.C.C.C.C.C.C.C.C.C.C.C.C.C.C.C.C.C.A.S.P.P.Z.p.5.z.).+XOX X~.K.S.C.C.C.C.C.C.C.C.C.C.C.C.C.C.C.C.C.C.C.C.C.Z.S.L.^.].",
"v.J.J.B.h.p.p.p.p.p.p.p.p.p.p.p.p.p.p.p.p.p.g.h.v.J.L.C.p.5.z.).+XOX|.Q.A.c.g.p.p.p.p.p.p.p.p.p.p.p.p.p.p.p.p.p.p.s.g.h.v.S.!.].",
"v.J.A.g.,.K K K K K K K K K K K K K K K K U U ,.e.B.J.C.p.5.z.).+XOX|.K.k.4.U K K K K K K K K K K K K K K K K I K I U :.6.b.T.'.",
"v.H.B.r.J Z B B B B B B B B B B B B B B B Z Z D 2.m.H.B.p.5.z.).+XOX|.K.j.,.A B B B B B B B B B B B B B B B B B B Z Z D <.k.K.'.",
"v.J.A.h.2.:.:.:.:.:.:.:.:.:.:.:.:.:.:.:.:.:.:.<.r.Z.J.C.p.5.z.).+XOX|.L.v.6.>.:.:.:.:.:.:.:.:.:.:.:.:.:.:.:.:.:.:.:.>.<.r.m.T.'.",
"v.J.J.n.f.r.r.r.r.r.r.r.r.r.r.r.r.r.r.r.r.t.t.p.k.H.K.C.p.5.z.).+XOX|.R.Z.k.i.r.r.r.r.r.r.r.r.r.r.r.r.r.r.r.r.r.r.r.i.p.k.S.!.].",
"v.K.P.J.A.C.C.C.C.C.C.C.C.C.C.C.C.C.C.C.C.C.C.A.S.L.P.Z.p.5.z.).+XOX X~.K.S.Z.C.C.C.C.C.C.C.C.C.C.C.C.C.C.C.C.C.C.C.Z.A.S.L.^.].",
"b.L.~.~.~.Q.Q.Q.Q.Q.Q.Q.Q.Q.Q.Q.Q.Q.Q.Q.Q.Q.Q.Q.~.^.Q.Z.p.5.z.).+XOX.X`.^.~.!.Q.Q.Q.Q.Q.Q.Q.Q.Q.Q.Q.Q.Q.Q.Q.Q.Q.Q.Q.Q.~.~.^.`.].",
"b.T.^.`.`.`.`.`.`.`.`.`.`.`.`.`.`.`.`.`.`.`.`.`.`.`.Q.Z.p.5.z.).+XOX.X'.`.`.`.`.`.`.`.`.`.`.`.`.`.`.`.`.`.`.`.`.`.`.`.`.`.`.'.].",
"b.T.^.`.`.`.`.`.`.`.`.`.`.`.`.`.`.`.`.`.`.`.`.`.`.`.Q.Z.p.5.z.).+XOX.X'.`.`.`.`.`.`.`.`.`.`.`.`.`.`.`.`.`.`.`.`.`.`.`.`.`.`.'.].",
"b.T.^.`.`.`.`.`.`.`.`.`.`.`.`.`.`.`.`.`.`.`.`.`.`.`.Q.Z.p.5.z.).+XOX.X'.`.`.`.`.`.`.`.`.`.`.`.`.`.`.`.`.`.`.`.`.`.`.`.`.`.`.'.].",
"v.T.^.`.`.`.`.`.`.`.`.`.`.`.`.`.`.`.`.`.`.`.`.`.`.^.Q.Z.p.5.z.).+XOX.X'.`.`.`.`.`.`.`.`.`.`.`.`.`.`.`.`.`.`.`.`.`.`.`.`.`.`.'.].",
"v.T.^.`.`.`.`.`.`.`.`.`.`.`.`.`.`.`.`.`.`.`.`.`.`.^.Q.Z.p.5.z.).+XOX.X'.`.`.`.`.`.`.`.`.`.`.`.`.`.`.`.`.`.`.`.`.`.`.`.`.`.`.'.].",
"v.T.^.`.`.`.`.`.`.`.`.`.`.`.`.`.`.`.`.`.`.`.`.`.`.`.Q.Z.p.5.z.).+XOX.X'.`.`.`.`.`.`.`.`.`.`.`.`.`.`.`.`.`.`.`.`.`.`.`.`.`.`.'.].",
"b.T.^.`.`.`.`.`.`.`.`.`.`.`.`.`.`.`.`.`.`.`.`.`.`.`.Q.Z.p.5.z.).+XOX.X'.`.`.`.`.`.`.`.`.`.`.`.`.`.`.`.`.`.`.`.`.`.`.`.`.`.`.'.].",
"b.T.^.`.`.`.`.`.`.`.`.`.`.`.`.`.`.`.`.`.`.`.`.`.`.`.Q.Z.p.5.z.).+XOX.X'.`.`.`.`.`.`.`.`.`.`.`.`.`.`.`.`.`.`.`.`.`.`.`.`.`.`.'.].",
"b.T.^.`.`.`.`.`.`.`.`.`.`.`.`.`.`.`.`.`.`.`.`.`.`.`.Q.Z.p.5.z.).+XOX.X'.`.`.`.`.`.`.`.`.`.`.`.`.`.`.`.`.`.`.`.`.`.`.`.`.`.`.'.].",
"b.T.^.`.`.`.`.`.`.`.`.`.`.`.`.`.`.`.`.`.`.`.`.`.`.`.Q.Z.p.5.z.).+XOX.X'.`.`.`.`.`.`.`.`.`.`.`.`.`.`.`.`.`.`.`.`.`.`.`.`.`.`.'.].",
"b.T.^.`.`.`.`.`.`.`.`.`.`.`.`.`.`.`.`.`.`.`.`.`.`.`.Q.Z.p.5.z.).+XOX.X'.`.`.`.`.`.`.`.`.`.`.`.`.`.`.`.`.`.`.`.`.`.`.`.`.`.`.'.].",
"b.T.^.`.`.`.`.`.`.`.`.`.`.`.`.`.`.`.`.`.`.`.`.`.`.`.Q.Z.p.5.z.).+XOX.X'.`.`.`.`.`.`.`.`.`.`.`.`.`.`.`.`.`.`.`.`.`.`.`.`.`.`.'.].",
"v.L.~.^.^.^.^.^.^.^.^.^.^.^.^.^.^.^.^.^.^.^.^.^.^.^.Q.C.i.3.z.).+XOX X`.^.^.^.^.^.^.^.^.^.^.^.^.^.^.^.^.^.^.^.^.^.^.^.^.^.`.`.'.",
"g.A.J.L.L.L.L.L.L.L.L.L.L.L.L.L.L.L.L.L.L.L.L.L.L.L.G.v.e.1.z.(.oXXX_.T.L.L.L.L.L.L.L.L.L.L.L.L.L.L.L.L.L.L.L.L.L.L.L.L.L.L.W.Q.",
"6.k.b.b.n.n.n.n.n.n.n.n.n.n.n.n.n.n.n.n.n.n.n.n.b.b.x.i.2.,.d.E.{.[.Y.C.n.n.n.n.n.n.n.n.n.n.n.n.n.n.n.n.n.n.n.n.n.n.n.n.n.M.C.Z.",
"2.i.g.h.h.h.h.h.h.h.h.h.h.h.h.h.h.h.h.h.h.h.h.h.h.h.p.6.>.U d.U.[./.F.k.h.h.h.h.h.h.h.h.h.h.h.h.h.h.h.h.h.h.h.h.h.h.h.h.h.k.k.v.",
",.6.r.i.i.i.i.i.i.i.i.i.i.i.i.i.i.i.i.i.i.i.i.i.i.i.w.2.U U a.U._.R.V.g.i.i.i.i.i.i.i.i.i.i.i.i.i.i.i.i.i.i.i.i.i.i.i.i.i.p.g.k.",
">.6.r.u.u.u.u.u.u.u.u.u.u.u.u.u.u.u.u.u.u.u.u.u.u.r.w.2.U U a.I./.T.M.p.i.u.u.u.u.u.u.u.u.u.u.u.u.u.u.u.u.u.u.u.u.u.u.u.i.p.g.h.",
"2.t.g.h.h.h.h.h.h.h.h.h.h.h.h.g.h.h.h.h.h.h.h.g.h.g.i.4.:.K e.N.Y.K.M.k.h.h.h.h.h.h.h.h.h.h.h.g.h.h.h.h.h.h.h.g.h.h.h.h.h.h.k.v.",
">.q.t.i.i.t.t.t.i.i.i.i.i.i.i.t.i.i.i.i.i.i.i.t.i.t.w.2.U D 1.d.m.m.j.p.i.i.i.t.i.i.i.i.i.i.i.t.i.i.i.i.i.i.i.t.i.i.i.i.i.p.g.j.",
"A J K K K K K K K K K K K K K K K K K K K K K K K K J D B N S U ,.,.U K K K K K K K K K K K K K K K K K K K K K K K K K K U U ,."
};
