/* XPM */
static char *_0a35d9e6b19402cfe2e4ccbded83a93PhtwCjKWw3gcGYTl[] = {
/* columns rows colors chars-per-pixel */
"64 64 154 2 ",
"   c #1A1C2C",
".  c #251E34",
"X  c #1B2131",
"o  c #1B2433",
"O  c #1F2537",
"+  c #1C2A38",
"@  c #2F2530",
"#  c #2A2D36",
"$  c #3C2C33",
"%  c #2F313F",
"&  c #56293B",
"*  c #592D3C",
"=  c #6A3E3D",
"-  c #3E6E1D",
";  c #3F701E",
":  c #40731F",
">  c #42771F",
",  c #6E423D",
"<  c #417620",
"1  c #437820",
"2  c #447A21",
"3  c #457C21",
"4  c #567E3B",
"5  c #1E3845",
"6  c #1E3E4A",
"7  c #293240",
"8  c #24394A",
"9  c #303644",
"0  c #3D3F4C",
"q  c #43234A",
"w  c #47234D",
"e  c #4A2F51",
"r  c #522555",
"t  c #5D275D",
"y  c #673A69",
"u  c #1F4652",
"i  c #3C4541",
"p  c #3E4842",
"a  c #204753",
"s  c #214F5B",
"d  c #2C4E5A",
"f  c #21555F",
"g  c #2D5560",
"h  c #355C67",
"j  c #3B546E",
"k  c #23636D",
"l  c #246971",
"z  c #246C74",
"x  c #257179",
"c  c #744342",
"v  c #586C50",
"b  c #5F7755",
"n  c #607755",
"m  c #607855",
"M  c #405B66",
"N  c #754875",
"B  c #406668",
"V  c #426A73",
"C  c #4F607A",
"Z  c #62646E",
"A  c #636973",
"S  c #706A71",
"D  c #70717B",
"F  c #B13E53",
"G  c #864D42",
"H  c #9B5746",
"J  c #894358",
"K  c #97495B",
"L  c #BB4854",
"P  c #C95755",
"I  c #CF5D55",
"U  c #CD6D50",
"Y  c #E57356",
"T  c #E97757",
"R  c #EF7D57",
"E  c #478022",
"W  c #488222",
"Q  c #4A8623",
"!  c #4B8724",
"~  c #4B8824",
"^  c #4C8924",
"/  c #52862F",
"(  c #518033",
")  c #538B30",
"_  c #558E31",
"`  c #578A36",
"'  c #598E37",
"]  c #58833D",
"[  c #59843E",
"{  c #5B883E",
"}  c #5D8B3F",
"|  c #5E8C3F",
" . c #5C9337",
".. c #5E8E40",
"X. c #609240",
"o. c #629441",
"O. c #6B8D56",
"+. c #688758",
"@. c #6F9457",
"#. c #709557",
"$. c #72915F",
"%. c #74945F",
"&. c #739B59",
"*. c #749D59",
"=. c #769760",
"-. c #779A61",
";. c #789B61",
":. c #799D61",
">. c #7C9769",
",. c #7C996B",
"<. c #85A372",
"1. c #8CA07F",
"2. c #397E85",
"3. c #697982",
"4. c #3F9BA3",
"5. c #46868D",
"6. c #769CA2",
"7. c #44A3AB",
"8. c #4DB1B9",
"9. c #77A5A9",
"0. c #54BDC5",
"q. c #66DBE3",
"w. c #73EFF7",
"e. c #85868E",
"r. c #899E81",
"t. c #8A9299",
"y. c #969B97",
"u. c #AB9999",
"i. c #8DA180",
"p. c #8EA480",
"a. c #8EA284",
"s. c #90A780",
"d. c #90A585",
"f. c #91A881",
"g. c #9AAE8D",
"h. c #9E9FA5",
"j. c #A89EA5",
"k. c #80A4A2",
"l. c #8CA6AB",
"z. c #98B4AD",
"x. c #B8A3B8",
"c. c #BEC6B8",
"v. c #BFC9B9",
"b. c #A2C0C3",
"n. c #D0D6CD",
"m. c #D1D1D4",
"M. c #D2D7D9",
"N. c #D2DADB",
"B. c #DDE0DA",
"V. c #F3E1DB",
"C. c #D3DFE0",
"Z. c #DAEBEC",
"A. c #DFF3F4",
"S. c #F4F4F4",
/* pixels */
"> 3 Q Q W Q Q 1 ! E Q ^ Q Q ~ Q 3 Q Q ^ W ^ Q 3 W E Q W 3 ^ ^ 3 > 3 Q Q W Q Q 1 ! E Q ^ Q Q ~ Q 3 Q Q ^ W ^ Q 3 W E Q W 3 ^ ^ 3 ",
"Q ; 1 E 3 ; > < 3 Q E 3 2 3 1 ; > 2 2 E 1 > ; 1 W ! Q 2 < 3 ! ^ Q ; 1 E 3 ; > < 3 Q E 3 2 3 1 ; > 2 2 E 1 > ; 1 W ! Q 2 < 3 ! ^ ",
"! Q 3 W 1 ; ; < 3 1 W Q 3 3 : ; < Q 3 1 1 3 W ! ! ^ W < - 2 W 3 ! Q 3 W 1 ; ; < 3 1 W W 3 3 : ; < Q 3 1 1 3 W ! ! ^ W < - 2 W 3 ",
"3 3 W ! Q W ! 3 > ^ ^ ^ ^ Q W 3 Q ^ ^ ^ ^ ^ Q 3 3 E 3 Q 3 E E Q 3 3 W ! Q W ! @.$.:.:.:.:.) W 3 Q ^ ^ ^ ^ ^ Q 3 3 E 3 Q 3 E E Q ",
"Q 1 < E ^ Q W W 3 Q ~ Q 2 Q ^ ^ ^ ^ ^ ^ ^ ^ ~ < < 1 ; E ^ Q 1 Q Q < < E ^ Q W v.S.S.S.S.S.X.^ ^ ^ ^ ^ ^ ^ ^ ~ < < 1 ; E ^ Q 1 Q ",
"3 > 1 3 2 1 < < : < < E ^ W E < 1 1 3 W ! ^ ^ 1 2 1 ; 2 ^ ! ; > 3 : 1 3 2 1 < c.S.S.S.S.S.X.E < 1 1 3 W ! ^ ^ 1 2 1 ; 2 ^ ! ; > ",
"2 ; ^ < ; ; ; ; ; ; ; ; 3 2 Q ~ 3 : > ; ^ ^ ^ ^ ^ ^ W ^ ^ E ; 3 2 ; ^ < O.$.$.y.h.h.h.h.h.>.:.:./ : > ; ^ ^ ^ ^ ^ ^ W ^ ^ E ; 3 ",
"Q ; 2 > ; ; ; ; ; ; ; : 3 ^ ! ^ ^ Q Q W ^ ^ ^ ~ 3 E < < ^ E 3 ! Q ; 2 > c.S.S.0           m.S.S.o.Q Q W ^ ^ ^ ~ 3 E < < ^ E 3 ! ",
"3 ; Q Q Q < > 3 3 E ! ^ ! ^ 3 ^ Q Q 3 ^ ^ ^ 2 3 Q 3 ; ; E 3 W ^ 3 ; Q Q v.S.S.0           m.S.S.X.Q 3 ^ ^ ^ 2 3 Q 3 ; ; E 3 W ^ ",
"^ < W ^ ^ 3 > Q ^ ~ 2 ^ ^ ^ ! ^ E ~ 3 ~ ^ ^ 3 ! *.:.$.%.:.;.-.-.:.$.;.:.n.S.S.M 6 6 X     m.S.S...~ 3 ~ ^ ^ 3 ! ^ Q ; 1 Q W E W ",
"1 3 < Q ^ ^ 1 : 3 ^ 3 ^ ; ~ Q W ^ ^ Q Q ^ ^ ^ ^ v.S.S.S.S.S.S.S.S.S.S.S.S.S.S.5.x x +     m.S.S.o.^ Q Q ^ ^ ^ ^ ^ ^ ! ^ ^ Q 3 W ",
"E W Q ! ^ W ^ 2 E W E W ! ^ 1 ; E ^ Q - W Q Q ^ v.S.S.S.S.S.S.S.S.S.S.S.S.S.S.5.x x +     m.S.S...^ Q - W Q Q ^ ^ 3 3 3 Q 2 Q ^ ",
"Q W ~ W ^ Q ~ ^ ^ Q ~ W ^ ! < : > < E < W &.=.=.j.x.x.x.x.x.x.x.x.x.x.x.x.x.x.C j j O     m.S.S.[ < E < W ! 3 3 ^ Q W W ^ Q ^ ^ ",
"Q Q < < ^ ! Q Q < ; < Q ^ ! < ; ; 1 3 2 1 c.S.S.N t t t t t t t t t t t t t t t t t .     m.S.S.[ 1 3 2 1 1 2 3 ^ ^ ^ ^ ! Q ^ ^ ",
"E Q : < < < 3 < > 2 ; 3 ^ ^ ^ ! Q Q ~ ^ ^ v.S.S.N t t t t t t t t t t t t t t t t t .     m.S.S.X.Q ~ ^ ^ ^ ^ ^ E ^ 3 Q < ; ! ^ ",
"Q Q Q 3 1 2 1 1 1 3 ; 3 ^ Q ~ Q 2 E Q ! ~ v.S.S.N t t t t t t t t t t t t t t t t t .     l.b.b.,.-.:._ ~ ^ 3 3 3 ^ > 3 2 2 : ~ ",
"^ E ^ ^ ! W E 1 ; ; : Q Q E Q ! ~ ^ Q E Q v.S.S.N t t t t t t t t t t t t t t t t t .     k x x C.S.S...Q W ^ ^ ^ ^ ^ ^ ^ ! 3 ^ ",
"Q W ^ W Q Q ^ ^ ! W ! ^ ^ 2 < Q W 3 Q ^ E v.S.S.N t t t t t t t t t t t t t t t t t .     k x x C.S.S.o.E E 3 3 3 E 3 3 ! ^ ^ ^ ",
"W ^ E Q ! Q W ^ ^ ^ ^ Q ~ W 3 ; ; : &.:.%.y.h.h.y t t t t t w q q q q q q q q q q q 8 6 6 l x x C.S.S.o.< 2 < 2 2 2 < > 3 W E ! ",
"^ W E Q E 2 2 2 3 W ^ ^ 3 1 3 2 3 ^ v.S.S.0     r t t t t t .                       k x x x x x C.S.S.X.; > < > ; ; ; 3 Q E W E ",
"E W Q 3 < 1 W E 3 : Q 3 ! ^ Q Q ! ! v.S.S.0     r t t t t t .                       k x x x x x C.S.S.o.< ; ; ; ; < > W ^ : ^ ! ",
"Q Q W : ; ; Q ^ ^ ! ! 3 ^ ^ ^ ^ ^ ~ v.S.S.e.D D e q q J K K c , , * & & = , , S D D g s s s s s N.S.S.o.Q < ; > 3 3 3 W 3 Q ^ ^ ",
"Q ! ^ ~ W 3 ^ E 3 3 Q ^ ^ W ~ ^ Q < v.S.S.S.S.S.0     U R R R R R L F F Y R R V.S.S.0           m.S.S.o.^ ^ Q ^ Q ^ ^ ~ 2 Q Q ! ",
"E 3 W ^ Q ^ ~ W E 3 ^ ~ Q ! E < Q 2 v.S.S.S.S.S.0     U R R R R R L F F Y R R V.S.S.0           m.S.S.[ ^ ! Q ^ ^ ^ Q 3 W 3 W : ",
"E ~ ! 3 - W ^ Q ; > E Q 3 < 3 &.:.:.z.b.b.b.b.b.9     U R R R R R I P P T R R u.h.h.%           m.S.S...Q ^ ^ ^ > ^ Q E ^ 3 3 E ",
"~ W ^ Q Q 3 W Q ; 3 3 > 3 Q ^ v.S.S.5.x x x x x +     U R R R R R R R R R R R $                 m.S.S.o.W ^ ^ ^ - ^ Q ^ W ^ ^ ! ",
"W W 3 3 W Q 3 Q 2 1 ^ W Q E E c.S.S.5.x x x x x +     U R R R R R R R R R R R $                 m.S.S.{ 1 Q ^ ^ 3 ^ ^ Q ; 3 ^ ^ ",
"W 2 3 3 ^ ^ ^ ^ ^ 3 < ~ #.:.:.z.b.b.2.x x x x x +     G H H H H H H H H H H H @                 m.S.S.{ 3 3 ^ ^ W ^ W 3 1 ^ W W ",
"W < 1 3 ~ W ^ ^ ~ E W ^ v.S.S.5.x x x x x x x x +                                               m.S.S.o.3 2 3 3 1 ^ ^ W E ^ 3 1 ",
"Q 2 ; ; < 3 ^ ^ 3 2 < W v.S.S.5.x x x x x x x x +                                               m.S.S.X.Q Q 1 1 Q ! 3 W Q ^ Q W ",
"Q 1 < 3 3 2 1 W W 3 W 3 c.S.S.5.x x x x x f s s o     5 6 6 6 6 6 6 6 6 6 6 6 X           Z D D d.s.f. .~ ^ Q W Q 3 2 W W W 1 Q ",
"W W E Q Q E W 3 W W W 3 v.S.S.5.x x x x x +           k x x x x x x x x x x x +           m.S.S.| Q W ^ W W ^ 3 W ! > W 2 3 1 Q ",
"> 3 Q Q W Q Q 1 ! E Q ^ v.S.S.5.x x x x x +           k x x x x x x x x x x x +           m.S.S.| Q Q ^ W ^ Q 3 W E Q W 3 ^ ^ 3 ",
"Q ; 1 E 3 ; > < 3 Q E 3 c.S.S.V s s s s s o     5 6 6 l x x 4.7.7.7.7.7.7.7.7.3.D D D D D a.i.1.( 2 2 E 1 > ; 1 W ! Q 2 < 3 ! ^ ",
"! Q 3 W 1 ; ; < 3 1 W W c.S.S.0                 k x x x x x q.w.w.w.w.w.w.w.w.A.S.S.S.S.S...: ; < Q 3 1 1 3 W ! ! ^ W < - 2 W 3 ",
"3 3 W ! Q W ~ 3 > ^ ^ ^ v.S.S.0                 k x x x x x q.w.w.w.w.w.w.w.w.A.S.S.S.S.S.X.W 3 Q ^ ^ ^ ^ ^ Q 3 3 E 3 Q 3 E E Q ",
"Q < < E ^ Q W W 3 Q ~ W c.S.S.M 6 6 X           k x x x x x 8.0.0.0.0.0.0.0.0.Z.S.S.g.s.p.' ^ ^ ^ ^ ^ ^ ^ ^ ~ < < 1 ; E ^ Q 1 Q ",
"3 : 1 3 2 1 < < : < < E v.S.S.5.x x +           k x x x x x x x x x x x x x x C.S.S.[ E ^ W E < 1 1 3 W ! ^ ^ 1 2 1 ; 2 ^ ! ; > ",
"2 ; ^ < ; ; ; ; ; ; ; ; c.S.S.5.x x +           k x x x x x x x x x x x x x x C.S.S.] ; 3 2 Q ~ 3 : > ; ^ ^ ^ ^ ^ ^ W ^ ^ E ; 3 ",
"Q ; 2 > ; ; ; ; ; ; ; : c.S.S.5.x x u 6 6 X     a s s s s s s s s s s s s s s N.S.S.] : 3 ^ ! ^ ^ Q Q W ^ ^ ^ ~ 3 E < < ^ E 3 ! ",
"3 ; Q Q Q < > 3 3 E ! ^ v.S.S.5.x x x x x +                                   m.S.S.o.^ ! ^ 3 ^ Q Q 3 ^ ^ ^ 2 3 Q 3 ; ; E 3 W ^ ",
"^ < W ^ ^ 3 > Q ^ ~ 2 ^ v.S.S.5.x x x x x +                                   m.S.S.} ^ ^ ^ ! ^ E ~ 3 ~ ^ ^ 3 ! ^ Q ; 1 Q W E W ",
"1 3 < Q ^ ^ 1 : 3 ^ 3 ^ c.S.S.5.x x x x x +           5 6 6 6 6 6 6 6 6 6 6 6 M.S.S.} ^ ; ~ Q W ^ ^ Q Q ^ ^ ^ ^ ^ ^ ! ^ ^ Q 3 W ",
"E W Q ! ^ W ^ 2 E W E W v.S.S.5.x x x x x +           k x x x x x x x x x x x C.S.S...W ! ^ 1 ; E ^ Q - W Q Q ^ ^ 3 3 3 Q 2 Q ^ ",
"Q W ~ W ^ Q ~ ^ ^ Q ~ W v.S.S.5.x x x x x +           k x x x x x x x x x x x C.S.S.o.W ^ ! < : > < E < W ! 3 3 ^ Q W W ^ Q ^ ^ ",
"Q Q < < ^ ! Q Q < ; < Q <.f.i.k.9.9.9.9.9.7           a s s z x x x x x f s s N.S.S.[ Q ^ ! < ; ; 1 3 2 1 1 2 3 ^ ^ ^ ^ ! Q ^ ^ ",
"E Q : < < < 3 < > 2 ; 3 ^ ^ ^ v.S.S.S.S.S.0                 k x x x x x +     m.S.S.] 3 ^ ^ ^ ! Q Q ~ ^ ^ ^ ^ ^ E ^ 3 Q < ; ! ^ ",
"Q Q Q 3 1 2 1 1 1 3 ; 3 ^ Q ~ v.S.S.S.S.S.0                 k x x x x x +     m.S.S.] 3 ^ Q ~ Q 2 E Q ! ~ ^ 3 3 3 ^ > 3 2 2 : ~ ",
"^ E ^ ^ ! W E 1 ; ; : Q Q E Q <.f.f.B.S.S.M 6 6 A D D D D D 6.9.9.9.9.9.d 6 6 M.S.S.[ Q Q E Q ! ~ ^ Q E Q W ^ ^ ^ ^ ^ ^ ^ ! 3 ^ ",
"Q W ^ W Q Q ^ ^ ! W ! ^ ^ 2 < Q W 3 v.S.S.5.x x C.S.S.S.S.S.S.S.S.S.S.S.5.x x C.S.S.o.^ ^ 2 < Q W 3 Q ^ E E 3 3 3 E 3 3 ! ^ ^ ^ ",
"W ^ E Q ! Q W ^ ^ ^ ^ Q ~ W 3 ; ; : v.S.S.5.x x C.S.S.S.S.S.S.S.S.S.S.S.5.x x C.S.S.o.Q ~ W 3 ; ; : W ~ < 2 < 2 2 2 < > 3 W E ! ",
"^ W E Q E 2 2 2 3 W ^ ^ 3 1 3 2 3 ^ <.f.1.B s s t.h.h.h.h.h.h.h.h.h.h.h.h s s r.p.s. .^ 3 1 3 2 3 ^ ^ Q ; > < > ; ; ; 3 Q E W E ",
"E W Q 3 < 1 W E 3 : Q 3 ! ^ Q Q ! ! W ^ < i                                   ..3 : Q 3 ! ^ Q Q ! ! W ^ < ; ; ; ; < > W ^ : ^ ! ",
"Q Q W : ; ; Q ^ ^ ! ! 3 ^ ^ ^ ^ ^ ~ W ^ Q i                                   o.^ ! ! 3 ^ ^ ^ ^ ^ ~ W ^ Q < ; > 3 3 3 W 3 Q ^ ^ ",
"Q ! ^ ~ W 3 ^ E 3 3 Q ^ ^ W ~ ^ Q < Q ! ^ +.b m #                       v b m ` 3 3 Q ^ ^ W ~ ^ Q < Q ! ^ ^ Q ^ Q ^ ^ ~ 2 Q Q ! ",
"E 3 W ^ Q ^ ~ W E 3 ^ ~ Q ! E < Q 2 Q < ^ ! Q ^ p                       X.^ ~ W E 3 ^ ~ Q ! E < Q 2 Q < ^ ! Q ^ ^ ^ Q 3 W 3 W : ",
"E ~ ! 3 - W ^ Q ; > E Q 3 < 3 W ^ ^ ^ E Q ^ ^ ^ i                       4 W ^ Q ; > E Q 3 < 3 W ^ ^ ^ E Q ^ ^ ^ > ^ Q E ^ 3 3 E ",
"~ W ^ Q Q 3 W Q ; 3 3 > 3 Q ^ ^ E - 2 ! W ^ ^ ^ m m b m b m m n m b m b ' 3 W Q ; 3 3 > 3 Q ^ ^ E - 2 ! W ^ ^ ^ - ^ Q ^ W ^ ^ ! ",
"W W 3 3 W Q 3 Q 2 1 ^ W Q E E 2 E ^ Q 1 1 Q ^ ^ 3 ^ ^ Q ; 3 ^ ^ W W 3 3 W Q 3 Q 2 1 ^ W Q E E 2 E ^ Q 1 1 Q ^ ^ 3 ^ ^ Q ; 3 ^ ^ ",
"W 2 3 3 ^ ^ ^ ^ ^ 3 < ~ 3 ! Q W W Q < 1 3 3 ^ ^ W ^ W 3 1 ^ W W W 2 3 3 ^ ^ ^ ^ ^ 3 < ~ 3 ! Q W W Q < 1 3 3 ^ ^ W ^ W 3 1 ^ W W ",
"W < 1 3 ~ W ^ ^ ~ E W ^ ^ ^ ^ W Q W - ~ 3 2 3 3 1 ^ ^ W E ^ 3 1 W < 1 3 ~ W ^ ^ ~ E W ^ ^ ^ ^ W Q W - ~ 3 2 3 3 1 ^ ^ W E ^ 3 1 ",
"Q 2 ; ; < 3 ^ ^ 3 2 < W ~ 3 1 3 ^ Q 1 Q Q Q 1 1 Q ! 3 W Q ^ Q W Q 2 ; ; < 3 ^ ^ 3 2 < W ~ 3 1 3 ^ Q 1 Q Q Q 1 1 Q ! 3 W Q ^ Q W ",
"Q 1 < 3 3 2 1 W W 3 W 3 2 2 3 W Q W ^ ^ ~ ^ Q W Q 3 2 W W W 1 Q Q 1 < 3 3 2 1 W W 3 W 3 2 2 3 W Q W ^ ^ ~ ^ Q W Q 3 2 W W W 1 Q ",
"W W E Q Q E W 3 W W W 3 ^ ^ W ~ 3 Q W ^ W W ^ 3 W ! > W 2 3 1 Q W W E Q Q E W 3 W W W 3 ^ ^ W ~ 3 Q W ^ W W ^ 3 W ! > W 2 3 1 Q "
};
