/* XPM */
static char *_45269434a894dd0d0a167ac39872465vVnJxEN2Cupnnmr4[] = {
/* columns rows colors chars-per-pixel */
"64 64 190 2 ",
"   c #233D12",
".  c #273F18",
"X  c #2C3D1E",
"o  c #2E3D22",
"O  c #313E25",
"+  c #353C2B",
"@  c #383B2E",
"#  c #373C30",
"$  c #3B3B35",
"%  c #3E3B39",
"&  c #413E3C",
"*  c #264412",
"=  c #294416",
"-  c #2A4B14",
";  c #2C421B",
":  c #2E5316",
">  c #2F571C",
",  c #2F581D",
"<  c #305617",
"1  c #315817",
"2  c #30571E",
"3  c #335C19",
"4  c #36621A",
"5  c #39661B",
"6  c #3C6C1C",
"7  c #3F721F",
"8  c #2F4121",
"9  c #39452E",
"0  c #354828",
"q  c #355725",
"w  c #355A23",
"e  c #395A27",
"r  c #365128",
"t  c #3C572C",
"y  c #3C5B2B",
"u  c #3D4333",
"i  c #3E4C31",
"p  c #3F5730",
"a  c #3F5C30",
"s  c #3F6325",
"d  c #3F6922",
"f  c #3D622C",
"g  c #3F7020",
"h  c #41741F",
"j  c #43781F",
"k  c #41572F",
"l  c #425D2D",
"z  c #404C33",
"x  c #44413E",
"c  c #434A3A",
"v  c #415434",
"b  c #435C33",
"n  c #46563A",
"m  c #49563E",
"M  c #475C39",
"N  c #4A5E3D",
"B  c #416627",
"V  c #416B25",
"C  c #43632D",
"Z  c #456C2A",
"A  c #427620",
"S  c #457C21",
"D  c #46712A",
"F  c #497828",
"G  c #497A28",
"H  c #446233",
"J  c #466A35",
"K  c #4A633B",
"L  c #4B6A3B",
"P  c #464341",
"I  c #494643",
"U  c #474840",
"Y  c #4C4947",
"T  c #4E4B48",
"R  c #514E4B",
"E  c #4D5642",
"W  c #4D5D41",
"Q  c #505647",
"!  c #535F47",
"~  c #54544D",
"^  c #555A4B",
"/  c #565350",
"(  c #595652",
")  c #5C5A55",
"_  c #5E5B58",
"`  c #625E5B",
"'  c #4F6042",
"]  c #4F6840",
"[  c #516244",
"{  c #536945",
"}  c #56614A",
"|  c #5A634E",
" . c #566A49",
".. c #5A6B4D",
"X. c #577548",
"o. c #5A734B",
"O. c #5E6353",
"+. c #5F6C53",
"@. c #5F7652",
"#. c #606456",
"$. c #626E56",
"%. c #65635C",
"&. c #68655F",
"*. c #65695B",
"=. c #696C5E",
"-. c #627155",
";. c #647159",
":. c #6A725E",
">. c #687C5A",
",. c #666461",
"<. c #6A6662",
"1. c #6E6966",
"2. c #6E6C69",
"3. c #726D6A",
"4. c #6E7363",
"5. c #6F7C63",
"6. c #717466",
"7. c #75726D",
"8. c #78736F",
"9. c #77786D",
"0. c #757471",
"q. c #797571",
"w. c #7D7A74",
"e. c #7D7B79",
"r. c #807C77",
"t. c #827D7A",
"y. c #478022",
"u. c #498423",
"i. c #4C8924",
"p. c #658058",
"a. c #6C845D",
"s. c #6E8760",
"d. c #738467",
"f. c #728A65",
"g. c #7A8D6D",
"h. c #7F8674",
"j. c #7D9271",
"k. c #86817E",
"l. c #859579",
"z. c #898581",
"x. c #8C8984",
"c. c #908C87",
"v. c #918E89",
"b. c #8D9283",
"n. c #8E9D82",
"m. c #909187",
"M. c #95928D",
"N. c #959A8B",
"B. c #949C8B",
"V. c #999791",
"C. c #9C9B94",
"Z. c #A19F98",
"A. c #96A58B",
"S. c #9DA893",
"D. c #A4A49C",
"F. c #A8A79F",
"G. c #A6AB9B",
"H. c #A5AD9B",
"J. c #A5B09B",
"K. c #ABABA3",
"L. c #A9A9A5",
"P. c #AEB2A5",
"I. c #AFB0A8",
"U. c #B0B0A7",
"Y. c #B3B4AB",
"T. c #B6B8AD",
"R. c #B8B9AF",
"E. c #B8B8B5",
"W. c #BCBEB4",
"Q. c #BEC0B6",
"!. c #C0C2B7",
"~. c #C3C4BB",
"^. c #C5C8BE",
"/. c #C5C5C1",
"(. c #C7C8C2",
"). c #CACCC4",
"_. c #CDCEC9",
"`. c #CED0C9",
"'. c #D0D2CA",
"]. c #D1D2CC",
"[. c #D3D4CD",
"{. c #D4D6CF",
"}. c #D6D6D1",
"|. c #D7D8D2",
" X c #D8D9D3",
".X c #DADBD5",
"XX c #DEDFDA",
"oX c #DFE0DC",
"OX c #E1E3DE",
"+X c #E4E5E1",
/* pixels */
"j S u.u.y.u.u.A i.y.u.i.u.u.i.u.S u.u.i.y.i.u.S y.y.u.y.S i.i.S j S u.u.y.u.u.A i.y.u.i.u.u.i.u.S u.u.i.y.i.u.S y.y.u.y.S i.i.S ",
"u.7 A y.S 7 j A S u.y.S S S A 7 j S S y.A j 7 A y.i.u.S A S i.i.u.7 A y.S 7 j A S u.y.S S S A 7 j S S y.A j 7 A y.i.u.S A S i.i.",
"i.u.S y.A 7 7 A S A y.y.S S h 7 A u.S A A S y.i.i.i.y.A 6 S y.S i.u.S y.A 7 7 A S A y.y.S S h 7 A u.S A A S y.i.i.i.y.A 6 S y.S ",
"S S y.i.u.y.i.S j i.i.i.i.u.y.S u.i.i.i.i.i.Z k t k t k i i i v i i i v z i v i i b C D u.u.y.S u.i.i.i.i.i.u.S S y.S u.S y.y.u.",
"u.A A y.i.u.y.y.S u.i.y.S u.i.i.i.i.i.i.i.z & ~ _ %.,.,.,.,.%.%.,.2.2.2.1.1.<.,.,._ T & % v F i.i.i.i.i.i.i.i.A A A 7 y.i.u.A u.",
"S h A S S A A A h A A y.i.y.y.A A A S y.D $ D. XXXoXOXOXOXOXoXoXOXOXOXOXOXOXOXOXOXXX X(.v.R % y A A S y.i.i.i.A S A 7 S i.i.7 j ",
"S 7 i.A 7 7 7 7 7 7 7 7 S S u.i.S h j 7 C Y }.+XOX+X+XOXOX+X+XOXOX+X+X+X+X+XXXXX|.{.'.}.`._.0.% C h j 7 i.i.i.i.i.i.y.i.i.y.7 S ",
"u.7 S j 7 7 7 7 7 7 7 h S i.i.i.i.u.u.y.z %.oXoX}.+X+XOX X XoX+X+X+X+X+X+X+X+XOXXX X X}.{. X X2.$ F u.y.i.i.i.i.S y.A A i.y.S i.",
"S 7 u.u.u.A j S S y.i.i.i.i.S i.u.u.S F % V.+X+XOX'.).'. X[.).}.|.|.{.{.[.{.|.^.E.K.D.C.C.E.^.E.P v S i.i.i.S S u.S 7 7 y.S y.i.",
"i.A y.i.i.S j u.i.i.S i.i.i.i.i.y.i.A z R  X+X.X).'. X^.!.[..X X X X X X[.(.K.D.C.F.D.C.z.k.T.E.` $ F i.i.i.S i.i.u.7 A u.y.y.y.",
"A S A u.i.i.A h S i.S i.7 i.u.y.i.F u x Y.+XOX^.'.].Q.W.Q.!.Q.Q.W.Q.Q.W.W.E.T.Y.v.M.C.D.Y.M.x.q.1.% l u.i.i.i.i.i.i.i.i.i.u.S y.",
"y.y.u.i.i.y.i.S y.y.y.y.i.i.A y u $ Y I.+X+XOX!.Q.W.W.W.W.W.W.W.W.W.W.W.W.K.I.M.t.t.t.t.z.Y.z.w.<.I u 6 y.u.u.i.i.S S S u.S u.i.",
"u.y.i.y.i.u.i.i.i.u.i.y.i.l u % T M.].+XXX+X.XQ.W.W.W.W.W.W.W.W.W.W.W.W.U.M.K.t.t.t.t.t.t.v.z.r.1.) % V y.i.S S i.u.y.y.i.u.i.i.",
"u.u.A A i.i.u.u.A 7 A F u % <.L.XX+XoX[.OXOX~.W.W.W.W.W.W.W.W.W.W.W.W.W.x.K.v.t.t.t.t.t.t.t.t.t.3.3.& i A A S S i.i.i.i.i.u.i.i.",
"y.u.h A A A S A j S d $ / E.OX+X+XOX`.OX+X).W.W.W.W.W.W.W.W.W.W.W.W.W.K.v.D.t.t.t.t.r.t.t.t.t.t.7.<.Y $ D i.i.i.y.i.S u.A 7 i.i.",
"u.u.u.S A S A A A A $ _ ].+X+X+XOX].).|..XQ.W.W.W.W.W.W.W.W.W.W.W.W.W.M.I.z.t.t.7.3.7.3.q.e.r.r.3.<.P % u F S S S i.j S S S h i.",
"i.y.i.i.i.y.y.A g i Y _.+X+XOXXX^.~.[.}.(.W.W.Q.Q.W.D.v.v.K.T.W.W.W.K.U.M.t.e.3.q.3.7.q.e.q.7.3.7.<.& I & v i.i.i.i.i.i.i.i.S i.",
"u.y.i.y.u.u.i.i.Z % M.+XOX.X^.Q.W.^.~.{.W.W.W.W.Y.C.C.C.M.K.K.I.T.T.K.v.t.q.3.q./ x x R 7.r.e.t.q.%.& 1./ % l S S y.S S i.i.i.i.",
"y.i.y.u.i.u.y.i.z / OX+XOX|.Q.^.W.^.'.I.D.D.K.D.K.D.C.M.C.D.k.x.v.z.t.t.q.1.7.( % Y 1.& & ~ ` %.` / % x.3.I % B S S A j S y.y.i.",
"i.y.y.u.y.S S V % D.+X+X.X'.(.(.W.T.C.t.k.C.z.t.t.t.t.t.t.t.t.t.t.t.t.w.3.3.,.I I ).OX/.` % x R R & I /.t.` x $ d 7 7 S u.y.y.y.",
"y.y.u.S A A y.v Y }.+XOXXX!.W.W.W.U.M.t.D.z.t.t.t.t.t.t.t.t.t.t.t.t.t.7.1.q.) P q. XW. X XD.( T T ( E.).t.<./ & u V j y.i.h i.i.",
"u.u.y.h 7 7 F u z.+X+XOX].~.Q.W.W.U.v.C.C.t.t.t.t.t.t.t.t.t.t.t.t.t.3.3.1.3.( % L.).W.W.!.).].^.~._.).C.e.<.) ~ % i S y.S u.i.i.",
"u.i.i.i.y.S Z % W.OXXX+X^.~.Q.W.W.K.x.K.k.t.t.t.t.t.t.t.t.t.t.t.t.7.3.3.3.%.R % (.!.W.W.K.U.W.W.W.W.K.t. .O.^ ( R % l i.S u.u.i.",
"y.S y.i.u.i.v ( }.'..XOX!.W.W.W.T.K.v.D.t.t.t.t.t.t.t.t.t.t.t.t.e.3.1.<.7.) P T XXQ.T.U.K.K.U.T.W.F.t.4. .K b ` ( I % B y.S y.h ",
"y.i.i.S 6 D $ <.(.].}. X!.W.W.W.D.K.C.v.t.t.t.t.t.t.t.t.t.t.t.t.3.<.3.3.%.( & e.|.H.D.M.t.t.t.k.k.t.t...e , b <.` ( x u y.S S y.",
"i.u.i.u.u.k & %.M.(.Q.!.Q.W.W.R.v.M.D.k.t.t.t.t.t.t.t.t.t.t.t.3.1.1.<.,.( Y & E.^.l.>.{ q.t.v.D.k.t.t.9.6.e W <.` ( R % e 7 S i.",
"y.y.S S S % x <.3.M.E.W.W.W.W.K.V.x.C.t.t.t.t.t.t.t.t.t.t.t.3.3.<.<.` ( R % 7._.W.b.e f F.K.D.o.e.t.t.H %.} b <.` ( ( x 9 5 6 S ",
"y.S S S b % x ,.<.v.x.K.W.W.W.C.K.x.x.t.t.t.t.t.t.t.t.t.e.3.<.<.%.) ( T % ( ~.Q.T.k.:.f X.;.;.K q.t.t.6.a <.y } ) ( ( I # 5 6 6 ",
"y.A A D % / & ` <.3.D.c.x.M.v.D.M.C.t.t.t.t.t.t.t.t.t.7.<.<.%.) ~ Y & & 0.W.R.W.C.t.z.D.9.+.H e e.t.t.3.b O.O.e p E ~ I # : 5 4 ",
"u.S g u Y Y.% ~ <.<.q.D.K.C.D.Z.M.t.t.t.t.t.t.t.t.r.1.1.%.( R x % x 0.E.E.E.E.C.k.V.D.k.t.t.4.y t.6.7.<.[ O.b ^ E p q % + - 5 5 ",
"u.A B % x.)./ x ` <.<.q.k.t.t.t.t.t.t.t.t.t.t.t.t.3.q.%.( x & %.%.x D.T.Y.D.x.z.C.k.t.9.t.t.9.y t.4.N <.M *.N n ( ( I $ ; = 3 6 ",
"y.y.i P D.Q.L.& T %.<.3.3.e.t.t.t.t.t.t.t.t.t.t.t.7.3.( P & C.}.z.% ) t.k.v.Z.C.z.t.e. .t.t.6.H 7.<.} b y <.( t ( R % +   : 4 6 ",
"j F % ~ D.Y.(.1.% ~ <.7.7.3.3.3.q.t.t.t.t.t.t.t.t.q.<.R % M..XU.1.x Y e.k.v.z.k.t.t.t.$.q.w.K W <.<.<.| e _ ( v Y % @ = * 6 6 7 ",
"u.s $ ) @.C.Q.'.%.$ R %.3.3.3.3.3.1.q.r.t.t.t.t.r.1.` P Y ].Q.M.%.9 % :.t.t.t.e.q.:.w.t.7.7.w %.<.<.<.%.e ( ( Y % + = * : 4 6 u.",
"i.C & _ y h.E.^.[.Q % P ) <.<.3.1.3.1.1.r.r.e.7.1.,.( & e.E.T.t.%.i % +.w.t.t.r. .K { e.*.K e <.1.<.<.M m ( Y % + = - - < 4 j S ",
"S l $ ^ e t.C.P.J.j.M.P & T ` <.1.7.3.3.3.1.<.1.3.` ~ & Y.E.K.e.<./ % O.K q.q.t.t.:.y 3.<.[ e <.<.<.) q ~ R % @   - - 4 5 6 S u.",
"u.y $ q e e.] X.a.S.oX~.,.& & Y ) %.1.1.1.1.3.7.,.( I T !.W.D.e.<.U & 1.{ 7.K 9.6.q.b <.1.<.e *.<.` n E ( & #   * - = 5 6 S A u.",
"S y % m e 7.H o.p.S.Q.(.XXN./ % & Y ( ` ,.1.3.<.( ~ % e.|.Y.x.w.W u I 1...e.4.w , $.b <.1.<.b <.<.) v ( T % 8 * - - : 4 S i.7 j ",
"S s $ / N | K e.-.l.P.W.~.S.l.;.c % % x T ~ ~ R I % / ].^.s.:.8.t % ~ } 7.q.t.;.e e e &.<.<.M <.%.( t ( & $ * - 1 4 5 j i.y.7 S ",
"u.d % Y ) M q.9.6.@.l.a.n.H.f ).p.@.e.( P % % % Y q.}.'.a.f 9.q.( % ` *.K [ t.4.H 1.b b *.<.b *.` ( q ~ % 8 * : 3 5 4 j i.y.S i.",
"S A i & _ N *.H q.K b.J j.P.J Q.f.).OX X_.(.I.).].XX).W.m.L t. .~ Y 1.<.1.K q.O.[ q.<.M y <.M %.) ) t c $ ;   : 6 5 6 7 y.S y.i.",
"i.A Z % R N O.y e.9.t.C B.d.g.W.X.T.A.P.`. Xf.^.l.P.D.K.D.@.t.[ _ ( <.<.1.b %.} | 1.<.<.M } N O.) _ t u $ * * 5 6 S 7 A u.y.y.y.",
"A S A u x m b e | e.t.{ 5.L m.K.L @.g.f.W.I.l.a.f.W.F.C.K.K q.W E E N <.<.O.N | [ <.<.} O.M O.b ) ( t % + * - 6 S i.i.i.i.u.S y.",
"y.y.6 r $ c E <.<.*.e.6.H L l.C.>.g.n.L S.H.G.X.B.M.C.K.k.[ <.&.e Q e [ <.<.M y W 1.<.N ! [ <.a v ( r $ X * : 7 i.S S S u.S u.i.",
"y.6 5 - @ $ ~ ( ' *.7.t.$.e t.V.b.d.{ l.B.e H H d.U.D.k.t.| W <.^ e M b | *.<.b N <.<.O.e *.<.) t t 0 # = * 3 j i.u.y.y.i.u.i.i.",
"S 6 : = ; $ I ~ e #.K 7.q.y 4.t.w.f L M.C.-.w w h.x.[ w.3.<.w %.) ^ q N e #.<.O.b <.<.M [ [ <.) ( t 9 #   * 5 S i.i.i.i.i.u.i.i.",
"6 6 : =   o % R Q y N <.1.b { t.t. .{ t.t.t.[ , 4.4.b 2.1.O.w _ ( ( q O.w e %.&.y <.<.b %.[ b E Q v $ O * 4 S i.y.i.S u.A 7 i.i.",
"6 6 5 : *   @ & ~ n b <.1.*.2 7.t...+.t.t.t.$.y e.=.y b ' e 2 E E ^ t b a *.*.y b <.<.N %.<.( m v c $ = : 6 S S S i.j S S S h i.",
"6 5 6 3 : * ; # x ( v b O.1.y [ 1.b =.+.w.4.=.[ 3.q.b 2 y O.y q E Q > t _ W y y M *.*.a %.) ( ( / & + * 5 j i.i.i.i.i.i.i.i.S i.",
"7 5 6 5 1 - * ; $ P ( Q t N y [ &.e %.b ' b 1.b %.3.*.e *.` ~ q t n t ( ( ~ t q w O.%.b ( ( ( / & # = 4 5 S S S S y.S S i.i.i.i.",
"j 6 5 6 5 < - * 8 $ P / ( E 2 O.[ K 3.<.e w ' K N <.#.y _ T ~ ( Q Q t ( ` ( ( ( t ( ) Q Q ( ~ & $ X : 6 5 S A S S S A j S y.y.i.",
"i.6 5 6 5 3 - * * X $ & Y E q E e %.<.%.y [ } } y <.N m / % Y E t Q E q Q ( ( ( q ( ( ( n R & $ X : 6 6 6 j A j 7 7 7 S u.y.y.y.",
"y.y.7 4 3 4 4 : -   ; @ $ % u 9 T ( ~ q N ` ` %.y ) q ~ ~ % / M > Q ( E w ) ` E t ( ( ~ x % @ ; = 5 6 7 A 7 7 7 7 A j y.i.h i.i.",
"u.u.y.5 3 3 6 6 4 : = * = 8 + # % % % u T R ( ( p v n ) ( % R ~ q p ~ ( n m ~ q Q ~ I % $ O * - 4 6 5 S u.A 7 j S S S y.S u.i.i.",
"u.i.i.i.j 6 6 5 4 4 3 1 - * * = = X + @ $ % % & c i ~ ( ( x x ( ~ t q p q v t v I % $ 0 = * * 3 6 3 h i.i.i.u.i.u.i.i.i.S u.u.i.",
"y.S y.i.u.u.h 5 5 4 6 6 4 3 : * - * *   = ; O @ $ $ % & P P % R ( ( Q m m 0 u % $ O = * * * < 3 6 4 S A i.i.u.i.i.i.u.S y.S y.h ",
"y.i.i.S 6 y.i.A 3 3 5 6 5 3 4 5 5 4 3 : : : - =   ; ; + $ % % % & x x & % % # O     * * * : 5 6 6 S i.y.u.i.i.i.j i.i.y.i.S S y.",
"i.y.i.u.u.S y.u.7 7 5 3 5 6 6 6 5 3 4 6 5 6 6 5 : 4 3 : = ; ; O + + + O o . * *   *     3 6 6 6 h 6 S i.u.i.i.i.6 i.u.i.u.i.i.i.",
"y.y.S S y.u.S u.S A i.A j 6 5 4 5 6 6 4 4 6 6 6 5 6 6 6 3 4 3 : * * * * * *   *   * : 4 6 5 6 7 y.i.u.A A u.i.i.S i.i.u.7 y.i.i.",
"y.S S S i.i.i.i.i.S A i.S i.y.S S A 5 5 6 6 7 7 6 7 5 5 4 6 6 5 3 : = - - - - : 1 3 3 6 5 h y.y.y.u.A A S S i.i.y.i.y.S A i.u.y.",
"y.A A S i.y.i.i.i.y.y.i.i.i.i.y.u.y.6 i.S A S S j u.y.j 6 7 5 4 6 3 3 3 4 3 5 6 6 5 6 7 S i.i.y.u.y.6 i.y.S S S A i.i.y.y.i.S A ",
"u.S 7 7 A S i.i.S S A u.i.S A S i.u.A u.u.u.A A u.i.S y.u.i.S j j 5 3 3 3 5 6 6 5 6 7 y.i.S A S i.u.A u.u.u.A A u.i.S y.u.i.u.y.",
"u.A A S S S A y.y.S y.S S S S y.u.y.i.i.i.i.u.y.u.S S y.y.y.A u.u.A A S S S A y.y.S y.S S S S y.u.y.i.i.i.i.u.y.u.S S y.y.y.A u.",
"y.u.y.u.u.y.y.S y.y.u.S i.i.y.i.S u.y.i.y.y.i.S y.i.j y.S S A u.y.y.y.u.u.y.y.S y.y.y.S i.i.y.i.S u.u.i.y.y.i.S y.i.j y.S S A u."
};
