/* XPM */
static char *_da95f680e1f4ed6a5bd365e11d7a578DkeYSqtwmMLphnls[] = {
/* columns rows colors chars-per-pixel */
"24 24 4 1 ",
"  c #32280D",
". c #EE4D00",
"X c #6F7CD4",
"o c #D8D3F1",
/* pixels */
"........................",
"........................",
"..........   ...........",
"..........   X..........",
"......... XXX X.........",
"........   o   .........",
"........      X ........",
"........X      X .......",
".......       .  .......",
"...... X .     .X ......",
"..... X . XXX  .X ......",
".....  ..X X   .  ......",
"........ X   X . .......",
"........ XX XX .........",
".........o  XX .........",
"..........X    .........",
"..........  oo .........",
".........  .   .........",
".............X .........",
".............  .........",
"............. ..........",
"............. ..........",
"........................",
"........................"
};
