/* XPM */
static char *ac9ac7e50a7e4fe7c1ee2f3600d79827XZs8LOzy4TMw5d30[] = {
/* columns rows colors chars-per-pixel */
"64 64 217 2 ",
"   c #32270E",
".  c #38270C",
"X  c #37280D",
"o  c #3C280C",
"O  c #332913",
"+  c #382910",
"@  c #352B1B",
"#  c #3C2D1C",
"$  c #362D23",
"%  c #392E25",
"&  c #3A2F28",
"*  c #37312B",
"=  c #3B302C",
"-  c #3B3332",
";  c #3D363C",
":  c #43290C",
">  c #4B2A0A",
",  c #552C0A",
"<  c #5C2E09",
"1  c #412B13",
"2  c #492E19",
"3  c #542E11",
"4  c #4E3118",
"5  c #52311E",
"6  c #692F07",
"7  c #622E09",
"8  c #62300C",
"9  c #6B3108",
"0  c #743107",
"q  c #783408",
"w  c #652F10",
"e  c #753517",
"r  c #7B3512",
"t  c #432F21",
"y  c #443024",
"u  c #42332D",
"i  c #4B3529",
"p  c #553425",
"a  c #423433",
"s  c #43373D",
"d  c #583B3B",
"f  c #683929",
"g  c #7C3B2A",
"h  c #623B35",
"j  c #6E3E37",
"k  c #4B443B",
"l  c #3E3945",
"z  c #3E3B48",
"x  c #443A43",
"c  c #403B4C",
"v  c #493C4B",
"b  c #553E46",
"n  c #423E54",
"m  c #433F59",
"M  c #533C52",
"N  c #4E4544",
"B  c #52424E",
"V  c #494356",
"C  c #42405B",
"Z  c #4D425C",
"A  c #4E4B5F",
"S  c #584555",
"D  c #5B5558",
"F  c #664048",
"G  c #614958",
"H  c #6C4A5C",
"J  c #754757",
"K  c #655750",
"L  c #454363",
"P  c #4D4C61",
"I  c #46456A",
"U  c #4B466A",
"Y  c #4E4B6C",
"T  c #57476F",
"R  c #474872",
"E  c #4D4C74",
"W  c #4A4C7D",
"Q  c #56537C",
"!  c #65496B",
"~  c #794B69",
"^  c #605E6D",
"/  c #7D5A6B",
"(  c #654A79",
")  c #7D4F70",
"_  c #755677",
"`  c #6B6770",
"'  c #75727C",
"]  c #823406",
"[  c #8C3706",
"{  c #8F3805",
"}  c #913604",
"|  c #933906",
" . c #983A05",
".. c #94390D",
"X. c #873712",
"o. c #973D17",
"O. c #A53C05",
"+. c #AB3E04",
"@. c #A43C0B",
"#. c #B33B00",
"$. c #BA3D01",
"%. c #BD3E0C",
"&. c #B33E17",
"*. c #883F25",
"=. c #923B20",
"-. c #C13F00",
";. c #8E4018",
":. c #AE400B",
">. c #B54003",
",. c #BA4003",
"<. c #AB4111",
"1. c #AC431A",
"2. c #BF4616",
"3. c #9B4626",
"4. c #8C4532",
"5. c #965333",
"6. c #A6452A",
"7. c #B7442A",
"8. c #B84429",
"9. c #B64A2B",
"0. c #A64534",
"q. c #A9473B",
"w. c #B14830",
"e. c #AF503F",
"r. c #B4503E",
"t. c #C54101",
"y. c #CE4301",
"u. c #C4420C",
"i. c #CC430D",
"p. c #D34501",
"a. c #DD4701",
"s. c #D8470B",
"d. c #DE4709",
"f. c #D44A0C",
"g. c #C44116",
"h. c #CC4414",
"j. c #CB4819",
"k. c #D44712",
"l. c #D94C18",
"z. c #CB511E",
"x. c #DB5317",
"c. c #E14700",
"v. c #E64901",
"b. c #EE4B00",
"n. c #E24808",
"m. c #EB4E09",
"M. c #EA510E",
"N. c #E84F13",
"B. c #E5551C",
"V. c #C44825",
"C. c #D05630",
"Z. c #E25822",
"A. c #DC612F",
"S. c #E06336",
"D. c #884949",
"F. c #994949",
"G. c #8A4A54",
"H. c #8C4D5E",
"J. c #954957",
"K. c #9F4D59",
"L. c #955851",
"P. c #A74942",
"I. c #A75540",
"U. c #BB5848",
"Y. c #A1624C",
"T. c #AE705E",
"R. c #8F536E",
"E. c #A35962",
"W. c #BA6F6A",
"Q. c #D36A49",
"!. c #CC705E",
"~. c #D6745B",
"^. c #C2766E",
"/. c #BC8177",
"(. c #C08276",
"). c #4C4E85",
"_. c #5F4F80",
"`. c #4D5081",
"'. c #4D518C",
"]. c #5A5585",
"[. c #5C5B82",
"{. c #52558C",
"}. c #4D5292",
"|. c #4F5499",
" X c #515591",
".X c #5B5F96",
"XX c #55579E",
"oX c #6F4E8E",
"OX c #6A578C",
"+X c #645294",
"@X c #726E92",
"#X c #7B679B",
"$X c #5158A5",
"%X c #575FA8",
"&X c #6D5BA0",
"*X c #5B62AA",
"=X c #5C64B2",
"-X c #5F69BB",
";X c #796AA7",
":X c #6A69B3",
">X c #636CBA",
",X c #6B71BC",
"<X c #7B74B0",
"1X c #646EC2",
"2X c #6974C7",
"3X c #6A75CC",
"4X c #777FCB",
"5X c #6F7BD3",
"6X c #816FAC",
"7X c #7F88CE",
"8X c #888797",
"9X c #9788B8",
"0X c #AB8BAC",
"qX c #9EA2BE",
"wX c #A5A3BD",
"eX c #C68E97",
"rX c #8D8CCB",
/* pixels */
"b.b.b.b.b.b.b.b.b.b.b.b.b.b.b.b.b.b.b.b.b.b.b.b.b.b.b.b.b.b.b.b.b.b.b.b.b.b.b.b.b.b.b.b.b.b.b.b.b.b.b.b.b.b.b.b.b.b.b.b.b.b.b.b.",
"b.b.b.b.b.b.b.b.b.b.b.b.b.b.b.b.b.b.b.b.b.b.b.b.b.b.b.b.b.b.b.b.b.b.b.b.b.b.b.b.b.b.b.b.b.b.b.b.b.b.b.b.b.b.b.b.b.b.b.b.b.b.b.b.",
"b.b.b.b.b.b.b.b.b.b.b.b.b.b.b.b.b.b.b.b.b.b.b.b.b.b.b.b.b.b.b.b.b.b.b.b.b.b.b.b.b.b.b.b.b.b.b.b.b.b.b.b.b.b.b.b.b.b.b.b.b.b.b.b.",
"b.b.b.b.b.b.b.b.b.b.b.b.b.b.b.b.b.b.b.b.v.v.v.v.v.v.v.b.b.b.b.b.b.b.b.b.b.b.b.b.b.b.b.b.b.b.b.b.b.b.b.b.b.b.b.b.b.b.b.b.b.b.b.b.",
"b.b.b.b.b.b.b.b.b.b.b.b.b.b.b.b.b.b.b.a.p.y.y.y.y.y.p.a.b.b.b.b.b.b.b.b.b.b.b.b.b.b.b.b.b.b.b.b.b.b.b.b.b.b.b.b.b.b.b.b.b.b.b.b.",
"b.b.b.b.b.b.b.b.b.b.b.b.b.b.b.b.b.b.b.p.$.#.#.#.#.#.#.p.v.b.b.b.b.b.b.b.b.b.b.b.b.b.b.b.b.b.b.b.b.b.b.b.b.b.b.b.b.b.b.b.b.b.b.b.",
"b.b.b.b.b.b.b.b.b.b.b.b.b.b.b.b.b.b.b.,. .} } } } } } $.d.n.b.b.b.b.b.b.b.b.b.b.b.b.b.b.b.b.b.b.b.b.b.b.b.b.b.b.b.b.b.b.b.b.b.b.",
"b.b.b.b.b.b.b.b.b.b.b.b.b.b.b.b.b.b.b.O.0 7 7 7 7 7 7 ..u.s.n.b.b.b.b.b.b.b.b.b.b.b.b.b.b.b.b.b.b.b.b.b.b.b.b.b.b.b.b.b.b.b.b.b.",
"b.b.b.b.b.b.b.b.b.b.b.b.b.b.b.b.b.b.v.| >           X r &.h.d.b.b.b.b.b.b.b.b.b.b.b.b.b.b.b.b.b.b.b.b.b.b.b.b.b.b.b.b.b.b.b.b.b.",
"b.b.b.b.b.b.b.b.b.b.b.b.b.b.b.b.b.b.v...4 @ @ @ @ @ # h D.P.V.d.d.d.d.d.d.n.b.b.b.b.b.b.b.b.b.b.b.b.b.b.b.b.b.b.b.b.b.b.b.b.b.b.",
"b.b.b.b.b.b.b.b.b.b.b.b.b.b.b.b.b.b.v.o.p % % & % % = Z _._ P.h.h.h.h.h.h.k.n.b.b.b.b.b.b.b.b.b.b.b.b.b.b.b.b.b.b.b.b.b.b.b.b.b.",
"b.b.b.b.b.b.b.b.b.b.b.b.b.b.b.b.b.b.v.3.d x x x s ; ; L )._.G.7.7.7.8.8.8.V.s.b.b.b.b.b.b.b.b.b.b.b.b.b.b.b.b.b.b.b.b.b.b.b.b.b.",
"b.b.b.b.b.b.b.b.b.b.b.b.b.b.b.b.b.b.m.I._ [.[.].E U I L C Z H H.H.H.H.J.J.P.j.b.b.b.b.b.b.b.b.b.b.b.b.b.b.b.b.b.b.b.b.b.b.b.b.b.",
"b.b.b.b.b.b.b.b.b.b.b.b.b.b.b.b.b.b.m.W.9X7X4X3X>X%X|.C % = U XXXXXXXX+XoXR.V.b.b.b.b.b.b.b.b.b.b.b.b.b.b.b.b.b.b.b.b.b.b.b.b.b.",
"b.b.b.b.b.b.b.b.b.b.b.b.b.b.b.b.b.b.m.^.9XrX4X2X*X XW l @ $ m ).).).).( ~ J.V.b.b.b.b.b.b.b.b.b.b.b.b.b.b.b.b.b.b.b.b.b.b.b.b.b.",
"b.b.b.b.b.b.b.b.b.b.b.b.b.b.b.b.b.b.m.!.0X9X<X=X{.L l * O @ ; m m m m F 4.6.h.b.b.b.b.b.b.b.b.b.b.b.b.b.b.b.b.b.b.b.b.b.b.b.b.b.",
"b.b.b.b.b.b.b.b.b.b.b.b.b.b.b.b.b.b.m.~.eX0X;X$XI -       O $ = = = u e O.$.p.b.b.b.b.b.b.b.b.b.b.b.b.b.b.b.b.b.b.b.b.b.b.b.b.b.",
"b.b.b.b.b.b.b.b.b.b.b.b.b.b.b.b.b.b.m.S.~.W./ U c %       @ ; m m m n h r } u.m.m.b.b.b.b.b.b.b.b.b.b.b.b.b.b.b.b.b.b.b.b.b.b.b.",
"b.b.b.b.b.b.b.b.b.b.b.b.b.b.b.b.b.b.b.M.B.z.*.y # O       % C }.}.}.'.v 2 8 1.B.N.m.b.b.b.b.b.b.b.b.b.b.b.b.b.b.b.b.b.b.b.b.b.b.",
"b.b.b.b.b.b.b.b.b.b.b.b.b.b.b.b.b.b.v.b.b.p.[ , : .       % L }.}.}.'.n $ 4 3.S.Z.M.b.b.b.b.b.b.b.b.b.b.b.b.b.b.b.b.b.b.b.b.b.b.",
"b.b.b.b.b.b.b.b.b.b.b.b.b.b.b.b.c.p.y.p.s.i.@.X.w :       @ ; C C C n ; % i L.^.Q.B.b.b.b.b.b.b.b.b.b.b.b.b.b.b.b.b.b.b.b.b.b.b.",
"b.b.b.b.b.b.b.b.b.b.b.b.b.b.b.b.p.-.#.%.g.g.g.g.X.3         O O O O O $ & N @XwX(.A.b.b.b.b.b.b.b.b.b.b.b.b.b.b.b.b.b.b.b.b.b.b.",
"b.b.b.b.b.b.b.b.b.b.b.b.b.b.b.b.y.O.} o.0.q.q.q.g 4             O O @ - l V ' 8XT.C.b.b.b.b.b.b.b.b.b.b.b.b.b.b.b.b.b.b.b.b.b.b.",
"b.b.b.b.b.b.b.b.b.b.b.b.b.b.b.b.,.] 8 j ~ ) ) ) F y             O @ % c I E D K 5.j.b.b.b.b.b.b.b.b.b.b.b.b.b.b.b.b.b.b.b.b.b.b.",
"b.b.b.b.b.b.b.b.b.b.b.b.b.b.b.b.O.8 O C }.$X$X$XI -             @ % - I }.'.x : ] t.b.b.b.b.b.b.b.b.b.b.b.b.b.b.b.b.b.b.b.b.b.b.",
"b.b.b.b.b.b.b.b.b.b.b.b.b.b.b.b.+.8 + s Z U U U x %             = l m L I Z f ] +.p.b.b.b.b.b.b.b.b.b.b.b.b.b.b.b.b.b.b.b.b.b.b.",
"b.b.b.b.b.b.b.b.b.b.b.b.b.b.b.b.+.9 o 1 t y y y 2 1 o .         ; R '.C - p ..p.a.v.b.b.b.b.b.b.b.b.b.b.b.b.b.b.b.b.b.b.b.b.b.b.",
"b.b.b.b.b.b.b.b.b.b.b.b.b.b.b.b.>.q , , , , , , , , > : O O O O l R '.n @ , O.b.b.b.b.b.b.b.b.b.b.b.b.b.b.b.b.b.b.b.b.b.b.b.b.b.",
"b.b.b.b.b.b.b.b.b.b.b.b.b.b.b.b.y.+. . . . . . .[ ] 0 3 # @ @ @ ; n L ; @ , O.b.b.b.b.b.b.b.b.b.b.b.b.b.b.b.b.b.b.b.b.b.b.b.b.b.",
"b.b.b.b.b.b.b.b.b.b.b.b.b.b.b.b.b.b.v.v.v.v.v.v.p.$.O.e y = = = = = - $ O , O.b.b.b.b.b.b.b.b.b.b.b.b.b.b.b.b.b.b.b.b.b.b.b.b.b.",
"b.b.b.b.b.b.b.b.b.b.b.b.b.b.b.b.b.b.b.b.b.b.v.a.t.O...j B V V V n c c - @ 3 @.n.v.b.b.b.b.b.b.b.b.b.b.b.b.b.b.b.b.b.b.b.b.b.b.b.",
"b.b.b.b.b.b.b.b.b.b.b.b.b.b.b.b.b.b.b.b.b.b.p.t.@.r f G [..X.X.X{.W R c = 5 o.k.d.v.b.b.b.b.b.b.b.b.b.b.b.b.b.b.b.b.b.b.b.b.b.b.",
"b.b.b.b.b.b.b.b.b.b.b.b.b.b.b.b.b.b.b.b.b.v.t.#.X.p - Q ,X5X5X5X1X=XXXI ; p =.g.k.n.b.b.b.b.b.b.b.b.b.b.b.b.b.b.b.b.b.b.b.b.b.b.",
"b.b.b.b.b.b.b.b.b.b.b.b.b.b.b.b.b.b.b.b.b.a.:.X.f b C .X2X5X2X1X%X`.I L C S J F.w.h.p.d.d.n.b.b.b.b.b.b.b.b.b.b.b.b.b.b.b.b.b.b.",
"b.b.b.b.b.b.b.b.b.b.b.b.b.b.b.b.b.b.b.b.b.s.;.p B E }.=X3X3X-X%XW z * C ).{.].OXG.6.$.u.h.k.n.b.b.b.b.b.b.b.b.b.b.b.b.b.b.b.b.b.",
"b.b.b.b.b.b.b.b.b.b.b.b.b.b.b.b.b.b.b.b.b.f.4.N A W }.=X1X1X*X}.L = O c ).}.}.}.H *.O.1.8.V.k.v.v.v.v.b.b.b.b.b.b.b.b.b.b.b.b.b.",
"b.b.b.b.b.b.b.b.b.b.b.b.b.b.b.b.b.b.b.b.b.x.Y.' ^ P C {.=X*XQ V s # . - c C C C b f e D.R.E.9.y.y.y.p.a.b.b.b.b.b.b.b.b.b.b.b.b.",
"b.b.b.b.b.b.b.b.b.b.b.b.b.b.b.b.b.b.b.b.b.Z./.qX' k @ C }.'.v 1 : : : . O O O O @ % a Q ,X;XL.#.#.#.#.p.v.b.b.b.b.b.b.b.b.b.b.b.",
"b.b.b.b.b.b.b.b.b.b.b.b.b.b.b.b.b.b.b.b.b.x.T.8X` k @ c E E h 9 9 9 9 , o       % a v ].:X;XD.} } } } $.p.c.b.b.b.b.b.b.b.b.b.b.",
"b.b.b.b.b.b.b.b.b.b.b.b.b.b.b.b.b.b.b.b.b.f.5.D N u $ ; n b *.+.+.+.+.0 > . . . u M T OX&XOXF 7 7 7 7 } $.y.a.b.b.b.b.b.b.b.b.b.",
"b.b.b.b.b.b.b.b.b.b.b.b.b.b.b.b.b.b.b.b.b.y.q   @ % = = = p <.b.b.b.v. ., : : : d ! oXoXoX( s       X 0 O.$.p.b.b.b.b.b.b.b.b.b.",
"b.b.b.b.b.b.b.b.b.b.b.b.b.b.b.b.b.b.b.b.b.p.q   a V Y Y Y H 9.b.b.b.b.,.{ ] ] ] *.F.K.K.K.D.p       . < q } t.b.b.b.b.b.b.b.b.b.",
"b.b.b.b.b.b.b.b.b.b.b.b.b.b.b.b.b.b.b.b.b.p.] o B .X>X>X>X#XU.b.b.b.b.c.p.p.p.p.f.k.l.l.l.2.r o o o o : : 8 #.b.b.b.b.b.b.b.b.b.",
"b.b.b.b.b.b.b.b.b.b.b.b.b.b.b.b.b.b.b.b.b.p.{ , S &X3X3X3X6XU.b.b.b.b.b.b.b.b.b.b.b.b.b.b.p.{ , , , , : . , +.b.b.b.b.b.b.b.b.b.",
"b.b.b.b.b.b.b.b.b.b.b.b.b.b.b.b.b.b.b.b.b.c.,. .D.OX>X>X>X#XU.b.b.b.b.b.b.b.b.b.b.b.b.b.b.c.,. . . .| 9 : , +.b.b.b.b.b.b.b.b.b.",
"b.b.b.b.b.b.b.b.b.b.b.b.b.b.b.b.b.b.b.b.b.b.b.v.e._ $X$X$XOXr.b.b.b.b.b.b.b.b.b.b.b.b.b.b.b.b.b.v.v.c.| , < +.b.b.b.b.b.b.b.b.b.",
"b.b.b.b.b.b.b.b.b.b.b.b.b.b.b.b.b.b.b.b.b.b.v.a.0.H W W W ! w.b.b.b.b.b.b.b.b.b.b.b.b.b.b.b.b.b.b.b.b.+.q ] ,.b.b.b.b.b.b.b.b.b.",
"b.b.b.b.b.b.b.b.b.b.b.b.b.b.b.b.b.b.b.b.b.b.p.t.o.h l l l d 1.b.b.b.b.b.b.b.b.b.b.b.b.b.b.b.b.b.b.b.b.y.>.,.p.b.b.b.b.b.b.b.b.b.",
"b.b.b.b.b.b.b.b.b.b.b.b.b.b.b.b.b.b.b.b.b.v.t.#.] ,       , O.b.b.b.b.b.b.b.b.b.b.b.b.b.b.b.b.b.b.b.b.b.b.b.b.b.b.b.b.b.b.b.b.b.",
"b.b.b.b.b.b.b.b.b.b.b.b.b.b.b.b.b.b.b.b.b.a.+.] 6 >       , +.b.b.b.b.b.b.b.b.b.b.b.b.b.b.b.b.b.b.b.b.b.b.b.b.b.b.b.b.b.b.b.b.b.",
"b.b.b.b.b.b.b.b.b.b.b.b.b.b.b.b.b.b.b.b.b.p.[ , > : o o o < +.b.b.b.b.b.b.b.b.b.b.b.b.b.b.b.b.b.b.b.b.b.b.b.b.b.b.b.b.b.b.b.b.b.",
"b.b.b.b.b.b.b.b.b.b.b.b.b.b.b.b.b.b.b.b.b.p.{ , , , , , , 0 >.b.b.b.b.b.b.b.b.b.b.b.b.b.b.b.b.b.b.b.b.b.b.b.b.b.b.b.b.b.b.b.b.b.",
"b.b.b.b.b.b.b.b.b.b.b.b.b.b.b.b.b.b.b.b.b.c.,. . . . . . .O.y.b.b.b.b.b.b.b.b.b.b.b.b.b.b.b.b.b.b.b.b.b.b.b.b.b.b.b.b.b.b.b.b.b.",
"b.b.b.b.b.b.b.b.b.b.b.b.b.b.b.b.b.b.b.b.b.b.b.v.v.v.v.v.v.b.b.b.b.b.b.b.b.b.b.b.b.b.b.b.b.b.b.b.b.b.b.b.b.b.b.b.b.b.b.b.b.b.b.b.",
"b.b.b.b.b.b.b.b.b.b.b.b.b.b.b.b.b.b.b.b.b.b.b.b.b.b.b.b.b.b.b.b.b.b.b.b.b.b.b.b.b.b.b.b.b.b.b.b.b.b.b.b.b.b.b.b.b.b.b.b.b.b.b.b.",
"b.b.b.b.b.b.b.b.b.b.b.b.b.b.b.b.b.b.b.b.b.b.b.b.b.b.b.b.b.b.b.b.b.b.b.b.b.b.b.b.b.b.b.b.b.b.b.b.b.b.b.b.b.b.b.b.b.b.b.b.b.b.b.b.",
"b.b.b.b.b.b.b.b.b.b.b.b.b.b.b.b.b.b.b.b.b.b.b.b.b.b.b.b.b.b.b.b.b.b.b.b.b.b.b.b.b.b.b.b.b.b.b.b.b.b.b.b.b.b.b.b.b.b.b.b.b.b.b.b.",
"b.b.b.b.b.b.b.b.b.b.b.b.b.b.b.b.b.b.b.b.b.b.b.b.b.b.b.b.b.b.b.b.b.b.b.b.b.b.b.b.b.b.b.b.b.b.b.b.b.b.b.b.b.b.b.b.b.b.b.b.b.b.b.b.",
"b.b.b.b.b.b.b.b.b.b.b.b.b.b.b.b.b.b.b.b.b.b.b.b.b.b.b.b.b.b.b.b.b.b.b.b.b.b.b.b.b.b.b.b.b.b.b.b.b.b.b.b.b.b.b.b.b.b.b.b.b.b.b.b.",
"b.b.b.b.b.b.b.b.b.b.b.b.b.b.b.b.b.b.b.b.b.b.b.b.b.b.b.b.b.b.b.b.b.b.b.b.b.b.b.b.b.b.b.b.b.b.b.b.b.b.b.b.b.b.b.b.b.b.b.b.b.b.b.b.",
"b.b.b.b.b.b.b.b.b.b.b.b.b.b.b.b.b.b.b.b.b.b.b.b.b.b.b.b.b.b.b.b.b.b.b.b.b.b.b.b.b.b.b.b.b.b.b.b.b.b.b.b.b.b.b.b.b.b.b.b.b.b.b.b.",
"b.b.b.b.b.b.b.b.b.b.b.b.b.b.b.b.b.b.b.b.b.b.b.b.b.b.b.b.b.b.b.b.b.b.b.b.b.b.b.b.b.b.b.b.b.b.b.b.b.b.b.b.b.b.b.b.b.b.b.b.b.b.b.b.",
"b.b.b.b.b.b.b.b.b.b.b.b.b.b.b.b.b.b.b.b.b.b.b.b.b.b.b.b.b.b.b.b.b.b.b.b.b.b.b.b.b.b.b.b.b.b.b.b.b.b.b.b.b.b.b.b.b.b.b.b.b.b.b.b.",
"b.b.b.b.b.b.b.b.b.b.b.b.b.b.b.b.b.b.b.b.b.b.b.b.b.b.b.b.b.b.b.b.b.b.b.b.b.b.b.b.b.b.b.b.b.b.b.b.b.b.b.b.b.b.b.b.b.b.b.b.b.b.b.b."
};
