/* XPM */
static char *_b5eb6e4ba45453adb45af766bc61cbd3Fcvug30GriXhadI[] = {
/* columns rows colors chars-per-pixel */
"64 64 216 2 ",
"   c #32270E",
".  c #38270C",
"X  c #37280D",
"o  c #3C280C",
"O  c #332913",
"+  c #382910",
"@  c #352B1B",
"#  c #3C2D1C",
"$  c #362D23",
"%  c #392E25",
"&  c #3A2F28",
"*  c #37312B",
"=  c #3B302C",
"-  c #3B3332",
";  c #3D363C",
":  c #43290C",
">  c #4B2A0A",
",  c #552C0A",
"<  c #5C2E09",
"1  c #412B13",
"2  c #492E19",
"3  c #542E11",
"4  c #4E3118",
"5  c #52311E",
"6  c #692F07",
"7  c #622E09",
"8  c #62300C",
"9  c #6B3108",
"0  c #743107",
"q  c #783408",
"w  c #652F10",
"e  c #753517",
"r  c #7B3512",
"t  c #432F21",
"y  c #443024",
"u  c #42332D",
"i  c #4B3529",
"p  c #553425",
"a  c #423433",
"s  c #43373D",
"d  c #583B3B",
"f  c #683929",
"g  c #7C3B2A",
"h  c #623B35",
"j  c #6E3E37",
"k  c #4B443B",
"l  c #3E3945",
"z  c #3E3B48",
"x  c #443A43",
"c  c #403B4C",
"v  c #493C4B",
"b  c #553E46",
"n  c #423E54",
"m  c #433F59",
"M  c #533C52",
"N  c #4E4544",
"B  c #52424E",
"V  c #494356",
"C  c #42405B",
"Z  c #4D425C",
"A  c #4E4B5F",
"S  c #584555",
"D  c #5B5558",
"F  c #664048",
"G  c #614958",
"H  c #6C4A5C",
"J  c #754757",
"K  c #655750",
"L  c #454363",
"P  c #4D4C61",
"I  c #46456A",
"U  c #4B466A",
"Y  c #4E4B6C",
"T  c #57476F",
"R  c #474872",
"E  c #4D4C74",
"W  c #4A4C7D",
"Q  c #56537C",
"!  c #65496B",
"~  c #794B69",
"^  c #605E6D",
"/  c #7D5A6B",
"(  c #654A79",
")  c #7D4F70",
"_  c #755677",
"`  c #6B6770",
"'  c #75727C",
"]  c #823406",
"[  c #8C3706",
"{  c #8F3805",
"}  c #913604",
"|  c #933906",
" . c #983A05",
".. c #94390D",
"X. c #873712",
"o. c #973D17",
"O. c #A53C05",
"+. c #AB3E04",
"@. c #A43C0B",
"#. c #B33B00",
"$. c #BA3D01",
"%. c #BD3E0C",
"&. c #B33E17",
"*. c #883F25",
"=. c #923B20",
"-. c #C13F00",
";. c #8E4018",
":. c #AE400B",
">. c #B54003",
",. c #BA4003",
"<. c #AB4111",
"1. c #AC431A",
"2. c #BF4616",
"3. c #9B4626",
"4. c #8C4532",
"5. c #965333",
"6. c #A6452A",
"7. c #B7442A",
"8. c #B84429",
"9. c #B64A2B",
"0. c #A64534",
"q. c #A9473B",
"w. c #B14830",
"e. c #AF503F",
"r. c #B4503E",
"t. c #C54101",
"y. c #CE4301",
"u. c #C4420C",
"i. c #CC430D",
"p. c #D34501",
"a. c #DD4701",
"s. c #D8470B",
"d. c #DE4709",
"f. c #D44A0C",
"g. c #C44116",
"h. c #CC4414",
"j. c #CB4819",
"k. c #D44712",
"l. c #D94C18",
"z. c #CB511E",
"x. c #DB5317",
"c. c #E14700",
"v. c #E64901",
"b. c #EE4B00",
"n. c #E24808",
"m. c #EB4E09",
"M. c #EA510E",
"N. c #E84F13",
"B. c #E5551C",
"V. c #C44825",
"C. c #D05630",
"Z. c #E25822",
"A. c #DC612F",
"S. c #E06336",
"D. c #884949",
"F. c #994949",
"G. c #8A4A54",
"H. c #8C4D5E",
"J. c #954957",
"K. c #9F4D59",
"L. c #955851",
"P. c #A74942",
"I. c #A75540",
"U. c #BB5848",
"Y. c #A1624C",
"T. c #AE705E",
"R. c #8F536E",
"E. c #A35962",
"W. c #BA6F6A",
"Q. c #D36A49",
"!. c #CC705E",
"~. c #D6745B",
"^. c #C2766E",
"/. c #BC8177",
"(. c #C08276",
"). c #4C4E85",
"_. c #5F4F80",
"`. c #4D5081",
"'. c #4D518C",
"]. c #5A5585",
"[. c #5C5B82",
"{. c #52558C",
"}. c #4D5292",
"|. c #515591",
" X c #5B5F96",
".X c #55579E",
"XX c #6F4E8E",
"oX c #6A578C",
"OX c #645294",
"+X c #726E92",
"@X c #7B679B",
"#X c #5158A5",
"$X c #575FA8",
"%X c #6D5BA0",
"&X c #5B62AA",
"*X c #5C64B2",
"=X c #5F69BB",
"-X c #796AA7",
";X c #6A69B3",
":X c #636CBA",
">X c #6B71BC",
",X c #7B74B0",
"<X c #646EC2",
"1X c #6974C7",
"2X c #6A75CC",
"3X c #777FCB",
"4X c #6F7BD3",
"5X c #816FAC",
"6X c #7F88CE",
"7X c #888797",
"8X c #9788B8",
"9X c #AB8BAC",
"0X c #9EA2BE",
"qX c #A5A3BD",
"wX c #C68E97",
"eX c #8D8CCB",
/* pixels */
"b.b.b.b.b.b.b.b.b.b.b.b.b.b.b.b.b.b.b.b.b.b.b.b.b.b.b.b.b.b.b.b.b.b.b.b.b.b.b.b.b.b.b.b.b.b.b.b.b.b.b.b.b.b.b.b.b.b.b.b.b.b.b.b.",
"b.b.b.b.b.b.b.b.b.b.b.b.b.b.b.b.b.b.b.b.b.b.b.b.b.b.b.b.b.b.b.b.b.b.b.b.b.b.b.b.b.b.b.b.b.b.b.b.b.b.b.b.b.b.b.b.b.b.b.b.b.b.b.b.",
"b.b.b.b.b.b.b.b.b.b.b.b.b.b.b.b.b.b.b.b.b.b.b.b.b.b.b.b.b.b.b.b.b.b.b.b.b.b.b.b.b.b.b.b.b.b.b.b.b.b.b.b.b.b.b.b.b.b.b.b.b.b.b.b.",
"b.b.b.b.b.b.b.b.b.b.b.b.b.b.b.b.b.b.b.b.b.b.b.b.b.b.b.b.b.b.b.b.b.b.b.b.v.v.v.v.v.v.v.v.v.b.b.b.b.b.b.b.b.b.b.b.b.b.b.b.b.b.b.b.",
"b.b.b.b.b.b.b.b.b.b.b.b.b.b.b.b.b.b.b.b.b.b.b.b.b.b.b.b.b.b.b.b.b.b.b.v.a.p.p.p.y.y.y.p.a.b.b.b.b.b.b.b.b.b.b.b.b.b.b.b.b.b.b.b.",
"b.b.b.b.b.b.b.b.b.b.b.b.b.b.b.b.b.b.b.b.b.b.b.b.b.b.b.b.b.b.b.b.b.b.b.v.p.#.#.#.#.#.#.$.p.b.b.b.b.b.b.b.b.b.b.b.b.b.b.b.b.b.b.b.",
"b.b.b.b.b.b.b.b.b.b.b.b.b.b.b.b.b.b.b.b.b.b.b.b.b.b.b.b.b.b.b.b.b.v.n.a.$.} | | | | |  .$.v.b.b.b.b.b.b.b.b.b.b.b.b.b.b.b.b.b.b.",
"b.b.b.b.b.b.b.b.b.b.b.b.b.b.b.b.b.b.b.b.b.b.b.b.b.b.b.b.b.b.b.b.b.n.s.u...7 7 7 7 7 7 0 O.v.b.b.b.b.b.b.b.b.b.b.b.b.b.b.b.b.b.b.",
"b.b.b.b.b.b.b.b.b.b.b.b.b.b.b.b.b.b.b.b.b.b.b.b.b.b.b.b.b.b.b.b.b.d.h.&.r X           > | v.b.b.b.b.b.b.b.b.b.b.b.b.b.b.b.b.b.b.",
"b.b.b.b.b.b.b.b.b.b.b.b.b.b.b.b.b.b.b.b.b.b.b.b.b.v.n.d.d.d.d.d.d.V.P.D.h # @ @ @ @ @ 4 ..v.b.b.b.b.b.b.b.b.b.b.b.b.b.b.b.b.b.b.",
"b.b.b.b.b.b.b.b.b.b.b.b.b.b.b.b.b.b.b.b.b.b.b.b.b.n.k.h.h.h.h.h.h.P._ _.Z * $ $ $ $ $ p o.v.b.b.b.b.b.b.b.b.b.b.b.b.b.b.b.b.b.b.",
"b.b.b.b.b.b.b.b.b.b.b.b.b.b.b.b.b.b.b.b.b.b.b.b.b.s.V.8.8.8.7.7.7.G._.).L ; ; s x x x d 3.v.b.b.b.b.b.b.b.b.b.b.b.b.b.b.b.b.b.b.",
"b.b.b.b.b.b.b.b.b.b.b.b.b.b.b.b.b.b.b.b.b.b.b.b.b.j.P.J.J.H.H.H.H.H Z C L I U E ].[.[._ I.m.b.b.b.b.b.b.b.b.b.b.b.b.b.b.b.b.b.b.",
"b.b.b.b.b.b.b.b.b.b.b.b.b.b.b.b.b.b.b.b.b.b.b.b.b.V.R.XXOX.X.X.X.XU * $ C .X$X:X2X3X6X8XW.m.b.b.b.b.b.b.b.b.b.b.b.b.b.b.b.b.b.b.",
"b.b.b.b.b.b.b.b.b.b.b.b.b.b.b.b.b.b.b.b.b.b.b.b.b.V.J.~ ( ).).).).m $ @ l W |.&X1X3XeX8X^.m.b.b.b.b.b.b.b.b.b.b.b.b.b.b.b.b.b.b.",
"b.b.b.b.b.b.b.b.b.b.b.b.b.b.b.b.b.b.b.b.b.b.b.b.b.h.6.4.F m m m m ; @ O * l L {.*X,X8X9X!.m.b.b.b.b.b.b.b.b.b.b.b.b.b.b.b.b.b.b.",
"b.b.b.b.b.b.b.b.b.b.b.b.b.b.b.b.b.b.b.b.b.b.b.b.b.p.$.O.e u = = = $ O       - I #X-X9XwX~.m.b.b.b.b.b.b.b.b.b.b.b.b.b.b.b.b.b.b.",
"b.b.b.b.b.b.b.b.b.b.b.b.b.b.b.b.b.b.b.b.b.b.b.m.m.u.| r h m m m m ; @       $ c U / W.~.S.m.b.b.b.b.b.b.b.b.b.b.b.b.b.b.b.b.b.b.",
"b.b.b.b.b.b.b.b.b.b.b.b.b.b.b.b.b.b.b.b.b.b.m.N.B.1.8 2 v '.}.}.}.C $       O # y *.z.B.M.b.b.b.b.b.b.b.b.b.b.b.b.b.b.b.b.b.b.b.",
"b.b.b.b.b.b.b.b.b.b.b.b.b.b.b.b.b.b.b.b.b.b.M.Z.S.3.4 $ n '.}.}.}.L $       . : , [ p.v.v.v.v.v.b.b.b.b.b.b.b.b.b.b.b.b.b.b.b.b.",
"b.b.b.b.b.b.b.b.b.b.b.b.b.b.b.b.b.b.b.b.b.b.B.Q.^.L.i $ ; m C C C ; @       : w X.@.i.s.p.y.p.c.b.b.b.b.b.b.b.b.b.b.b.b.b.b.b.b.",
"b.b.b.b.b.b.b.b.b.b.b.b.b.b.b.b.b.b.b.b.b.b.A.(.qX+XN & @ O O O O O         3 X.g.g.g.g.%.#.-.a.b.b.b.b.b.b.b.b.b.b.b.b.b.b.b.b.",
"b.b.b.b.b.b.b.b.b.b.b.b.b.b.b.b.b.b.b.b.b.b.C.T.7X` V l - @ O O             4 g q.q.q.0.o.| O.y.b.b.b.b.b.b.b.b.b.b.b.b.b.b.b.b.",
"b.b.b.b.b.b.b.b.b.b.b.b.b.b.b.b.b.b.b.b.b.b.j.5.K D E I c $ @ O             y F ) ) ) ~ j 8 ] ,.b.b.b.b.b.b.b.b.b.b.b.b.b.b.b.b.",
"b.b.b.b.b.b.b.b.b.b.b.b.b.b.b.b.b.b.b.b.b.b.t.] : x '.}.I - $ @             - I #X#X#X}.C O 8 O.b.b.b.b.b.b.b.b.b.b.b.b.b.b.b.b.",
"b.b.b.b.b.b.b.b.b.b.b.b.b.b.b.b.b.b.b.b.b.b.p.+.] f Z I L C l *         X X % x U U U Z s + 8 +.b.b.b.b.b.b.b.b.b.b.b.b.b.b.b.b.",
"b.b.b.b.b.b.b.b.b.b.b.b.b.b.b.b.b.b.b.b.b.b.v.a.p...p - C '.R ;         . o 1 2 y y y t 1 : 9 +.b.b.b.b.b.b.b.b.b.b.b.b.b.b.b.b.",
"b.b.b.b.b.b.b.b.b.b.b.b.b.b.b.b.b.b.b.b.b.b.b.b.b.O., $ n '.R l O O O O : > , , , , , , , , q >.b.b.b.b.b.b.b.b.b.b.b.b.b.b.b.b.",
"b.b.b.b.b.b.b.b.b.b.b.b.b.b.b.b.b.b.b.b.b.b.b.b.b.O., @ ; L m ; @ @ @ # 3 q ] [  . . . . . .+.y.b.b.b.b.b.b.b.b.b.b.b.b.b.b.b.b.",
"b.b.b.b.b.b.b.b.b.b.b.b.b.b.b.b.b.b.b.b.b.b.b.b.b.O., O $ - = = * & * y e O.$.p.v.v.v.v.v.v.v.v.b.b.b.b.b.b.b.b.b.b.b.b.b.b.b.b.",
"b.b.b.b.b.b.b.b.b.b.b.b.b.b.b.b.b.b.b.b.b.b.b.v.n.@.3 @ - c c n V V V B j ..O.t.a.v.v.b.b.b.b.b.b.b.b.b.b.b.b.b.b.b.b.b.b.b.b.b.",
"b.b.b.b.b.b.b.b.b.b.b.b.b.b.b.b.b.b.b.b.b.b.v.d.k.o.5 = c R W {. X X X[.G f r @.t.p.v.b.b.b.b.b.b.b.b.b.b.b.b.b.b.b.b.b.b.b.b.b.",
"b.b.b.b.b.b.b.b.b.b.b.b.b.b.b.b.b.b.b.b.b.b.n.k.g.=.p ; I .X*X<X4X4X4X>X].- p X.#.t.v.b.b.b.b.b.b.b.b.b.b.b.b.b.b.b.b.b.b.b.b.b.",
"b.b.b.b.b.b.b.b.b.b.b.b.b.b.b.b.b.v.n.d.a.p.h.w.F.J Z C L I `.$X<X1X4X1X XC b f X.:.a.b.b.b.b.b.b.b.b.b.b.b.b.b.b.b.b.b.b.b.b.b.",
"b.b.b.b.b.b.b.b.b.b.b.b.b.b.b.b.b.n.k.h.u.$.6.G.oX].{.).C * z W $X=X2X2X*X}.E B p ;.s.b.b.b.b.b.b.b.b.b.b.b.b.b.b.b.b.b.b.b.b.b.",
"b.b.b.b.b.b.b.b.b.b.b.b.v.v.v.v.v.k.V.8.1.O.*.H }.}.}.).c O = L }.&X1X1X*X}.W A N 4.f.b.b.b.b.b.b.b.b.b.b.b.b.b.b.b.b.b.b.b.b.b.",
"b.b.b.b.b.b.b.b.b.b.b.v.a.p.y.y.y.9.E.R.D.e f b C C C c - . # s V Q &X*X{.C P ^ ' Y.x.b.b.b.b.b.b.b.b.b.b.b.b.b.b.b.b.b.b.b.b.b.",
"b.b.b.b.b.b.b.b.b.b.b.v.p.#.#.#.#.L.-X>XQ a % @ O O O O . : : : 1 v '.}.C @ k ' 0X/.Z.b.b.b.b.b.b.b.b.b.b.b.b.b.b.b.b.b.b.b.b.b.",
"b.b.b.b.b.b.b.b.b.v.c.p.$.} | | | D.-X;X].v a % X X X o , 9 9 9 9 h E W c @ k ` 7XT.x.b.b.b.b.b.b.b.b.b.b.b.b.b.b.b.b.b.b.b.b.b.",
"b.b.b.b.b.b.b.b.b.a.y.$.} 7 7 7 7 F oX%XoXT M u . . . > 0 +.+.+.+.*.b n ; $ u N D 5.f.b.b.b.b.b.b.b.b.b.b.b.b.b.b.b.b.b.b.b.b.b.",
"b.b.b.b.b.b.b.b.b.p.$.O.0 X       s ( XXXXXX! d : : : ,  .v.b.b.b.<.p = = = $ @   q y.b.b.b.b.b.b.b.b.b.b.b.b.b.b.b.b.b.b.b.b.b.",
"b.b.b.b.b.b.b.b.b.t.| q < . X X X p D.K.K.K.F.*.] ] ] { ,.v.b.b.b.9.H Y Y Y V a X q p.b.b.b.b.b.b.b.b.b.b.b.b.b.b.b.b.b.b.b.b.b.",
"b.b.b.b.b.b.b.b.b.+.8 : : o o o o r 2.l.l.l.k.f.p.p.p.p.c.b.b.b.b.U.@X:X:X:X XB o ] p.b.b.b.b.b.b.b.b.b.b.b.b.b.b.b.b.b.b.b.b.b.",
"b.b.b.b.b.b.b.b.b.+., X : , , , , { p.b.b.b.b.b.b.b.b.b.b.b.b.b.b.U.5X2X2X2X%XS , { p.b.b.b.b.b.b.b.b.b.b.b.b.b.b.b.b.b.b.b.b.b.",
"b.b.b.b.b.b.b.b.b.+., : 9 |  . . .,.c.b.b.b.b.b.b.b.b.b.b.b.b.b.b.U.@X:X:X:XoXD. .,.c.b.b.b.b.b.b.b.b.b.b.b.b.b.b.b.b.b.b.b.b.b.",
"b.b.b.b.b.b.b.b.b.+.< , | c.v.v.v.v.b.b.b.b.b.b.b.b.b.b.b.b.b.b.b.r.oX#X#X#X_ e.v.v.b.b.b.b.b.b.b.b.b.b.b.b.b.b.b.b.b.b.b.b.b.b.",
"b.b.b.b.b.b.b.b.b.,.] q +.v.b.b.b.b.b.b.b.b.b.b.b.b.b.b.b.b.b.b.b.w.! W W W H 6.a.v.v.b.b.b.b.b.b.b.b.b.b.b.b.b.b.b.b.b.b.b.b.b.",
"b.b.b.b.b.b.b.b.b.p.,.>.y.v.b.b.b.b.b.b.b.b.b.b.b.b.b.b.b.b.b.b.b.1.d l l l h o.t.p.v.b.b.b.b.b.b.b.b.b.b.b.b.b.b.b.b.b.b.b.b.b.",
"b.b.b.b.b.b.b.b.b.b.b.b.b.b.b.b.b.b.b.b.b.b.b.b.b.b.b.b.b.b.b.b.b.O.,       , ] #.t.v.b.b.b.b.b.b.b.b.b.b.b.b.b.b.b.b.b.b.b.b.b.",
"b.b.b.b.b.b.b.b.b.b.b.b.b.b.b.b.b.b.b.b.b.b.b.b.b.b.b.b.b.b.b.b.b.+., X X X > 6 ] +.a.b.b.b.b.b.b.b.b.b.b.b.b.b.b.b.b.b.b.b.b.b.",
"b.b.b.b.b.b.b.b.b.b.b.b.b.b.b.b.b.b.b.b.b.b.b.b.b.b.b.b.b.b.b.b.b.+.< o o o : > , [ p.b.b.b.b.b.b.b.b.b.b.b.b.b.b.b.b.b.b.b.b.b.",
"b.b.b.b.b.b.b.b.b.b.b.b.b.b.b.b.b.b.b.b.b.b.b.b.b.b.b.b.b.b.b.b.b.>.0 , , , , , , { p.b.b.b.b.b.b.b.b.b.b.b.b.b.b.b.b.b.b.b.b.b.",
"b.b.b.b.b.b.b.b.b.b.b.b.b.b.b.b.b.b.b.b.b.b.b.b.b.b.b.b.b.b.b.b.b.y.O. . . . . . .,.c.b.b.b.b.b.b.b.b.b.b.b.b.b.b.b.b.b.b.b.b.b.",
"b.b.b.b.b.b.b.b.b.b.b.b.b.b.b.b.b.b.b.b.b.b.b.b.b.b.b.b.b.b.b.b.b.v.v.v.v.v.v.v.v.v.b.b.b.b.b.b.b.b.b.b.b.b.b.b.b.b.b.b.b.b.b.b.",
"b.b.b.b.b.b.b.b.b.b.b.b.b.b.b.b.b.b.b.b.b.b.b.b.b.b.b.b.b.b.b.b.b.b.b.b.b.b.b.b.b.b.b.b.b.b.b.b.b.b.b.b.b.b.b.b.b.b.b.b.b.b.b.b.",
"b.b.b.b.b.b.b.b.b.b.b.b.b.b.b.b.b.b.b.b.b.b.b.b.b.b.b.b.b.b.b.b.b.b.b.b.b.b.b.b.b.b.b.b.b.b.b.b.b.b.b.b.b.b.b.b.b.b.b.b.b.b.b.b.",
"b.b.b.b.b.b.b.b.b.b.b.b.b.b.b.b.b.b.b.b.b.b.b.b.b.b.b.b.b.b.b.b.b.b.b.b.b.b.b.b.b.b.b.b.b.b.b.b.b.b.b.b.b.b.b.b.b.b.b.b.b.b.b.b.",
"b.b.b.b.b.b.b.b.b.b.b.b.b.b.b.b.b.b.b.b.b.b.b.b.b.b.b.b.b.b.b.b.b.b.b.b.b.b.b.b.b.b.b.b.b.b.b.b.b.b.b.b.b.b.b.b.b.b.b.b.b.b.b.b.",
"b.b.b.b.b.b.b.b.b.b.b.b.b.b.b.b.b.b.b.b.b.b.b.b.b.b.b.b.b.b.b.b.b.b.b.b.b.b.b.b.b.b.b.b.b.b.b.b.b.b.b.b.b.b.b.b.b.b.b.b.b.b.b.b.",
"b.b.b.b.b.b.b.b.b.b.b.b.b.b.b.b.b.b.b.b.b.b.b.b.b.b.b.b.b.b.b.b.b.b.b.b.b.b.b.b.b.b.b.b.b.b.b.b.b.b.b.b.b.b.b.b.b.b.b.b.b.b.b.b.",
"b.b.b.b.b.b.b.b.b.b.b.b.b.b.b.b.b.b.b.b.b.b.b.b.b.b.b.b.b.b.b.b.b.b.b.b.b.b.b.b.b.b.b.b.b.b.b.b.b.b.b.b.b.b.b.b.b.b.b.b.b.b.b.b.",
"b.b.b.b.b.b.b.b.b.b.b.b.b.b.b.b.b.b.b.b.b.b.b.b.b.b.b.b.b.b.b.b.b.b.b.b.b.b.b.b.b.b.b.b.b.b.b.b.b.b.b.b.b.b.b.b.b.b.b.b.b.b.b.b.",
"b.b.b.b.b.b.b.b.b.b.b.b.b.b.b.b.b.b.b.b.b.b.b.b.b.b.b.b.b.b.b.b.b.b.b.b.b.b.b.b.b.b.b.b.b.b.b.b.b.b.b.b.b.b.b.b.b.b.b.b.b.b.b.b.",
"b.b.b.b.b.b.b.b.b.b.b.b.b.b.b.b.b.b.b.b.b.b.b.b.b.b.b.b.b.b.b.b.b.b.b.b.b.b.b.b.b.b.b.b.b.b.b.b.b.b.b.b.b.b.b.b.b.b.b.b.b.b.b.b."
};
