/* XPM */
static char *_496a3d60c1f4962f45c74a8ddbf3cc6HUi6uGo7lxOS4NAb[] = {
/* columns rows colors chars-per-pixel */
"64 64 161 2 ",
"   c #32280D",
".  c #3A2A0C",
"X  c #342B12",
"o  c #372E1C",
"O  c #3B321A",
"+  c #3A3225",
"@  c #3C352C",
"#  c #3D3832",
"$  c #3F3A39",
"%  c #432B0C",
"&  c #4B2D0B",
"*  c #522E0B",
"=  c #582F0A",
"-  c #5D310A",
";  c #4E2F11",
":  c #483317",
">  c #47321D",
",  c #62310A",
"<  c #6D3409",
"1  c #733509",
"2  c #793608",
"3  c #61381D",
"4  c #743C1B",
"5  c #7E3E1B",
"6  c #443321",
"7  c #453922",
"8  c #463C28",
"9  c #553927",
"0  c #413D3D",
"q  c #653B23",
"w  c #514838",
"e  c #704028",
"r  c #78432E",
"t  c #6C4439",
"y  c #433F43",
"u  c #434045",
"i  c #45424C",
"p  c #59464A",
"a  c #5C5346",
"s  c #4B4755",
"d  c #4E4857",
"f  c #494859",
"g  c #5D585D",
"h  c #634746",
"j  c #684949",
"k  c #625343",
"l  c #634D56",
"z  c #644E59",
"x  c #765158",
"c  c #6E655F",
"v  c #4C4C63",
"b  c #4F4F6A",
"n  c #4F506C",
"m  c #515272",
"M  c #5E5674",
"N  c #605369",
"B  c #7E5967",
"V  c #625979",
"C  c #706863",
"Z  c #7C696B",
"A  c #676471",
"S  c #873907",
"D  c #8C3A07",
"F  c #913B07",
"G  c #9B3D06",
"H  c #853E18",
"J  c #A03E05",
"K  c #A83F05",
"L  c #9C400F",
"P  c #984113",
"I  c #9A441B",
"U  c #AC4005",
"Y  c #A4400A",
"T  c #AD430C",
"R  c #B24104",
"E  c #BE4403",
"W  c #AB4411",
"Q  c #834123",
"!  c #874A37",
"~  c #8C5434",
"^  c #B04B21",
"/  c #A55023",
"(  c #B65334",
")  c #C34403",
"_  c #CE4702",
"`  c #C2470B",
"'  c #D04702",
"]  c #D74802",
"[  c #DD4A01",
"{  c #D74D0C",
"}  c #C74E1C",
"|  c #DB531D",
" . c #E54B01",
".. c #EE4D00",
"X. c #E94F09",
"o. c #EE5005",
"O. c #E25415",
"+. c #EC5A17",
"@. c #C44F21",
"#. c #C95122",
"$. c #DA5522",
"%. c #D2572E",
"&. c #CE5935",
"*. c #EA6226",
"=. c #804E47",
"-. c #8C5046",
";. c #845354",
":. c #915755",
">. c #BB5943",
",. c #B05C51",
"<. c #BD5F52",
"1. c #856B68",
"2. c #8D6A78",
"3. c #916276",
"4. c #986270",
"5. c #976A7F",
"6. c #9D687F",
"7. c #827A7A",
"8. c #AF656A",
"9. c #A96774",
"0. c #C65C42",
"q. c #C9664B",
"w. c #C4704E",
"e. c #DE7C57",
"r. c #E7774B",
"t. c #C27766",
"y. c #E39079",
"u. c #575B86",
"i. c #5C5D82",
"p. c #585D89",
"a. c #5A5F90",
"s. c #605E89",
"d. c #5C6296",
"f. c #5E659D",
"g. c #61649A",
"h. c #7C6995",
"j. c #6067A2",
"k. c #6769A3",
"l. c #636BAC",
"z. c #7D6DA0",
"x. c #656EB3",
"c. c #6772BA",
"v. c #6872BC",
"b. c #7A74B6",
"n. c #6A75C3",
"m. c #6B77C8",
"M. c #6C79CC",
"N. c #6F7CD4",
"B. c #9F6A85",
"V. c #8F709F",
"C. c #8073B1",
"Z. c #86808B",
"A. c #9D9095",
"S. c #BA8A87",
"D. c #B69497",
"F. c #A9A3B1",
"G. c #AFA8B8",
"H. c #E19D90",
"J. c #D6ACAE",
"K. c #CAC5DE",
"L. c #D9CDE7",
/* pixels */
"................................................................................................................................",
"................................................................................................................................",
"................................................................................................................................",
".................................................. .[ ] ] ] ] ] ] [ ............................................................",
".................................................._ J F F F F F F R [ ..........................................................",
"..................................................U = . . . . . . 2 ' ..........................................................",
"..................................................K *             2 _ ..........................................................",
"..................................................K *             2 _ ..........................................................",
"..................................................K *             2 _ ..........................................................",
"..................................................^ h f f f f f f ! { ..........................................................",
"..................................................>.h.x.x.x.x.x.x.4.| ..........................................................",
"........................................ .] ] ] ] ,.C.N.m.v.c.c.c.3.@.[  .......................................................",
"...................................... .E F F F F ;.b.m.j.m m m m j H G E ......................................................",
"......................................] F % . . . d x.v.m o X X X X . * F  .....................................................",
"..................................[ ) U 2 .       u p.d.m y # +       % 2 E _ [ ................................................",
"..................................) D 1 *         @ i f m u.b 0       . * 1 F ) ................................................",
"..................................K *                 + m M.j.f             , K ................................................",
"............................[ ) K Q p i # X           + m M.j.f             , K ................................................",
"............................) D * p g.f.v X           + m M.j.f             , K ................................................",
"........................ .] T 4 + f j.j.v X       X + $ m x.a.i       X o + 3 L ] [ ............................................",
"...................... .E F Q j m m m v 0 X       # v m m m f #       o 0 n l r F R [ ..........................................",
"......................] F % 0 u.M.u.# X X         s l.x.m o X X       + n n.g.s . 2 ' ..........................................",
"......................{ / k g i.j.N q , , , * %   u p.a.f X           + m M.j.f   2 _ ..........................................",
"......................O.w.A.Z.A f t P K K K D -   @ i i # X           + m M.j.f   2 _ ..........................................",
"......................+.y.L.G.C   2 _ ......E 2                       + m M.j.f   2 _ ..........................................",
"......................+.r.H.S.1.f t P R _ ..E 2   @ i f f f u @       o i u.b 0   2 _ ..........................................",
"......................o.+.*.q.5.x.M 9 , J  .E 2   i d.x.x.x.p.i       X o @ + o   2 _ ..........................................",
"............................%.9.b.V @ & F  .E 2   f x.N.m.v.d.f + o X X O 8 7 O   2 _ ..........................................",
"............................| 0.8.=.> & F  .E 2   f x.m.j.m m m m i o O a 7.C w   2 _ ..........................................",
"..............................X.X.Y * & F  .E 2   f x.v.m o y u.M.u.@ 8 7.K.F.c   2 _ ..........................................",
"..................................E 2 1 K ..E 2   u p.d.m y v f.N.p.@ 7 1.J.D.Z 0 e T ) ] ......................................",
"..................................] R R _ ..E 2   @ i f m u.f.c.N.p.@ : ~ e.t.2.p.z 4 S R ......................................",
"............................................E 2       + m M.N.N.N.p.@ & F  .&.B.N.p.@ & F  .....................................",
"............................................E 2       + m M.N.N.N.p.@ & F  .$.<.B.x 6 & F  .....................................",
"............................................E 2       + m M.N.N.N.p.@ & F  .X.O.$.I ; & F  .....................................",
"............................................` 5 + o X + v x.n.M.N.p.@ & F  .......R , - G  .....................................",
"............................................} -.m i o o 0 n p.l.N.p.@ & F  ......._ J G E ......................................",
"............................................&.6.M.u.@   X X u p.N.p.@ & F  ......... . .........................................",
"............................................&.B.N.p.@       # b j.b + & F  .....................................................",
"............................................&.B.N.p.@       + 0 f 0 o & F  .....................................................",
"............................................&.B.N.p.@                 & F  .....................................................",
"............................................#.:.p.m v f f f u @   & < S R ......................................................",
"............................................` 5 @ v f.x.x.x.p.i   < R ' [ ......................................................",
"............................................E 2   f x.N.N.N.j.f   2 _ ..........................................................",
"............................................E 2   f x.N.N.N.j.f   2 _ ..........................................................",
"............................................E 2   f x.N.N.N.j.f   2 _ ..........................................................",
"............................................_ F , h s.l.c.N.k.l , F ] ..........................................................",
"............................................[ ) K Q p v d.M.z.:.K )  ...........................................................",
"..................................................K * + m M.V.<.................................................................",
"..................................................K * o i u.B ( ................................................................",
"..................................................K * X o @ q W ................................................................",
"..................................................K *       - G ] [ ............................................................",
"..................................................K *       & < F R [ ..........................................................",
"..................................................K *           . 2 ' ..........................................................",
"..................................................K *       . & , F ] ..........................................................",
"..................................................K *       & 2 K )  ...........................................................",
"..................................................K *       , K ................................................................",
"..................................................) D 2 2 2 F ) ................................................................",
".................................................. .] _ _ _ ]  .................................................................",
"................................................................................................................................",
"................................................................................................................................",
"................................................................................................................................",
"................................................................................................................................",
"................................................................................................................................"
};
